<?xml version="1.0" encoding="UTF-8" standalone="no"?>
<!DOCTYPE svg PUBLIC "-//W3C//DTD SVG 1.1//EN"
 "http://www.w3.org/Graphics/SVG/1.1/DTD/svg11.dtd">
<!-- Generated by graphviz version 15.0.0 (20260523.1842)
 -->
<!-- Title: MomentumDynamicsFlow Pages: 1 -->
<svg width="736pt" height="1260pt"
 viewBox="0.00 0.00 736.00 1260.00" xmlns="http://www.w3.org/2000/svg" xmlns:xlink="http://www.w3.org/1999/xlink">
<g id="graph0" class="graph" transform="scale(1 1) rotate(0) translate(4 1256.25)">
<title>MomentumDynamicsFlow</title>
<polygon fill="white" stroke="none" points="-4,4 -4,-1256.25 732,-1256.25 732,4 -4,4"/>
<!-- ContactDynamics -->
<g id="node1" class="node">
<title>ContactDynamics</title>
<g id="a_node1"><a xlink:href="vscode://file/C:/_DJ/gPCD/docs/Dynamics/SourceDocumentation.tex:88:1" xlink:title="Open the ContactDynamics section in SourceDocumentation.tex" target="_blank">
<path fill="#f8f8f8" stroke="#606060" d="M230.88,-1252.25C230.88,-1252.25 160.12,-1252.25 160.12,-1252.25 154.12,-1252.25 148.12,-1246.25 148.12,-1240.25 148.12,-1240.25 148.12,-1228.25 148.12,-1228.25 148.12,-1222.25 154.12,-1216.25 160.12,-1216.25 160.12,-1216.25 230.88,-1216.25 230.88,-1216.25 236.88,-1216.25 242.88,-1222.25 242.88,-1228.25 242.88,-1228.25 242.88,-1240.25 242.88,-1240.25 242.88,-1246.25 236.88,-1252.25 230.88,-1252.25"/>
<text xml:space="preserve" text-anchor="middle" x="195.5" y="-1230" font-family="Consolas" font-size="10.00">ContactDynamics</text>
</a>
</g>
</g>
<!-- BeginSourceContactParms -->
<g id="node2" class="node">
<title>BeginSourceContactParms</title>
<g id="a_node2"><a xlink:href="vscode://file/C:/_DJ/gPCD/docs/Dynamics/SourceDocumentation.tex:111:1" xlink:title="Open the BeginSourceContactParms section in SourceDocumentation.tex" target="_blank">
<path fill="#f8f8f8" stroke="#606060" d="M251.88,-1167.25C251.88,-1167.25 139.12,-1167.25 139.12,-1167.25 133.12,-1167.25 127.12,-1161.25 127.12,-1155.25 127.12,-1155.25 127.12,-1143.25 127.12,-1143.25 127.12,-1137.25 133.12,-1131.25 139.12,-1131.25 139.12,-1131.25 251.88,-1131.25 251.88,-1131.25 257.88,-1131.25 263.88,-1137.25 263.88,-1143.25 263.88,-1143.25 263.88,-1155.25 263.88,-1155.25 263.88,-1161.25 257.88,-1167.25 251.88,-1167.25"/>
<text xml:space="preserve" text-anchor="middle" x="195.5" y="-1145" font-family="Consolas" font-size="10.00">BeginSourceContactParms</text>
</a>
</g>
</g>
<!-- ContactDynamics&#45;&gt;BeginSourceContactParms -->
<g id="edge1" class="edge">
<title>ContactDynamics&#45;&gt;BeginSourceContactParms</title>
<path fill="none" stroke="#505050" d="M195.5,-1215.81C195.5,-1215.81 195.5,-1176.17 195.5,-1176.17"/>
<polygon fill="#505050" stroke="#505050" points="197.95,-1176.17 195.5,-1169.17 193.05,-1176.17 197.95,-1176.17"/>
</g>
<!-- InitializeContactState -->
<g id="node3" class="node">
<title>InitializeContactState</title>
<g id="a_node3"><a xlink:href="vscode://file/C:/_DJ/gPCD/docs/Dynamics/SourceDocumentation.tex:124:1" xlink:title="Open the InitializeContactState section in SourceDocumentation.tex" target="_blank">
<path fill="#f8f8f8" stroke="#606060" d="M249.25,-1073.5C249.25,-1073.5 141.75,-1073.5 141.75,-1073.5 135.75,-1073.5 129.75,-1067.5 129.75,-1061.5 129.75,-1061.5 129.75,-1049.5 129.75,-1049.5 129.75,-1043.5 135.75,-1037.5 141.75,-1037.5 141.75,-1037.5 249.25,-1037.5 249.25,-1037.5 255.25,-1037.5 261.25,-1043.5 261.25,-1049.5 261.25,-1049.5 261.25,-1061.5 261.25,-1061.5 261.25,-1067.5 255.25,-1073.5 249.25,-1073.5"/>
<text xml:space="preserve" text-anchor="middle" x="195.5" y="-1051.25" font-family="Consolas" font-size="10.00">InitializeContactState</text>
</a>
</g>
</g>
<!-- BeginSourceContactParms&#45;&gt;InitializeContactState -->
<g id="edge2" class="edge">
<title>BeginSourceContactParms&#45;&gt;InitializeContactState</title>
<path fill="none" stroke="#505050" d="M195.5,-1131.17C195.5,-1131.17 195.5,-1082.35 195.5,-1082.35"/>
<polygon fill="#505050" stroke="#505050" points="197.95,-1082.35 195.5,-1075.35 193.05,-1082.35 197.95,-1082.35"/>
<text xml:space="preserve" text-anchor="middle" x="229.62" y="-1098.7" font-family="Consolas" font-size="9.00">first contact</text>
</g>
<!-- GetContactState -->
<g id="node4" class="node">
<title>GetContactState</title>
<g id="a_node4"><a xlink:href="vscode://file/C:/_DJ/gPCD/docs/Dynamics/SourceDocumentation.tex:132:1" xlink:title="Open the GetContactState section in SourceDocumentation.tex" target="_blank">
<path fill="#f8f8f8" stroke="#606060" d="M150.88,-988.5C150.88,-988.5 80.12,-988.5 80.12,-988.5 74.12,-988.5 68.12,-982.5 68.12,-976.5 68.12,-976.5 68.12,-964.5 68.12,-964.5 68.12,-958.5 74.12,-952.5 80.12,-952.5 80.12,-952.5 150.88,-952.5 150.88,-952.5 156.88,-952.5 162.88,-958.5 162.88,-964.5 162.88,-964.5 162.88,-976.5 162.88,-976.5 162.88,-982.5 156.88,-988.5 150.88,-988.5"/>
<text xml:space="preserve" text-anchor="middle" x="115.5" y="-966.25" font-family="Consolas" font-size="10.00">GetContactState</text>
</a>
</g>
</g>
<!-- InitializeContactState&#45;&gt;GetContactState -->
<g id="edge3" class="edge">
<title>InitializeContactState&#45;&gt;GetContactState</title>
<path fill="none" stroke="#505050" d="M146.31,-1037.06C146.31,-1037.06 146.31,-997.42 146.31,-997.42"/>
<polygon fill="#505050" stroke="#505050" points="148.76,-997.42 146.31,-990.42 143.86,-997.42 148.76,-997.42"/>
</g>
<!-- AppendContactSlot -->
<g id="node7" class="node">
<title>AppendContactSlot</title>
<g id="a_node7"><a xlink:href="vscode://file/C:/_DJ/gPCD/docs/Dynamics/SourceDocumentation.tex:142:1" xlink:title="Open the AppendContactSlot section in SourceDocumentation.tex" target="_blank">
<path fill="#f8f8f8" stroke="#606060" d="M150.12,-903.5C150.12,-903.5 68.88,-903.5 68.88,-903.5 62.88,-903.5 56.88,-897.5 56.88,-891.5 56.88,-891.5 56.88,-879.5 56.88,-879.5 56.88,-873.5 62.88,-867.5 68.88,-867.5 68.88,-867.5 150.12,-867.5 150.12,-867.5 156.12,-867.5 162.12,-873.5 162.12,-879.5 162.12,-879.5 162.12,-891.5 162.12,-891.5 162.12,-897.5 156.12,-903.5 150.12,-903.5"/>
<text xml:space="preserve" text-anchor="middle" x="109.5" y="-881.25" font-family="Consolas" font-size="10.00">AppendContactSlot</text>
</a>
</g>
</g>
<!-- GetContactState&#45;&gt;AppendContactSlot -->
<g id="edge4" class="edge">
<title>GetContactState&#45;&gt;AppendContactSlot</title>
<path fill="none" stroke="#505050" d="M115.12,-952.06C115.12,-952.06 115.12,-912.42 115.12,-912.42"/>
<polygon fill="#505050" stroke="#505050" points="117.58,-912.42 115.13,-905.42 112.68,-912.42 117.58,-912.42"/>
</g>
<!-- GetParticleGeometry -->
<g id="node5" class="node">
<title>GetParticleGeometry</title>
<g id="a_node5"><a xlink:href="vscode://file/C:/_DJ/gPCD/docs/Dynamics/SourceDocumentation.tex:177:1" xlink:title="Open the GetParticleGeometry section in SourceDocumentation.tex" target="_blank">
<path fill="#f8f8f8" stroke="#606060" d="M127.38,-546C127.38,-546 35.62,-546 35.62,-546 29.62,-546 23.62,-540 23.62,-534 23.62,-534 23.62,-522 23.62,-522 23.62,-516 29.62,-510 35.62,-510 35.62,-510 127.38,-510 127.38,-510 133.38,-510 139.38,-516 139.38,-522 139.38,-522 139.38,-534 139.38,-534 139.38,-540 133.38,-546 127.38,-546"/>
<text xml:space="preserve" text-anchor="middle" x="81.5" y="-523.75" font-family="Consolas" font-size="10.00">GetParticleGeometry</text>
</a>
</g>
</g>
<!-- GetParticlePosition -->
<g id="node6" class="node">
<title>GetParticlePosition</title>
<g id="a_node6"><a xlink:href="vscode://file/C:/_DJ/gPCD/docs/Dynamics/SourceDocumentation.tex:192:1" xlink:title="Open the GetParticlePosition section in SourceDocumentation.tex" target="_blank">
<path fill="#f8f8f8" stroke="#606060" d="M127.38,-461C127.38,-461 35.62,-461 35.62,-461 29.62,-461 23.62,-455 23.62,-449 23.62,-449 23.62,-437 23.62,-437 23.62,-431 29.62,-425 35.62,-425 35.62,-425 127.38,-425 127.38,-425 133.38,-425 139.38,-431 139.38,-437 139.38,-437 139.38,-449 139.38,-449 139.38,-455 133.38,-461 127.38,-461"/>
<text xml:space="preserve" text-anchor="middle" x="81.5" y="-438.75" font-family="Consolas" font-size="10.00">GetParticlePosition</text>
</a>
</g>
</g>
<!-- GetParticleGeometry&#45;&gt;GetParticlePosition -->
<g id="edge9" class="edge">
<title>GetParticleGeometry&#45;&gt;GetParticlePosition</title>
<path fill="none" stroke="#505050" d="M81.5,-509.56C81.5,-509.56 81.5,-469.92 81.5,-469.92"/>
<polygon fill="#505050" stroke="#505050" points="83.95,-469.92 81.5,-462.92 79.05,-469.92 83.95,-469.92"/>
</g>
<!-- GetStartFrameVelocity -->
<g id="node12" class="node">
<title>GetStartFrameVelocity</title>
<g id="a_node12"><a xlink:href="vscode://file/C:/_DJ/gPCD/docs/Dynamics/SourceDocumentation.tex:222:1" xlink:title="Open the GetStartFrameVelocity section in SourceDocumentation.tex" target="_blank">
<path fill="#f8f8f8" stroke="#606060" d="M133.62,-376C133.62,-376 31.38,-376 31.38,-376 25.38,-376 19.38,-370 19.38,-364 19.38,-364 19.38,-352 19.38,-352 19.38,-346 25.38,-340 31.38,-340 31.38,-340 133.62,-340 133.62,-340 139.62,-340 145.62,-346 145.62,-352 145.62,-352 145.62,-364 145.62,-364 145.62,-370 139.62,-376 133.62,-376"/>
<text xml:space="preserve" text-anchor="middle" x="82.5" y="-353.75" font-family="Consolas" font-size="10.00">GetStartFrameVelocity</text>
</a>
</g>
</g>
<!-- GetParticlePosition&#45;&gt;GetStartFrameVelocity -->
<g id="edge10" class="edge">
<title>GetParticlePosition&#45;&gt;GetStartFrameVelocity</title>
<path fill="none" stroke="#505050" d="M81.5,-424.56C81.5,-424.56 81.5,-384.92 81.5,-384.92"/>
<polygon fill="#505050" stroke="#505050" points="83.95,-384.92 81.5,-377.92 79.05,-384.92 83.95,-384.92"/>
</g>
<!-- GetContactSlots -->
<g id="node8" class="node">
<title>GetContactSlots</title>
<g id="a_node8"><a xlink:href="vscode://file/C:/_DJ/gPCD/docs/Dynamics/SourceDocumentation.tex:158:1" xlink:title="Open the GetContactSlots section in SourceDocumentation.tex" target="_blank">
<path fill="#f8f8f8" stroke="#606060" d="M139.88,-818.5C139.88,-818.5 69.12,-818.5 69.12,-818.5 63.12,-818.5 57.12,-812.5 57.12,-806.5 57.12,-806.5 57.12,-794.5 57.12,-794.5 57.12,-788.5 63.12,-782.5 69.12,-782.5 69.12,-782.5 139.88,-782.5 139.88,-782.5 145.88,-782.5 151.88,-788.5 151.88,-794.5 151.88,-794.5 151.88,-806.5 151.88,-806.5 151.88,-812.5 145.88,-818.5 139.88,-818.5"/>
<text xml:space="preserve" text-anchor="middle" x="104.5" y="-796.25" font-family="Consolas" font-size="10.00">GetContactSlots</text>
</a>
</g>
</g>
<!-- AppendContactSlot&#45;&gt;GetContactSlots -->
<g id="edge5" class="edge">
<title>AppendContactSlot&#45;&gt;GetContactSlots</title>
<path fill="none" stroke="#505050" d="M104.5,-867.06C104.5,-867.06 104.5,-827.42 104.5,-827.42"/>
<polygon fill="#505050" stroke="#505050" points="106.95,-827.42 104.5,-820.42 102.05,-827.42 106.95,-827.42"/>
</g>
<!-- GetCollisionPhase -->
<g id="node9" class="node">
<title>GetCollisionPhase</title>
<g id="a_node9"><a xlink:href="vscode://file/C:/_DJ/gPCD/docs/Dynamics/SourceDocumentation.tex:165:1" xlink:title="Open the GetCollisionPhase section in SourceDocumentation.tex" target="_blank">
<path fill="#f8f8f8" stroke="#606060" d="M137.12,-733.5C137.12,-733.5 55.88,-733.5 55.88,-733.5 49.88,-733.5 43.88,-727.5 43.88,-721.5 43.88,-721.5 43.88,-709.5 43.88,-709.5 43.88,-703.5 49.88,-697.5 55.88,-697.5 55.88,-697.5 137.12,-697.5 137.12,-697.5 143.12,-697.5 149.12,-703.5 149.12,-709.5 149.12,-709.5 149.12,-721.5 149.12,-721.5 149.12,-727.5 143.12,-733.5 137.12,-733.5"/>
<text xml:space="preserve" text-anchor="middle" x="96.5" y="-711.25" font-family="Consolas" font-size="10.00">GetCollisionPhase</text>
</a>
</g>
</g>
<!-- GetContactSlots&#45;&gt;GetCollisionPhase -->
<g id="edge6" class="edge">
<title>GetContactSlots&#45;&gt;GetCollisionPhase</title>
<path fill="none" stroke="#505050" d="M103.12,-782.06C103.12,-782.06 103.12,-742.42 103.12,-742.42"/>
<polygon fill="#505050" stroke="#505050" points="105.58,-742.42 103.13,-735.42 100.68,-742.42 105.58,-742.42"/>
</g>
<!-- GetCollisionInternalMomentum -->
<g id="node10" class="node">
<title>GetCollisionInternalMomentum</title>
<g id="a_node10"><a xlink:href="vscode://file/C:/_DJ/gPCD/docs/Dynamics/SourceDocumentation.tex:171:1" xlink:title="Open the GetCollisionInternalMomentum section in SourceDocumentation.tex" target="_blank">
<path fill="#f8f8f8" stroke="#606060" d="M151,-639.75C151,-639.75 12,-639.75 12,-639.75 6,-639.75 0,-633.75 0,-627.75 0,-627.75 0,-615.75 0,-615.75 0,-609.75 6,-603.75 12,-603.75 12,-603.75 151,-603.75 151,-603.75 157,-603.75 163,-609.75 163,-615.75 163,-615.75 163,-627.75 163,-627.75 163,-633.75 157,-639.75 151,-639.75"/>
<text xml:space="preserve" text-anchor="middle" x="81.5" y="-617.5" font-family="Consolas" font-size="10.00">GetCollisionInternalMomentum</text>
</a>
</g>
</g>
<!-- GetCollisionPhase&#45;&gt;GetCollisionInternalMomentum -->
<g id="edge7" class="edge">
<title>GetCollisionPhase&#45;&gt;GetCollisionInternalMomentum</title>
<path fill="none" stroke="#505050" d="M96.5,-697.42C96.5,-697.42 96.5,-648.6 96.5,-648.6"/>
<polygon fill="#505050" stroke="#505050" points="98.95,-648.6 96.5,-641.6 94.05,-648.6 98.95,-648.6"/>
</g>
<!-- GetCollisionInternalMomentum&#45;&gt;GetParticleGeometry -->
<g id="edge8" class="edge">
<title>GetCollisionInternalMomentum&#45;&gt;GetParticleGeometry</title>
<path fill="none" stroke="#505050" d="M81.5,-603.67C81.5,-603.67 81.5,-554.85 81.5,-554.85"/>
<polygon fill="#505050" stroke="#505050" points="83.95,-554.85 81.5,-547.85 79.05,-554.85 83.95,-554.85"/>
</g>
<!-- CalculateContactParms -->
<g id="node11" class="node">
<title>CalculateContactParms</title>
<g id="a_node11"><a xlink:href="vscode://file/C:/_DJ/gPCD/docs/Dynamics/SourceDocumentation.tex:199:1" xlink:title="Open the CalculateContactParms section in SourceDocumentation.tex" target="_blank">
<path fill="#f8f8f8" stroke="#606060" d="M150.62,-206C150.62,-206 48.38,-206 48.38,-206 42.38,-206 36.38,-200 36.38,-194 36.38,-194 36.38,-182 36.38,-182 36.38,-176 42.38,-170 48.38,-170 48.38,-170 150.62,-170 150.62,-170 156.62,-170 162.62,-176 162.62,-182 162.62,-182 162.62,-194 162.62,-194 162.62,-200 156.62,-206 150.62,-206"/>
<text xml:space="preserve" text-anchor="middle" x="99.5" y="-183.75" font-family="Consolas" font-size="10.00">CalculateContactParms</text>
</a>
</g>
</g>
<!-- CalculateContactImpulse -->
<g id="node14" class="node">
<title>CalculateContactImpulse</title>
<g id="a_node14"><a xlink:href="vscode://file/C:/_DJ/gPCD/docs/Dynamics/SourceDocumentation.tex:1:1" xlink:title="Open the CalculateContactImpulse section in SourceDocumentation.tex" target="_blank">
<path fill="#f8f8f8" stroke="#606060" d="M301.88,-121C301.88,-121 189.12,-121 189.12,-121 183.12,-121 177.12,-115 177.12,-109 177.12,-109 177.12,-97 177.12,-97 177.12,-91 183.12,-85 189.12,-85 189.12,-85 301.88,-85 301.88,-85 307.88,-85 313.88,-91 313.88,-97 313.88,-97 313.88,-109 313.88,-109 313.88,-115 307.88,-121 301.88,-121"/>
<text xml:space="preserve" text-anchor="middle" x="245.5" y="-98.75" font-family="Consolas" font-size="10.00">CalculateContactImpulse</text>
</a>
</g>
</g>
<!-- CalculateContactParms&#45;&gt;CalculateContactImpulse -->
<g id="edge13" class="edge">
<title>CalculateContactParms&#45;&gt;CalculateContactImpulse</title>
<path fill="none" stroke="#505050" d="M163.1,-188C185.48,-188 205.17,-188 205.17,-188 205.17,-188 205.17,-129.96 205.17,-129.96"/>
<polygon fill="#505050" stroke="#505050" points="207.62,-129.96 205.17,-122.96 202.72,-129.96 207.62,-129.96"/>
</g>
<!-- GetReducedMass -->
<g id="node13" class="node">
<title>GetReducedMass</title>
<g id="a_node13"><a xlink:href="vscode://file/C:/_DJ/gPCD/docs/Dynamics/SourceDocumentation.tex:229:1" xlink:title="Open the GetReducedMass section in SourceDocumentation.tex" target="_blank">
<path fill="#f8f8f8" stroke="#606060" d="M118.25,-291C118.25,-291 52.75,-291 52.75,-291 46.75,-291 40.75,-285 40.75,-279 40.75,-279 40.75,-267 40.75,-267 40.75,-261 46.75,-255 52.75,-255 52.75,-255 118.25,-255 118.25,-255 124.25,-255 130.25,-261 130.25,-267 130.25,-267 130.25,-279 130.25,-279 130.25,-285 124.25,-291 118.25,-291"/>
<text xml:space="preserve" text-anchor="middle" x="85.5" y="-268.75" font-family="Consolas" font-size="10.00">GetReducedMass</text>
</a>
</g>
</g>
<!-- GetStartFrameVelocity&#45;&gt;GetReducedMass -->
<g id="edge11" class="edge">
<title>GetStartFrameVelocity&#45;&gt;GetReducedMass</title>
<path fill="none" stroke="#505050" d="M85.5,-339.56C85.5,-339.56 85.5,-299.92 85.5,-299.92"/>
<polygon fill="#505050" stroke="#505050" points="87.95,-299.92 85.5,-292.92 83.05,-299.92 87.95,-299.92"/>
</g>
<!-- GetReducedMass&#45;&gt;CalculateContactParms -->
<g id="edge12" class="edge">
<title>GetReducedMass&#45;&gt;CalculateContactParms</title>
<path fill="none" stroke="#505050" d="M85.5,-254.56C85.5,-254.56 85.5,-214.92 85.5,-214.92"/>
<polygon fill="#505050" stroke="#505050" points="87.95,-214.92 85.5,-207.92 83.05,-214.92 87.95,-214.92"/>
</g>
<!-- CalculateContactImpulse&#45;&gt;InitializeContactState -->
<g id="edge16" class="edge">
<title>CalculateContactImpulse&#45;&gt;InitializeContactState</title>
<path fill="none" stroke="#505050" d="M233.21,-121.18C233.21,-121.18 233.21,-1028.62 233.21,-1028.62"/>
<polygon fill="#505050" stroke="#505050" points="230.76,-1028.62 233.21,-1035.62 235.66,-1028.62 230.76,-1028.62"/>
<text xml:space="preserve" text-anchor="middle" x="277" y="-571.2" font-family="Consolas" font-size="9.00">next contact</text>
</g>
<!-- GetPairStiffness -->
<g id="node15" class="node">
<title>GetPairStiffness</title>
<g id="a_node15"><a xlink:href="vscode://file/C:/_DJ/gPCD/docs/Dynamics/SourceDocumentation.tex:285:1" xlink:title="Open the GetPairStiffness section in SourceDocumentation.tex" target="_blank">
<path fill="#f8f8f8" stroke="#606060" d="M283.5,-36C283.5,-36 207.5,-36 207.5,-36 201.5,-36 195.5,-30 195.5,-24 195.5,-24 195.5,-12 195.5,-12 195.5,-6 201.5,0 207.5,0 207.5,0 283.5,0 283.5,0 289.5,0 295.5,-6 295.5,-12 295.5,-12 295.5,-24 295.5,-24 295.5,-30 289.5,-36 283.5,-36"/>
<text xml:space="preserve" text-anchor="middle" x="245.5" y="-13.75" font-family="Consolas" font-size="10.00">GetPairStiffness</text>
</a>
</g>
</g>
<!-- CalculateContactImpulse&#45;&gt;GetPairStiffness -->
<g id="edge14" class="edge">
<title>CalculateContactImpulse&#45;&gt;GetPairStiffness</title>
<path fill="none" stroke="#505050" d="M262.17,-84.56C262.17,-84.56 262.17,-44.92 262.17,-44.92"/>
<polygon fill="#505050" stroke="#505050" points="264.62,-44.92 262.17,-37.92 259.72,-44.92 264.62,-44.92"/>
</g>
<!-- ApplySourceMomentumDelta -->
<g id="node16" class="node">
<title>ApplySourceMomentumDelta</title>
<g id="a_node16"><a xlink:href="vscode://file/C:/_DJ/gPCD/docs/Dynamics/SourceDocumentation.tex:1:1" xlink:title="Open the ApplySourceMomentumDelta section in SourceDocumentation.tex" target="_blank">
<path fill="#f8f8f8" stroke="#606060" d="M543.5,-1252.25C543.5,-1252.25 425.5,-1252.25 425.5,-1252.25 419.5,-1252.25 413.5,-1246.25 413.5,-1240.25 413.5,-1240.25 413.5,-1228.25 413.5,-1228.25 413.5,-1222.25 419.5,-1216.25 425.5,-1216.25 425.5,-1216.25 543.5,-1216.25 543.5,-1216.25 549.5,-1216.25 555.5,-1222.25 555.5,-1228.25 555.5,-1228.25 555.5,-1240.25 555.5,-1240.25 555.5,-1246.25 549.5,-1252.25 543.5,-1252.25"/>
<text xml:space="preserve" text-anchor="middle" x="484.5" y="-1230" font-family="Consolas" font-size="10.00">ApplySourceMomentumDelta</text>
</a>
</g>
</g>
<!-- CalculateContactImpulse&#45;&gt;ApplySourceMomentumDelta -->
<g id="edge17" class="edge">
<title>CalculateContactImpulse&#45;&gt;ApplySourceMomentumDelta</title>
<path fill="none" stroke="#505050" d="M314.25,-103C365.01,-103 425.31,-103 425.31,-103 425.31,-103 425.31,-1207.51 425.31,-1207.51"/>
<polygon fill="#505050" stroke="#505050" points="422.86,-1207.51 425.31,-1214.51 427.76,-1207.51 422.86,-1207.51"/>
<text xml:space="preserve" text-anchor="middle" x="400.12" y="-664.95" font-family="Consolas" font-size="9.00">all contacts done</text>
</g>
<!-- GetPairStiffness&#45;&gt;CalculateContactImpulse -->
<g id="edge15" class="edge">
<title>GetPairStiffness&#45;&gt;CalculateContactImpulse</title>
<path fill="none" stroke="#505050" d="M228.83,-36.44C228.83,-36.44 228.83,-76.08 228.83,-76.08"/>
<polygon fill="#505050" stroke="#505050" points="226.38,-76.08 228.83,-83.08 231.28,-76.08 226.38,-76.08"/>
</g>
<!-- GetParticleMass -->
<g id="node17" class="node">
<title>GetParticleMass</title>
<g id="a_node17"><a xlink:href="vscode://file/C:/_DJ/gPCD/docs/Dynamics/SourceDocumentation.tex:316:1" xlink:title="Open the GetParticleMass section in SourceDocumentation.tex" target="_blank">
<path fill="#f8f8f8" stroke="#606060" d="M519.88,-1167.25C519.88,-1167.25 449.12,-1167.25 449.12,-1167.25 443.12,-1167.25 437.12,-1161.25 437.12,-1155.25 437.12,-1155.25 437.12,-1143.25 437.12,-1143.25 437.12,-1137.25 443.12,-1131.25 449.12,-1131.25 449.12,-1131.25 519.88,-1131.25 519.88,-1131.25 525.88,-1131.25 531.88,-1137.25 531.88,-1143.25 531.88,-1143.25 531.88,-1155.25 531.88,-1155.25 531.88,-1161.25 525.88,-1167.25 519.88,-1167.25"/>
<text xml:space="preserve" text-anchor="middle" x="484.5" y="-1145" font-family="Consolas" font-size="10.00">GetParticleMass</text>
</a>
</g>
</g>
<!-- ApplySourceMomentumDelta&#45;&gt;GetParticleMass -->
<g id="edge18" class="edge">
<title>ApplySourceMomentumDelta&#45;&gt;GetParticleMass</title>
<path fill="none" stroke="#505050" d="M500.29,-1215.81C500.29,-1215.81 500.29,-1176.17 500.29,-1176.17"/>
<polygon fill="#505050" stroke="#505050" points="502.74,-1176.17 500.29,-1169.17 497.84,-1176.17 502.74,-1176.17"/>
</g>
<!-- UpdateContactLedgers -->
<g id="node18" class="node">
<title>UpdateContactLedgers</title>
<g id="a_node18"><a xlink:href="vscode://file/C:/_DJ/gPCD/docs/Dynamics/SourceDocumentation.tex:321:1" xlink:title="Open the UpdateContactLedgers section in SourceDocumentation.tex" target="_blank">
<path fill="#f8f8f8" stroke="#606060" d="M695,-1167.25C695,-1167.25 598,-1167.25 598,-1167.25 592,-1167.25 586,-1161.25 586,-1155.25 586,-1155.25 586,-1143.25 586,-1143.25 586,-1137.25 592,-1131.25 598,-1131.25 598,-1131.25 695,-1131.25 695,-1131.25 701,-1131.25 707,-1137.25 707,-1143.25 707,-1143.25 707,-1155.25 707,-1155.25 707,-1161.25 701,-1167.25 695,-1167.25"/>
<text xml:space="preserve" text-anchor="middle" x="646.5" y="-1145" font-family="Consolas" font-size="10.00">UpdateContactLedgers</text>
</a>
</g>
</g>
<!-- ApplySourceMomentumDelta&#45;&gt;UpdateContactLedgers -->
<g id="edge20" class="edge">
<title>ApplySourceMomentumDelta&#45;&gt;UpdateContactLedgers</title>
<path fill="none" stroke="#505050" d="M543.69,-1215.75C543.69,-1190.68 543.69,-1149 543.69,-1149 543.69,-1149 576.99,-1149 576.99,-1149"/>
<polygon fill="#505050" stroke="#505050" points="576.99,-1151.45 583.99,-1149 576.99,-1146.55 576.99,-1151.45"/>
</g>
<!-- GetParticleMass&#45;&gt;ApplySourceMomentumDelta -->
<g id="edge19" class="edge">
<title>GetParticleMass&#45;&gt;ApplySourceMomentumDelta</title>
<path fill="none" stroke="#505050" d="M468.71,-1167.69C468.71,-1167.69 468.71,-1207.33 468.71,-1207.33"/>
<polygon fill="#505050" stroke="#505050" points="466.26,-1207.33 468.71,-1214.33 471.16,-1207.33 466.26,-1207.33"/>
</g>
<!-- SetCollisionInternalMomentum -->
<g id="node19" class="node">
<title>SetCollisionInternalMomentum</title>
<g id="a_node19"><a xlink:href="vscode://file/C:/_DJ/gPCD/docs/Dynamics/SourceDocumentation.tex:339:1" xlink:title="Open the SetCollisionInternalMomentum section in SourceDocumentation.tex" target="_blank">
<path fill="#f8f8f8" stroke="#606060" d="M716,-1073.5C716,-1073.5 577,-1073.5 577,-1073.5 571,-1073.5 565,-1067.5 565,-1061.5 565,-1061.5 565,-1049.5 565,-1049.5 565,-1043.5 571,-1037.5 577,-1037.5 577,-1037.5 716,-1037.5 716,-1037.5 722,-1037.5 728,-1043.5 728,-1049.5 728,-1049.5 728,-1061.5 728,-1061.5 728,-1067.5 722,-1073.5 716,-1073.5"/>
<text xml:space="preserve" text-anchor="middle" x="646.5" y="-1051.25" font-family="Consolas" font-size="10.00">SetCollisionInternalMomentum</text>
</a>
</g>
</g>
<!-- UpdateContactLedgers&#45;&gt;SetCollisionInternalMomentum -->
<g id="edge21" class="edge">
<title>UpdateContactLedgers&#45;&gt;SetCollisionInternalMomentum</title>
<path fill="none" stroke="#505050" d="M646.5,-1131.17C646.5,-1131.17 646.5,-1082.35 646.5,-1082.35"/>
<polygon fill="#505050" stroke="#505050" points="648.95,-1082.35 646.5,-1075.35 644.05,-1082.35 648.95,-1082.35"/>
</g>
<!-- SetCollisionPhase -->
<g id="node20" class="node">
<title>SetCollisionPhase</title>
<g id="a_node20"><a xlink:href="vscode://file/C:/_DJ/gPCD/docs/Dynamics/SourceDocumentation.tex:345:1" xlink:title="Open the SetCollisionPhase section in SourceDocumentation.tex" target="_blank">
<path fill="#f8f8f8" stroke="#606060" d="M687.12,-988.5C687.12,-988.5 605.88,-988.5 605.88,-988.5 599.88,-988.5 593.88,-982.5 593.88,-976.5 593.88,-976.5 593.88,-964.5 593.88,-964.5 593.88,-958.5 599.88,-952.5 605.88,-952.5 605.88,-952.5 687.12,-952.5 687.12,-952.5 693.12,-952.5 699.12,-958.5 699.12,-964.5 699.12,-964.5 699.12,-976.5 699.12,-976.5 699.12,-982.5 693.12,-988.5 687.12,-988.5"/>
<text xml:space="preserve" text-anchor="middle" x="646.5" y="-966.25" font-family="Consolas" font-size="10.00">SetCollisionPhase</text>
</a>
</g>
</g>
<!-- SetCollisionInternalMomentum&#45;&gt;SetCollisionPhase -->
<g id="edge22" class="edge">
<title>SetCollisionInternalMomentum&#45;&gt;SetCollisionPhase</title>
<path fill="none" stroke="#505050" d="M646.5,-1037.06C646.5,-1037.06 646.5,-997.42 646.5,-997.42"/>
<polygon fill="#505050" stroke="#505050" points="648.95,-997.42 646.5,-990.42 644.05,-997.42 648.95,-997.42"/>
</g>
<!-- SyncInternalMomentum -->
<g id="node21" class="node">
<title>SyncInternalMomentum</title>
<g id="a_node21"><a xlink:href="vscode://file/C:/_DJ/gPCD/docs/Dynamics/SourceDocumentation.tex:351:1" xlink:title="Open the SyncInternalMomentum section in SourceDocumentation.tex" target="_blank">
<path fill="#f8f8f8" stroke="#606060" d="M695,-903.5C695,-903.5 598,-903.5 598,-903.5 592,-903.5 586,-897.5 586,-891.5 586,-891.5 586,-879.5 586,-879.5 586,-873.5 592,-867.5 598,-867.5 598,-867.5 695,-867.5 695,-867.5 701,-867.5 707,-873.5 707,-879.5 707,-879.5 707,-891.5 707,-891.5 707,-897.5 701,-903.5 695,-903.5"/>
<text xml:space="preserve" text-anchor="middle" x="646.5" y="-881.25" font-family="Consolas" font-size="10.00">SyncInternalMomentum</text>
</a>
</g>
</g>
<!-- SetCollisionPhase&#45;&gt;SyncInternalMomentum -->
<g id="edge23" class="edge">
<title>SetCollisionPhase&#45;&gt;SyncInternalMomentum</title>
<path fill="none" stroke="#505050" d="M646.5,-952.06C646.5,-952.06 646.5,-912.42 646.5,-912.42"/>
<polygon fill="#505050" stroke="#505050" points="648.95,-912.42 646.5,-905.42 644.05,-912.42 648.95,-912.42"/>
</g>
<!-- GetInternalMomentum -->
<g id="node22" class="node">
<title>GetInternalMomentum</title>
<g id="a_node22"><a xlink:href="vscode://file/C:/_DJ/gPCD/docs/Dynamics/SourceDocumentation.tex:357:1" xlink:title="Open the GetInternalMomentum section in SourceDocumentation.tex" target="_blank">
<path fill="#f8f8f8" stroke="#606060" d="M692.38,-818.5C692.38,-818.5 600.62,-818.5 600.62,-818.5 594.62,-818.5 588.62,-812.5 588.62,-806.5 588.62,-806.5 588.62,-794.5 588.62,-794.5 588.62,-788.5 594.62,-782.5 600.62,-782.5 600.62,-782.5 692.38,-782.5 692.38,-782.5 698.38,-782.5 704.38,-788.5 704.38,-794.5 704.38,-794.5 704.38,-806.5 704.38,-806.5 704.38,-812.5 698.38,-818.5 692.38,-818.5"/>
<text xml:space="preserve" text-anchor="middle" x="646.5" y="-796.25" font-family="Consolas" font-size="10.00">GetInternalMomentum</text>
</a>
</g>
</g>
<!-- SyncInternalMomentum&#45;&gt;GetInternalMomentum -->
<g id="edge24" class="edge">
<title>SyncInternalMomentum&#45;&gt;GetInternalMomentum</title>
<path fill="none" stroke="#505050" d="M646.5,-867.06C646.5,-867.06 646.5,-827.42 646.5,-827.42"/>
<polygon fill="#505050" stroke="#505050" points="648.95,-827.42 646.5,-820.42 644.05,-827.42 648.95,-827.42"/>
</g>
<!-- SetInternalMomentum -->
<g id="node23" class="node">
<title>SetInternalMomentum</title>
<g id="a_node23"><a xlink:href="vscode://file/C:/_DJ/gPCD/docs/Dynamics/SourceDocumentation.tex:363:1" xlink:title="Open the SetInternalMomentum section in SourceDocumentation.tex" target="_blank">
<path fill="#f8f8f8" stroke="#606060" d="M692.38,-733.5C692.38,-733.5 600.62,-733.5 600.62,-733.5 594.62,-733.5 588.62,-727.5 588.62,-721.5 588.62,-721.5 588.62,-709.5 588.62,-709.5 588.62,-703.5 594.62,-697.5 600.62,-697.5 600.62,-697.5 692.38,-697.5 692.38,-697.5 698.38,-697.5 704.38,-703.5 704.38,-709.5 704.38,-709.5 704.38,-721.5 704.38,-721.5 704.38,-727.5 698.38,-733.5 692.38,-733.5"/>
<text xml:space="preserve" text-anchor="middle" x="646.5" y="-711.25" font-family="Consolas" font-size="10.00">SetInternalMomentum</text>
</a>
</g>
</g>
<!-- GetInternalMomentum&#45;&gt;SetInternalMomentum -->
<g id="edge25" class="edge">
<title>GetInternalMomentum&#45;&gt;SetInternalMomentum</title>
<path fill="none" stroke="#505050" d="M646.5,-782.06C646.5,-782.06 646.5,-742.42 646.5,-742.42"/>
<polygon fill="#505050" stroke="#505050" points="648.95,-742.42 646.5,-735.42 644.05,-742.42 648.95,-742.42"/>
</g>
</g>
</svg>
