<?xml version="1.0" encoding="UTF-8" standalone="no"?>
<!DOCTYPE svg PUBLIC "-//W3C//DTD SVG 1.1//EN"
 "http://www.w3.org/Graphics/SVG/1.1/DTD/svg11.dtd">
<!-- Generated by graphviz version 15.0.0 (20260523.1842)
 -->
<!-- Title: ForceDynamicsFlow Pages: 1 -->
<svg width="996pt" height="1073pt"
 viewBox="0.00 0.00 996.00 1073.00" xmlns="http://www.w3.org/2000/svg" xmlns:xlink="http://www.w3.org/1999/xlink">
<g id="graph0" class="graph" transform="scale(1 1) rotate(0) translate(4 1068.75)">
<title>ForceDynamicsFlow</title>
<polygon fill="white" stroke="none" points="-4,4 -4,-1068.75 992,-1068.75 992,4 -4,4"/>
<!-- ContactDynamics -->
<g id="node1" class="node">
<title>ContactDynamics</title>
<g id="a_node1"><a xlink:href="vscode://file/C:/_DJ/gPCD/docs/Dynamics/ForceDynamicsSource.tex:65:1" xlink:title="Open the ContactDynamics section in SourceDocumentation.tex" target="_blank">
<path fill="#f8f8f8" stroke="#606060" d="M281.88,-1064.75C281.88,-1064.75 211.12,-1064.75 211.12,-1064.75 205.12,-1064.75 199.12,-1058.75 199.12,-1052.75 199.12,-1052.75 199.12,-1040.75 199.12,-1040.75 199.12,-1034.75 205.12,-1028.75 211.12,-1028.75 211.12,-1028.75 281.88,-1028.75 281.88,-1028.75 287.88,-1028.75 293.88,-1034.75 293.88,-1040.75 293.88,-1040.75 293.88,-1052.75 293.88,-1052.75 293.88,-1058.75 287.88,-1064.75 281.88,-1064.75"/>
<text xml:space="preserve" text-anchor="middle" x="246.5" y="-1042.5" font-family="Consolas" font-size="10.00">ContactDynamics</text>
</a>
</g>
</g>
<!-- BeginSourceContactParms -->
<g id="node2" class="node">
<title>BeginSourceContactParms</title>
<g id="a_node2"><a xlink:href="vscode://file/C:/_DJ/gPCD/docs/Dynamics/ForceDynamicsSource.tex:88:1" xlink:title="Open the BeginSourceContactParms section in SourceDocumentation.tex" target="_blank">
<path fill="#f8f8f8" stroke="#606060" d="M302.88,-979.75C302.88,-979.75 190.12,-979.75 190.12,-979.75 184.12,-979.75 178.12,-973.75 178.12,-967.75 178.12,-967.75 178.12,-955.75 178.12,-955.75 178.12,-949.75 184.12,-943.75 190.12,-943.75 190.12,-943.75 302.88,-943.75 302.88,-943.75 308.88,-943.75 314.88,-949.75 314.88,-955.75 314.88,-955.75 314.88,-967.75 314.88,-967.75 314.88,-973.75 308.88,-979.75 302.88,-979.75"/>
<text xml:space="preserve" text-anchor="middle" x="246.5" y="-957.5" font-family="Consolas" font-size="10.00">BeginSourceContactParms</text>
</a>
</g>
</g>
<!-- ContactDynamics&#45;&gt;BeginSourceContactParms -->
<g id="edge1" class="edge">
<title>ContactDynamics&#45;&gt;BeginSourceContactParms</title>
<path fill="none" stroke="#505050" d="M246.5,-1028.31C246.5,-1028.31 246.5,-988.67 246.5,-988.67"/>
<polygon fill="#505050" stroke="#505050" points="248.95,-988.67 246.5,-981.67 244.05,-988.67 248.95,-988.67"/>
</g>
<!-- InitializeContactState -->
<g id="node3" class="node">
<title>InitializeContactState</title>
<g id="a_node3"><a xlink:href="vscode://file/C:/_DJ/gPCD/docs/Dynamics/ForceDynamicsSource.tex:101:1" xlink:title="Open the InitializeContactState section in SourceDocumentation.tex" target="_blank">
<path fill="#f8f8f8" stroke="#606060" d="M300.25,-886C300.25,-886 192.75,-886 192.75,-886 186.75,-886 180.75,-880 180.75,-874 180.75,-874 180.75,-862 180.75,-862 180.75,-856 186.75,-850 192.75,-850 192.75,-850 300.25,-850 300.25,-850 306.25,-850 312.25,-856 312.25,-862 312.25,-862 312.25,-874 312.25,-874 312.25,-880 306.25,-886 300.25,-886"/>
<text xml:space="preserve" text-anchor="middle" x="246.5" y="-863.75" font-family="Consolas" font-size="10.00">InitializeContactState</text>
</a>
</g>
</g>
<!-- BeginSourceContactParms&#45;&gt;InitializeContactState -->
<g id="edge2" class="edge">
<title>BeginSourceContactParms&#45;&gt;InitializeContactState</title>
<path fill="none" stroke="#505050" d="M246.5,-943.67C246.5,-943.67 246.5,-894.85 246.5,-894.85"/>
<polygon fill="#505050" stroke="#505050" points="248.95,-894.85 246.5,-887.85 244.05,-894.85 248.95,-894.85"/>
<text xml:space="preserve" text-anchor="middle" x="280.62" y="-911.2" font-family="Consolas" font-size="9.00">first contact</text>
</g>
<!-- GetContactState -->
<g id="node4" class="node">
<title>GetContactState</title>
<g id="a_node4"><a xlink:href="vscode://file/C:/_DJ/gPCD/docs/Dynamics/ForceDynamicsSource.tex:109:1" xlink:title="Open the GetContactState section in SourceDocumentation.tex" target="_blank">
<path fill="#f8f8f8" stroke="#606060" d="M174.88,-801C174.88,-801 104.12,-801 104.12,-801 98.12,-801 92.12,-795 92.12,-789 92.12,-789 92.12,-777 92.12,-777 92.12,-771 98.12,-765 104.12,-765 104.12,-765 174.88,-765 174.88,-765 180.88,-765 186.88,-771 186.88,-777 186.88,-777 186.88,-789 186.88,-789 186.88,-795 180.88,-801 174.88,-801"/>
<text xml:space="preserve" text-anchor="middle" x="139.5" y="-778.75" font-family="Consolas" font-size="10.00">GetContactState</text>
</a>
</g>
</g>
<!-- InitializeContactState&#45;&gt;GetContactState -->
<g id="edge3" class="edge">
<title>InitializeContactState&#45;&gt;GetContactState</title>
<path fill="none" stroke="#505050" d="M198.5,-849.56C198.5,-824.56 198.5,-783 198.5,-783 198.5,-783 195.64,-783 195.64,-783"/>
<polygon fill="#505050" stroke="#505050" points="195.64,-780.55 188.64,-783 195.64,-785.45 195.64,-780.55"/>
</g>
<!-- AppendContactSlot -->
<g id="node7" class="node">
<title>AppendContactSlot</title>
<g id="a_node7"><a xlink:href="vscode://file/C:/_DJ/gPCD/docs/Dynamics/ForceDynamicsSource.tex:119:1" xlink:title="Open the AppendContactSlot section in SourceDocumentation.tex" target="_blank">
<path fill="#f8f8f8" stroke="#606060" d="M176.12,-716C176.12,-716 94.88,-716 94.88,-716 88.88,-716 82.88,-710 82.88,-704 82.88,-704 82.88,-692 82.88,-692 82.88,-686 88.88,-680 94.88,-680 94.88,-680 176.12,-680 176.12,-680 182.12,-680 188.12,-686 188.12,-692 188.12,-692 188.12,-704 188.12,-704 188.12,-710 182.12,-716 176.12,-716"/>
<text xml:space="preserve" text-anchor="middle" x="135.5" y="-693.75" font-family="Consolas" font-size="10.00">AppendContactSlot</text>
</a>
</g>
</g>
<!-- GetContactState&#45;&gt;AppendContactSlot -->
<g id="edge4" class="edge">
<title>GetContactState&#45;&gt;AppendContactSlot</title>
<path fill="none" stroke="#505050" d="M139.5,-764.56C139.5,-764.56 139.5,-724.92 139.5,-724.92"/>
<polygon fill="#505050" stroke="#505050" points="141.95,-724.92 139.5,-717.92 137.05,-724.92 141.95,-724.92"/>
</g>
<!-- GetParticleGeometry -->
<g id="node5" class="node">
<title>GetParticleGeometry</title>
<g id="a_node5"><a xlink:href="vscode://file/C:/_DJ/gPCD/docs/Dynamics/ForceDynamicsSource.tex:154:1" xlink:title="Open the GetParticleGeometry section in SourceDocumentation.tex" target="_blank">
<path fill="#f8f8f8" stroke="#606060" d="M129.38,-376C129.38,-376 37.62,-376 37.62,-376 31.62,-376 25.62,-370 25.62,-364 25.62,-364 25.62,-352 25.62,-352 25.62,-346 31.62,-340 37.62,-340 37.62,-340 129.38,-340 129.38,-340 135.38,-340 141.38,-346 141.38,-352 141.38,-352 141.38,-364 141.38,-364 141.38,-370 135.38,-376 129.38,-376"/>
<text xml:space="preserve" text-anchor="middle" x="83.5" y="-353.75" font-family="Consolas" font-size="10.00">GetParticleGeometry</text>
</a>
</g>
</g>
<!-- GetParticlePosition -->
<g id="node6" class="node">
<title>GetParticlePosition</title>
<g id="a_node6"><a xlink:href="vscode://file/C:/_DJ/gPCD/docs/Dynamics/ForceDynamicsSource.tex:169:1" xlink:title="Open the GetParticlePosition section in SourceDocumentation.tex" target="_blank">
<path fill="#f8f8f8" stroke="#606060" d="M138.38,-291C138.38,-291 46.62,-291 46.62,-291 40.62,-291 34.62,-285 34.62,-279 34.62,-279 34.62,-267 34.62,-267 34.62,-261 40.62,-255 46.62,-255 46.62,-255 138.38,-255 138.38,-255 144.38,-255 150.38,-261 150.38,-267 150.38,-267 150.38,-279 150.38,-279 150.38,-285 144.38,-291 138.38,-291"/>
<text xml:space="preserve" text-anchor="middle" x="92.5" y="-268.75" font-family="Consolas" font-size="10.00">GetParticlePosition</text>
</a>
</g>
</g>
<!-- GetParticleGeometry&#45;&gt;GetParticlePosition -->
<g id="edge9" class="edge">
<title>GetParticleGeometry&#45;&gt;GetParticlePosition</title>
<path fill="none" stroke="#505050" d="M88,-339.56C88,-339.56 88,-299.92 88,-299.92"/>
<polygon fill="#505050" stroke="#505050" points="90.45,-299.92 88,-292.92 85.55,-299.92 90.45,-299.92"/>
</g>
<!-- GetStartFrameVelocity -->
<g id="node12" class="node">
<title>GetStartFrameVelocity</title>
<g id="a_node12"><a xlink:href="vscode://file/C:/_DJ/gPCD/docs/Dynamics/ForceDynamicsSource.tex:199:1" xlink:title="Open the GetStartFrameVelocity section in SourceDocumentation.tex" target="_blank">
<path fill="#f8f8f8" stroke="#606060" d="M176.62,-206C176.62,-206 74.38,-206 74.38,-206 68.38,-206 62.38,-200 62.38,-194 62.38,-194 62.38,-182 62.38,-182 62.38,-176 68.38,-170 74.38,-170 74.38,-170 176.62,-170 176.62,-170 182.62,-170 188.62,-176 188.62,-182 188.62,-182 188.62,-194 188.62,-194 188.62,-200 182.62,-206 176.62,-206"/>
<text xml:space="preserve" text-anchor="middle" x="125.5" y="-183.75" font-family="Consolas" font-size="10.00">GetStartFrameVelocity</text>
</a>
</g>
</g>
<!-- GetParticlePosition&#45;&gt;GetStartFrameVelocity -->
<g id="edge10" class="edge">
<title>GetParticlePosition&#45;&gt;GetStartFrameVelocity</title>
<path fill="none" stroke="#505050" d="M106.38,-254.56C106.38,-254.56 106.38,-214.92 106.38,-214.92"/>
<polygon fill="#505050" stroke="#505050" points="108.83,-214.92 106.38,-207.92 103.93,-214.92 108.83,-214.92"/>
</g>
<!-- GetContactSlots -->
<g id="node8" class="node">
<title>GetContactSlots</title>
<g id="a_node8"><a xlink:href="vscode://file/C:/_DJ/gPCD/docs/Dynamics/ForceDynamicsSource.tex:135:1" xlink:title="Open the GetContactSlots section in SourceDocumentation.tex" target="_blank">
<path fill="#f8f8f8" stroke="#606060" d="M165.88,-631C165.88,-631 95.12,-631 95.12,-631 89.12,-631 83.12,-625 83.12,-619 83.12,-619 83.12,-607 83.12,-607 83.12,-601 89.12,-595 95.12,-595 95.12,-595 165.88,-595 165.88,-595 171.88,-595 177.88,-601 177.88,-607 177.88,-607 177.88,-619 177.88,-619 177.88,-625 171.88,-631 165.88,-631"/>
<text xml:space="preserve" text-anchor="middle" x="130.5" y="-608.75" font-family="Consolas" font-size="10.00">GetContactSlots</text>
</a>
</g>
</g>
<!-- AppendContactSlot&#45;&gt;GetContactSlots -->
<g id="edge5" class="edge">
<title>AppendContactSlot&#45;&gt;GetContactSlots</title>
<path fill="none" stroke="#505050" d="M130.5,-679.56C130.5,-679.56 130.5,-639.92 130.5,-639.92"/>
<polygon fill="#505050" stroke="#505050" points="132.95,-639.92 130.5,-632.92 128.05,-639.92 132.95,-639.92"/>
</g>
<!-- GetCollisionPhase -->
<g id="node9" class="node">
<title>GetCollisionPhase</title>
<g id="a_node9"><a xlink:href="vscode://file/C:/_DJ/gPCD/docs/Dynamics/ForceDynamicsSource.tex:142:1" xlink:title="Open the GetCollisionPhase section in SourceDocumentation.tex" target="_blank">
<path fill="#f8f8f8" stroke="#606060" d="M150.12,-546C150.12,-546 68.88,-546 68.88,-546 62.88,-546 56.88,-540 56.88,-534 56.88,-534 56.88,-522 56.88,-522 56.88,-516 62.88,-510 68.88,-510 68.88,-510 150.12,-510 150.12,-510 156.12,-510 162.12,-516 162.12,-522 162.12,-522 162.12,-534 162.12,-534 162.12,-540 156.12,-546 150.12,-546"/>
<text xml:space="preserve" text-anchor="middle" x="109.5" y="-523.75" font-family="Consolas" font-size="10.00">GetCollisionPhase</text>
</a>
</g>
</g>
<!-- GetContactSlots&#45;&gt;GetCollisionPhase -->
<g id="edge6" class="edge">
<title>GetContactSlots&#45;&gt;GetCollisionPhase</title>
<path fill="none" stroke="#505050" d="M122.62,-594.56C122.62,-594.56 122.62,-554.92 122.62,-554.92"/>
<polygon fill="#505050" stroke="#505050" points="125.08,-554.92 122.63,-547.92 120.18,-554.92 125.08,-554.92"/>
</g>
<!-- GetCollisionInternalMomentum -->
<g id="node10" class="node">
<title>GetCollisionInternalMomentum</title>
<g id="a_node10"><a xlink:href="vscode://file/C:/_DJ/gPCD/docs/Dynamics/ForceDynamicsSource.tex:148:1" xlink:title="Open the GetCollisionInternalMomentum section in SourceDocumentation.tex" target="_blank">
<path fill="#f8f8f8" stroke="#606060" d="M151,-461C151,-461 12,-461 12,-461 6,-461 0,-455 0,-449 0,-449 0,-437 0,-437 0,-431 6,-425 12,-425 12,-425 151,-425 151,-425 157,-425 163,-431 163,-437 163,-437 163,-449 163,-449 163,-455 157,-461 151,-461"/>
<text xml:space="preserve" text-anchor="middle" x="81.5" y="-438.75" font-family="Consolas" font-size="10.00">GetCollisionInternalMomentum</text>
</a>
</g>
</g>
<!-- GetCollisionPhase&#45;&gt;GetCollisionInternalMomentum -->
<g id="edge7" class="edge">
<title>GetCollisionPhase&#45;&gt;GetCollisionInternalMomentum</title>
<path fill="none" stroke="#505050" d="M109.5,-509.56C109.5,-509.56 109.5,-469.92 109.5,-469.92"/>
<polygon fill="#505050" stroke="#505050" points="111.95,-469.92 109.5,-462.92 107.05,-469.92 111.95,-469.92"/>
</g>
<!-- GetCollisionInternalMomentum&#45;&gt;GetParticleGeometry -->
<g id="edge8" class="edge">
<title>GetCollisionInternalMomentum&#45;&gt;GetParticleGeometry</title>
<path fill="none" stroke="#505050" d="M83.5,-424.56C83.5,-424.56 83.5,-384.92 83.5,-384.92"/>
<polygon fill="#505050" stroke="#505050" points="85.95,-384.92 83.5,-377.92 81.05,-384.92 85.95,-384.92"/>
</g>
<!-- CalculateContactParms -->
<g id="node11" class="node">
<title>CalculateContactParms</title>
<g id="a_node11"><a xlink:href="vscode://file/C:/_DJ/gPCD/docs/Dynamics/ForceDynamicsSource.tex:176:1" xlink:title="Open the CalculateContactParms section in SourceDocumentation.tex" target="_blank">
<path fill="#f8f8f8" stroke="#606060" d="M322.62,-36C322.62,-36 220.38,-36 220.38,-36 214.38,-36 208.38,-30 208.38,-24 208.38,-24 208.38,-12 208.38,-12 208.38,-6 214.38,0 220.38,0 220.38,0 322.62,0 322.62,0 328.62,0 334.62,-6 334.62,-12 334.62,-12 334.62,-24 334.62,-24 334.62,-30 328.62,-36 322.62,-36"/>
<text xml:space="preserve" text-anchor="middle" x="271.5" y="-13.75" font-family="Consolas" font-size="10.00">CalculateContactParms</text>
</a>
</g>
</g>
<!-- CalculateContactParms&#45;&gt;InitializeContactState -->
<g id="edge13" class="edge">
<title>CalculateContactParms&#45;&gt;InitializeContactState</title>
<path fill="none" stroke="#505050" d="M260.31,-36.15C260.31,-36.15 260.31,-841.15 260.31,-841.15"/>
<polygon fill="#505050" stroke="#505050" points="257.86,-841.15 260.31,-848.15 262.76,-841.15 257.86,-841.15"/>
<text xml:space="preserve" text-anchor="middle" x="303" y="-439.32" font-family="Consolas" font-size="9.00">next contact</text>
</g>
<!-- CalculateContactWeights -->
<g id="node14" class="node">
<title>CalculateContactWeights</title>
<g id="a_node14"><a xlink:href="vscode://file/C:/_DJ/gPCD/docs/Dynamics/ForceDynamicsSource.tex:217:1" xlink:title="Open the CalculateContactWeights section in SourceDocumentation.tex" target="_blank">
<path fill="#f8f8f8" stroke="#606060" d="M492.88,-1064.75C492.88,-1064.75 380.12,-1064.75 380.12,-1064.75 374.12,-1064.75 368.12,-1058.75 368.12,-1052.75 368.12,-1052.75 368.12,-1040.75 368.12,-1040.75 368.12,-1034.75 374.12,-1028.75 380.12,-1028.75 380.12,-1028.75 492.88,-1028.75 492.88,-1028.75 498.88,-1028.75 504.88,-1034.75 504.88,-1040.75 504.88,-1040.75 504.88,-1052.75 504.88,-1052.75 504.88,-1058.75 498.88,-1064.75 492.88,-1064.75"/>
<text xml:space="preserve" text-anchor="middle" x="436.5" y="-1042.5" font-family="Consolas" font-size="10.00">CalculateContactWeights</text>
</a>
</g>
</g>
<!-- CalculateContactParms&#45;&gt;CalculateContactWeights -->
<g id="edge14" class="edge">
<title>CalculateContactParms&#45;&gt;CalculateContactWeights</title>
<path fill="none" stroke="#505050" d="M324.75,-36.3C324.75,-174.35 324.75,-1047 324.75,-1047 324.75,-1047 359.12,-1047 359.12,-1047"/>
<polygon fill="#505050" stroke="#505050" points="359.12,-1049.45 366.12,-1047 359.12,-1044.55 359.12,-1049.45"/>
<text xml:space="preserve" text-anchor="middle" x="461.12" y="-524.33" font-family="Consolas" font-size="9.00">all contacts done</text>
</g>
<!-- GetReducedMass -->
<g id="node13" class="node">
<title>GetReducedMass</title>
<g id="a_node13"><a xlink:href="vscode://file/C:/_DJ/gPCD/docs/Dynamics/ForceDynamicsSource.tex:206:1" xlink:title="Open the GetReducedMass section in SourceDocumentation.tex" target="_blank">
<path fill="#f8f8f8" stroke="#606060" d="M172.25,-121C172.25,-121 106.75,-121 106.75,-121 100.75,-121 94.75,-115 94.75,-109 94.75,-109 94.75,-97 94.75,-97 94.75,-91 100.75,-85 106.75,-85 106.75,-85 172.25,-85 172.25,-85 178.25,-85 184.25,-91 184.25,-97 184.25,-97 184.25,-109 184.25,-109 184.25,-115 178.25,-121 172.25,-121"/>
<text xml:space="preserve" text-anchor="middle" x="139.5" y="-98.75" font-family="Consolas" font-size="10.00">GetReducedMass</text>
</a>
</g>
</g>
<!-- GetStartFrameVelocity&#45;&gt;GetReducedMass -->
<g id="edge11" class="edge">
<title>GetStartFrameVelocity&#45;&gt;GetReducedMass</title>
<path fill="none" stroke="#505050" d="M139.5,-169.56C139.5,-169.56 139.5,-129.92 139.5,-129.92"/>
<polygon fill="#505050" stroke="#505050" points="141.95,-129.92 139.5,-122.92 137.05,-129.92 141.95,-129.92"/>
</g>
<!-- GetReducedMass&#45;&gt;CalculateContactParms -->
<g id="edge12" class="edge">
<title>GetReducedMass&#45;&gt;CalculateContactParms</title>
<path fill="none" stroke="#505050" d="M139.5,-84.56C139.5,-59.56 139.5,-18 139.5,-18 139.5,-18 199.69,-18 199.69,-18"/>
<polygon fill="#505050" stroke="#505050" points="199.69,-20.45 206.69,-18 199.69,-15.55 199.69,-20.45"/>
</g>
<!-- CalculateContactImpulses -->
<g id="node15" class="node">
<title>CalculateContactImpulses</title>
<g id="a_node15"><a xlink:href="vscode://file/C:/_DJ/gPCD/docs/Dynamics/ForceDynamicsSource.tex:238:1" xlink:title="Open the CalculateContactImpulses section in SourceDocumentation.tex" target="_blank">
<path fill="#f8f8f8" stroke="#606060" d="M628.5,-979.75C628.5,-979.75 510.5,-979.75 510.5,-979.75 504.5,-979.75 498.5,-973.75 498.5,-967.75 498.5,-967.75 498.5,-955.75 498.5,-955.75 498.5,-949.75 504.5,-943.75 510.5,-943.75 510.5,-943.75 628.5,-943.75 628.5,-943.75 634.5,-943.75 640.5,-949.75 640.5,-955.75 640.5,-955.75 640.5,-967.75 640.5,-967.75 640.5,-973.75 634.5,-979.75 628.5,-979.75"/>
<text xml:space="preserve" text-anchor="middle" x="569.5" y="-957.5" font-family="Consolas" font-size="10.00">CalculateContactImpulses</text>
</a>
</g>
</g>
<!-- CalculateContactWeights&#45;&gt;CalculateContactImpulses -->
<g id="edge15" class="edge">
<title>CalculateContactWeights&#45;&gt;CalculateContactImpulses</title>
<path fill="none" stroke="#505050" d="M433.31,-1028.36C433.31,-1003.43 433.31,-962 433.31,-962 433.31,-962 489.7,-962 489.7,-962"/>
<polygon fill="#505050" stroke="#505050" points="489.7,-964.45 496.7,-962 489.7,-959.55 489.7,-964.45"/>
</g>
<!-- GetPairStiffness -->
<g id="node16" class="node">
<title>GetPairStiffness</title>
<g id="a_node16"><a xlink:href="vscode://file/C:/_DJ/gPCD/docs/Dynamics/ForceDynamicsSource.tex:275:1" xlink:title="Open the GetPairStiffness section in SourceDocumentation.tex" target="_blank">
<path fill="#f8f8f8" stroke="#606060" d="M607.5,-886C607.5,-886 531.5,-886 531.5,-886 525.5,-886 519.5,-880 519.5,-874 519.5,-874 519.5,-862 519.5,-862 519.5,-856 525.5,-850 531.5,-850 531.5,-850 607.5,-850 607.5,-850 613.5,-850 619.5,-856 619.5,-862 619.5,-862 619.5,-874 619.5,-874 619.5,-880 613.5,-886 607.5,-886"/>
<text xml:space="preserve" text-anchor="middle" x="569.5" y="-863.75" font-family="Consolas" font-size="10.00">GetPairStiffness</text>
</a>
</g>
</g>
<!-- CalculateContactImpulses&#45;&gt;GetPairStiffness -->
<g id="edge16" class="edge">
<title>CalculateContactImpulses&#45;&gt;GetPairStiffness</title>
<path fill="none" stroke="#505050" d="M586.17,-943.67C586.17,-943.67 586.17,-894.85 586.17,-894.85"/>
<polygon fill="#505050" stroke="#505050" points="588.62,-894.85 586.17,-887.85 583.72,-894.85 588.62,-894.85"/>
</g>
<!-- ApplySourceVelocityDelta -->
<g id="node17" class="node">
<title>ApplySourceVelocityDelta</title>
<g id="a_node17"><a xlink:href="vscode://file/C:/_DJ/gPCD/docs/Dynamics/ForceDynamicsSource.tex:284:1" xlink:title="Open the ApplySourceVelocityDelta section in SourceDocumentation.tex" target="_blank">
<path fill="#f8f8f8" stroke="#606060" d="M803.5,-886C803.5,-886 685.5,-886 685.5,-886 679.5,-886 673.5,-880 673.5,-874 673.5,-874 673.5,-862 673.5,-862 673.5,-856 679.5,-850 685.5,-850 685.5,-850 803.5,-850 803.5,-850 809.5,-850 815.5,-856 815.5,-862 815.5,-862 815.5,-874 815.5,-874 815.5,-880 809.5,-886 803.5,-886"/>
<text xml:space="preserve" text-anchor="middle" x="744.5" y="-863.75" font-family="Consolas" font-size="10.00">ApplySourceVelocityDelta</text>
</a>
</g>
</g>
<!-- CalculateContactImpulses&#45;&gt;ApplySourceVelocityDelta -->
<g id="edge18" class="edge">
<title>CalculateContactImpulses&#45;&gt;ApplySourceVelocityDelta</title>
<path fill="none" stroke="#505050" d="M630,-943.67C630,-916.43 630,-868 630,-868 630,-868 664.77,-868 664.77,-868"/>
<polygon fill="#505050" stroke="#505050" points="664.77,-870.45 671.77,-868 664.77,-865.55 664.77,-870.45"/>
</g>
<!-- GetPairStiffness&#45;&gt;CalculateContactImpulses -->
<g id="edge17" class="edge">
<title>GetPairStiffness&#45;&gt;CalculateContactImpulses</title>
<path fill="none" stroke="#505050" d="M552.83,-886.08C552.83,-886.08 552.83,-934.9 552.83,-934.9"/>
<polygon fill="#505050" stroke="#505050" points="550.38,-934.9 552.83,-941.9 555.28,-934.9 550.38,-934.9"/>
</g>
<!-- GetParticleMass -->
<g id="node18" class="node">
<title>GetParticleMass</title>
<g id="a_node18"><a xlink:href="vscode://file/C:/_DJ/gPCD/docs/Dynamics/ForceDynamicsSource.tex:306:1" xlink:title="Open the GetParticleMass section in SourceDocumentation.tex" target="_blank">
<path fill="#f8f8f8" stroke="#606060" d="M779.88,-801C779.88,-801 709.12,-801 709.12,-801 703.12,-801 697.12,-795 697.12,-789 697.12,-789 697.12,-777 697.12,-777 697.12,-771 703.12,-765 709.12,-765 709.12,-765 779.88,-765 779.88,-765 785.88,-765 791.88,-771 791.88,-777 791.88,-777 791.88,-789 791.88,-789 791.88,-795 785.88,-801 779.88,-801"/>
<text xml:space="preserve" text-anchor="middle" x="744.5" y="-778.75" font-family="Consolas" font-size="10.00">GetParticleMass</text>
</a>
</g>
</g>
<!-- ApplySourceVelocityDelta&#45;&gt;GetParticleMass -->
<g id="edge19" class="edge">
<title>ApplySourceVelocityDelta&#45;&gt;GetParticleMass</title>
<path fill="none" stroke="#505050" d="M760.29,-849.56C760.29,-849.56 760.29,-809.92 760.29,-809.92"/>
<polygon fill="#505050" stroke="#505050" points="762.74,-809.92 760.29,-802.92 757.84,-809.92 762.74,-809.92"/>
</g>
<!-- UpdateContactLedgers -->
<g id="node19" class="node">
<title>UpdateContactLedgers</title>
<g id="a_node19"><a xlink:href="vscode://file/C:/_DJ/gPCD/docs/Dynamics/ForceDynamicsSource.tex:311:1" xlink:title="Open the UpdateContactLedgers section in SourceDocumentation.tex" target="_blank">
<path fill="#f8f8f8" stroke="#606060" d="M955,-801C955,-801 858,-801 858,-801 852,-801 846,-795 846,-789 846,-789 846,-777 846,-777 846,-771 852,-765 858,-765 858,-765 955,-765 955,-765 961,-765 967,-771 967,-777 967,-777 967,-789 967,-789 967,-795 961,-801 955,-801"/>
<text xml:space="preserve" text-anchor="middle" x="906.5" y="-778.75" font-family="Consolas" font-size="10.00">UpdateContactLedgers</text>
</a>
</g>
</g>
<!-- ApplySourceVelocityDelta&#45;&gt;UpdateContactLedgers -->
<g id="edge21" class="edge">
<title>ApplySourceVelocityDelta&#45;&gt;UpdateContactLedgers</title>
<path fill="none" stroke="#505050" d="M803.69,-849.56C803.69,-824.56 803.69,-783 803.69,-783 803.69,-783 836.99,-783 836.99,-783"/>
<polygon fill="#505050" stroke="#505050" points="836.99,-785.45 843.99,-783 836.99,-780.55 836.99,-785.45"/>
</g>
<!-- GetParticleMass&#45;&gt;ApplySourceVelocityDelta -->
<g id="edge20" class="edge">
<title>GetParticleMass&#45;&gt;ApplySourceVelocityDelta</title>
<path fill="none" stroke="#505050" d="M728.71,-801.44C728.71,-801.44 728.71,-841.08 728.71,-841.08"/>
<polygon fill="#505050" stroke="#505050" points="726.26,-841.08 728.71,-848.08 731.16,-841.08 726.26,-841.08"/>
</g>
<!-- SetCollisionInternalMomentum -->
<g id="node20" class="node">
<title>SetCollisionInternalMomentum</title>
<g id="a_node20"><a xlink:href="vscode://file/C:/_DJ/gPCD/docs/Dynamics/ForceDynamicsSource.tex:329:1" xlink:title="Open the SetCollisionInternalMomentum section in SourceDocumentation.tex" target="_blank">
<path fill="#f8f8f8" stroke="#606060" d="M976,-716C976,-716 837,-716 837,-716 831,-716 825,-710 825,-704 825,-704 825,-692 825,-692 825,-686 831,-680 837,-680 837,-680 976,-680 976,-680 982,-680 988,-686 988,-692 988,-692 988,-704 988,-704 988,-710 982,-716 976,-716"/>
<text xml:space="preserve" text-anchor="middle" x="906.5" y="-693.75" font-family="Consolas" font-size="10.00">SetCollisionInternalMomentum</text>
</a>
</g>
</g>
<!-- UpdateContactLedgers&#45;&gt;SetCollisionInternalMomentum -->
<g id="edge22" class="edge">
<title>UpdateContactLedgers&#45;&gt;SetCollisionInternalMomentum</title>
<path fill="none" stroke="#505050" d="M906.5,-764.56C906.5,-764.56 906.5,-724.92 906.5,-724.92"/>
<polygon fill="#505050" stroke="#505050" points="908.95,-724.92 906.5,-717.92 904.05,-724.92 908.95,-724.92"/>
</g>
<!-- SetCollisionPhase -->
<g id="node21" class="node">
<title>SetCollisionPhase</title>
<g id="a_node21"><a xlink:href="vscode://file/C:/_DJ/gPCD/docs/Dynamics/ForceDynamicsSource.tex:335:1" xlink:title="Open the SetCollisionPhase section in SourceDocumentation.tex" target="_blank">
<path fill="#f8f8f8" stroke="#606060" d="M947.12,-631C947.12,-631 865.88,-631 865.88,-631 859.88,-631 853.88,-625 853.88,-619 853.88,-619 853.88,-607 853.88,-607 853.88,-601 859.88,-595 865.88,-595 865.88,-595 947.12,-595 947.12,-595 953.12,-595 959.12,-601 959.12,-607 959.12,-607 959.12,-619 959.12,-619 959.12,-625 953.12,-631 947.12,-631"/>
<text xml:space="preserve" text-anchor="middle" x="906.5" y="-608.75" font-family="Consolas" font-size="10.00">SetCollisionPhase</text>
</a>
</g>
</g>
<!-- SetCollisionInternalMomentum&#45;&gt;SetCollisionPhase -->
<g id="edge23" class="edge">
<title>SetCollisionInternalMomentum&#45;&gt;SetCollisionPhase</title>
<path fill="none" stroke="#505050" d="M906.5,-679.56C906.5,-679.56 906.5,-639.92 906.5,-639.92"/>
<polygon fill="#505050" stroke="#505050" points="908.95,-639.92 906.5,-632.92 904.05,-639.92 908.95,-639.92"/>
</g>
<!-- SyncInternalMomentum -->
<g id="node22" class="node">
<title>SyncInternalMomentum</title>
<g id="a_node22"><a xlink:href="vscode://file/C:/_DJ/gPCD/docs/Dynamics/ForceDynamicsSource.tex:341:1" xlink:title="Open the SyncInternalMomentum section in SourceDocumentation.tex" target="_blank">
<path fill="#f8f8f8" stroke="#606060" d="M955,-546C955,-546 858,-546 858,-546 852,-546 846,-540 846,-534 846,-534 846,-522 846,-522 846,-516 852,-510 858,-510 858,-510 955,-510 955,-510 961,-510 967,-516 967,-522 967,-522 967,-534 967,-534 967,-540 961,-546 955,-546"/>
<text xml:space="preserve" text-anchor="middle" x="906.5" y="-523.75" font-family="Consolas" font-size="10.00">SyncInternalMomentum</text>
</a>
</g>
</g>
<!-- SetCollisionPhase&#45;&gt;SyncInternalMomentum -->
<g id="edge24" class="edge">
<title>SetCollisionPhase&#45;&gt;SyncInternalMomentum</title>
<path fill="none" stroke="#505050" d="M906.5,-594.56C906.5,-594.56 906.5,-554.92 906.5,-554.92"/>
<polygon fill="#505050" stroke="#505050" points="908.95,-554.92 906.5,-547.92 904.05,-554.92 908.95,-554.92"/>
</g>
<!-- GetInternalMomentum -->
<g id="node23" class="node">
<title>GetInternalMomentum</title>
<g id="a_node23"><a xlink:href="vscode://file/C:/_DJ/gPCD/docs/Dynamics/ForceDynamicsSource.tex:347:1" xlink:title="Open the GetInternalMomentum section in SourceDocumentation.tex" target="_blank">
<path fill="#f8f8f8" stroke="#606060" d="M952.38,-461C952.38,-461 860.62,-461 860.62,-461 854.62,-461 848.62,-455 848.62,-449 848.62,-449 848.62,-437 848.62,-437 848.62,-431 854.62,-425 860.62,-425 860.62,-425 952.38,-425 952.38,-425 958.38,-425 964.38,-431 964.38,-437 964.38,-437 964.38,-449 964.38,-449 964.38,-455 958.38,-461 952.38,-461"/>
<text xml:space="preserve" text-anchor="middle" x="906.5" y="-438.75" font-family="Consolas" font-size="10.00">GetInternalMomentum</text>
</a>
</g>
</g>
<!-- SyncInternalMomentum&#45;&gt;GetInternalMomentum -->
<g id="edge25" class="edge">
<title>SyncInternalMomentum&#45;&gt;GetInternalMomentum</title>
<path fill="none" stroke="#505050" d="M906.5,-509.56C906.5,-509.56 906.5,-469.92 906.5,-469.92"/>
<polygon fill="#505050" stroke="#505050" points="908.95,-469.92 906.5,-462.92 904.05,-469.92 908.95,-469.92"/>
</g>
<!-- SetInternalMomentum -->
<g id="node24" class="node">
<title>SetInternalMomentum</title>
<g id="a_node24"><a xlink:href="vscode://file/C:/_DJ/gPCD/docs/Dynamics/ForceDynamicsSource.tex:353:1" xlink:title="Open the SetInternalMomentum section in SourceDocumentation.tex" target="_blank">
<path fill="#f8f8f8" stroke="#606060" d="M952.38,-376C952.38,-376 860.62,-376 860.62,-376 854.62,-376 848.62,-370 848.62,-364 848.62,-364 848.62,-352 848.62,-352 848.62,-346 854.62,-340 860.62,-340 860.62,-340 952.38,-340 952.38,-340 958.38,-340 964.38,-346 964.38,-352 964.38,-352 964.38,-364 964.38,-364 964.38,-370 958.38,-376 952.38,-376"/>
<text xml:space="preserve" text-anchor="middle" x="906.5" y="-353.75" font-family="Consolas" font-size="10.00">SetInternalMomentum</text>
</a>
</g>
</g>
<!-- GetInternalMomentum&#45;&gt;SetInternalMomentum -->
<g id="edge26" class="edge">
<title>GetInternalMomentum&#45;&gt;SetInternalMomentum</title>
<path fill="none" stroke="#505050" d="M906.5,-424.56C906.5,-424.56 906.5,-384.92 906.5,-384.92"/>
<polygon fill="#505050" stroke="#505050" points="908.95,-384.92 906.5,-377.92 904.05,-384.92 908.95,-384.92"/>
</g>
</g>
</svg>
