<?xml version="1.0" encoding="UTF-8" standalone="no"?>
<!DOCTYPE svg PUBLIC "-//W3C//DTD SVG 1.1//EN"
 "http://www.w3.org/Graphics/SVG/1.1/DTD/svg11.dtd">
<!-- Generated by graphviz version 15.0.0 (20260523.1842)
 -->
<!-- Title: ForceDynamicsFlow Pages: 1 -->
<svg width="906pt" height="835pt"
 viewBox="0.00 0.00 906.00 835.00" xmlns="http://www.w3.org/2000/svg" xmlns:xlink="http://www.w3.org/1999/xlink">
<g id="graph0" class="graph" transform="scale(1 1) rotate(0) translate(4 831.25)">
<title>ForceDynamicsFlow</title>
<polygon fill="white" stroke="none" points="-4,4 -4,-831.25 902.12,-831.25 902.12,4 -4,4"/>
<!-- ContactDynamics -->
<g id="node1" class="node">
<title>ContactDynamics</title>
<g id="a_node1"><a xlink:href="vscode://file/C:/_DJ/gPCD/docs/Dynamics/ForceDynamicsSource.tex:25:1" xlink:title="Open the ContactDynamics section in ForceDynamicsSource.tex" target="_blank">
<path fill="#f8f8f8" stroke="#606060" d="M193.5,-827.25C193.5,-827.25 122.75,-827.25 122.75,-827.25 116.75,-827.25 110.75,-821.25 110.75,-815.25 110.75,-815.25 110.75,-803.25 110.75,-803.25 110.75,-797.25 116.75,-791.25 122.75,-791.25 122.75,-791.25 193.5,-791.25 193.5,-791.25 199.5,-791.25 205.5,-797.25 205.5,-803.25 205.5,-803.25 205.5,-815.25 205.5,-815.25 205.5,-821.25 199.5,-827.25 193.5,-827.25"/>
<text xml:space="preserve" text-anchor="middle" x="158.12" y="-805" font-family="Consolas" font-size="10.00">ContactDynamics</text>
</a>
</g>
</g>
<!-- BeginSourceContactParms -->
<g id="node2" class="node">
<title>BeginSourceContactParms</title>
<g id="a_node2"><a xlink:href="vscode://file/C:/_DJ/gPCD/docs/Dynamics/ForceDynamicsSource.tex:41:1" xlink:title="Open the BeginSourceContactParms section in ForceDynamicsSource.tex" target="_blank">
<path fill="#f8f8f8" stroke="#606060" d="M214.5,-742.25C214.5,-742.25 101.75,-742.25 101.75,-742.25 95.75,-742.25 89.75,-736.25 89.75,-730.25 89.75,-730.25 89.75,-718.25 89.75,-718.25 89.75,-712.25 95.75,-706.25 101.75,-706.25 101.75,-706.25 214.5,-706.25 214.5,-706.25 220.5,-706.25 226.5,-712.25 226.5,-718.25 226.5,-718.25 226.5,-730.25 226.5,-730.25 226.5,-736.25 220.5,-742.25 214.5,-742.25"/>
<text xml:space="preserve" text-anchor="middle" x="158.12" y="-720" font-family="Consolas" font-size="10.00">BeginSourceContactParms</text>
</a>
</g>
</g>
<!-- ContactDynamics&#45;&gt;BeginSourceContactParms -->
<g id="edge1" class="edge">
<title>ContactDynamics&#45;&gt;BeginSourceContactParms</title>
<path fill="none" stroke="#505050" d="M158.12,-790.81C158.12,-790.81 158.12,-751.17 158.12,-751.17"/>
<polygon fill="#505050" stroke="#505050" points="160.58,-751.17 158.13,-744.17 155.68,-751.17 160.58,-751.17"/>
</g>
<!-- InitializeContactState -->
<g id="node3" class="node">
<title>InitializeContactState</title>
<g id="a_node3"><a xlink:href="vscode://file/C:/_DJ/gPCD/docs/Dynamics/ForceDynamicsSource.tex:46:1" xlink:title="Open the InitializeContactState section in ForceDynamicsSource.tex" target="_blank">
<path fill="#f8f8f8" stroke="#606060" d="M211.88,-648.5C211.88,-648.5 104.38,-648.5 104.38,-648.5 98.38,-648.5 92.38,-642.5 92.38,-636.5 92.38,-636.5 92.38,-624.5 92.38,-624.5 92.38,-618.5 98.38,-612.5 104.38,-612.5 104.38,-612.5 211.88,-612.5 211.88,-612.5 217.88,-612.5 223.88,-618.5 223.88,-624.5 223.88,-624.5 223.88,-636.5 223.88,-636.5 223.88,-642.5 217.88,-648.5 211.88,-648.5"/>
<text xml:space="preserve" text-anchor="middle" x="158.12" y="-626.25" font-family="Consolas" font-size="10.00">InitializeContactState</text>
</a>
</g>
</g>
<!-- BeginSourceContactParms&#45;&gt;InitializeContactState -->
<g id="edge2" class="edge">
<title>BeginSourceContactParms&#45;&gt;InitializeContactState</title>
<path fill="none" stroke="#505050" d="M158.12,-706.17C158.12,-706.17 158.12,-657.35 158.12,-657.35"/>
<polygon fill="#505050" stroke="#505050" points="160.58,-657.35 158.13,-650.35 155.68,-657.35 160.58,-657.35"/>
<text xml:space="preserve" text-anchor="middle" x="192.25" y="-673.7" font-family="Consolas" font-size="9.00">first contact</text>
</g>
<!-- GetContactState -->
<g id="node4" class="node">
<title>GetContactState</title>
<g id="a_node4"><a xlink:href="vscode://file/C:/_DJ/gPCD/docs/Dynamics/ForceDynamicsSource.tex:1:1" xlink:title="Open the GetContactState section in ForceDynamicsSource.tex" target="_blank">
<path fill="#f8f8f8" stroke="#606060" d="M113.5,-563.5C113.5,-563.5 42.75,-563.5 42.75,-563.5 36.75,-563.5 30.75,-557.5 30.75,-551.5 30.75,-551.5 30.75,-539.5 30.75,-539.5 30.75,-533.5 36.75,-527.5 42.75,-527.5 42.75,-527.5 113.5,-527.5 113.5,-527.5 119.5,-527.5 125.5,-533.5 125.5,-539.5 125.5,-539.5 125.5,-551.5 125.5,-551.5 125.5,-557.5 119.5,-563.5 113.5,-563.5"/>
<text xml:space="preserve" text-anchor="middle" x="78.12" y="-541.25" font-family="Consolas" font-size="10.00">GetContactState</text>
</a>
</g>
</g>
<!-- InitializeContactState&#45;&gt;GetContactState -->
<g id="edge3" class="edge">
<title>InitializeContactState&#45;&gt;GetContactState</title>
<path fill="none" stroke="#505050" d="M108.94,-612.06C108.94,-612.06 108.94,-572.42 108.94,-572.42"/>
<polygon fill="#505050" stroke="#505050" points="111.39,-572.42 108.94,-565.42 106.49,-572.42 111.39,-572.42"/>
</g>
<!-- AppendContactSlot -->
<g id="node7" class="node">
<title>AppendContactSlot</title>
<g id="a_node7"><a xlink:href="vscode://file/C:/_DJ/gPCD/docs/Dynamics/ForceDynamicsSource.tex:1:1" xlink:title="Open the AppendContactSlot section in ForceDynamicsSource.tex" target="_blank">
<path fill="#f8f8f8" stroke="#606060" d="M113.75,-478.5C113.75,-478.5 32.5,-478.5 32.5,-478.5 26.5,-478.5 20.5,-472.5 20.5,-466.5 20.5,-466.5 20.5,-454.5 20.5,-454.5 20.5,-448.5 26.5,-442.5 32.5,-442.5 32.5,-442.5 113.75,-442.5 113.75,-442.5 119.75,-442.5 125.75,-448.5 125.75,-454.5 125.75,-454.5 125.75,-466.5 125.75,-466.5 125.75,-472.5 119.75,-478.5 113.75,-478.5"/>
<text xml:space="preserve" text-anchor="middle" x="73.12" y="-456.25" font-family="Consolas" font-size="10.00">AppendContactSlot</text>
</a>
</g>
</g>
<!-- GetContactState&#45;&gt;AppendContactSlot -->
<g id="edge4" class="edge">
<title>GetContactState&#45;&gt;AppendContactSlot</title>
<path fill="none" stroke="#505050" d="M78.12,-527.06C78.12,-527.06 78.12,-487.42 78.12,-487.42"/>
<polygon fill="#505050" stroke="#505050" points="80.58,-487.42 78.13,-480.42 75.68,-487.42 80.58,-487.42"/>
</g>
<!-- GetParticleGeometry -->
<g id="node5" class="node">
<title>GetParticleGeometry</title>
<g id="a_node5"><a xlink:href="vscode://file/C:/_DJ/gPCD/docs/Dynamics/ForceDynamicsSource.tex:52:1" xlink:title="Open the GetParticleGeometry section in ForceDynamicsSource.tex" target="_blank">
<path fill="#f8f8f8" stroke="#606060" d="M114,-291C114,-291 22.25,-291 22.25,-291 16.25,-291 10.25,-285 10.25,-279 10.25,-279 10.25,-267 10.25,-267 10.25,-261 16.25,-255 22.25,-255 22.25,-255 114,-255 114,-255 120,-255 126,-261 126,-267 126,-267 126,-279 126,-279 126,-285 120,-291 114,-291"/>
<text xml:space="preserve" text-anchor="middle" x="68.12" y="-268.75" font-family="Consolas" font-size="10.00">GetParticleGeometry</text>
</a>
</g>
</g>
<!-- GetParticlePosition -->
<g id="node6" class="node">
<title>GetParticlePosition</title>
<g id="a_node6"><a xlink:href="vscode://file/C:/_DJ/gPCD/docs/Dynamics/ForceDynamicsSource.tex:1:1" xlink:title="Open the GetParticlePosition section in ForceDynamicsSource.tex" target="_blank">
<path fill="#f8f8f8" stroke="#606060" d="M113,-206C113,-206 21.25,-206 21.25,-206 15.25,-206 9.25,-200 9.25,-194 9.25,-194 9.25,-182 9.25,-182 9.25,-176 15.25,-170 21.25,-170 21.25,-170 113,-170 113,-170 119,-170 125,-176 125,-182 125,-182 125,-194 125,-194 125,-200 119,-206 113,-206"/>
<text xml:space="preserve" text-anchor="middle" x="67.12" y="-183.75" font-family="Consolas" font-size="10.00">GetParticlePosition</text>
</a>
</g>
</g>
<!-- GetParticleGeometry&#45;&gt;GetParticlePosition -->
<g id="edge7" class="edge">
<title>GetParticleGeometry&#45;&gt;GetParticlePosition</title>
<path fill="none" stroke="#505050" d="M67.62,-254.56C67.62,-254.56 67.62,-214.92 67.62,-214.92"/>
<polygon fill="#505050" stroke="#505050" points="70.08,-214.92 67.63,-207.92 65.18,-214.92 70.08,-214.92"/>
</g>
<!-- GetStartFrameVelocity -->
<g id="node10" class="node">
<title>GetStartFrameVelocity</title>
<g id="a_node10"><a xlink:href="vscode://file/C:/_DJ/gPCD/docs/Dynamics/ForceDynamicsSource.tex:1:1" xlink:title="Open the GetStartFrameVelocity section in ForceDynamicsSource.tex" target="_blank">
<path fill="#f8f8f8" stroke="#606060" d="M114.25,-121C114.25,-121 12,-121 12,-121 6,-121 0,-115 0,-109 0,-109 0,-97 0,-97 0,-91 6,-85 12,-85 12,-85 114.25,-85 114.25,-85 120.25,-85 126.25,-91 126.25,-97 126.25,-97 126.25,-109 126.25,-109 126.25,-115 120.25,-121 114.25,-121"/>
<text xml:space="preserve" text-anchor="middle" x="63.12" y="-98.75" font-family="Consolas" font-size="10.00">GetStartFrameVelocity</text>
</a>
</g>
</g>
<!-- GetParticlePosition&#45;&gt;GetStartFrameVelocity -->
<g id="edge8" class="edge">
<title>GetParticlePosition&#45;&gt;GetStartFrameVelocity</title>
<path fill="none" stroke="#505050" d="M67.12,-169.56C67.12,-169.56 67.12,-129.92 67.12,-129.92"/>
<polygon fill="#505050" stroke="#505050" points="69.58,-129.92 67.13,-122.92 64.68,-129.92 69.58,-129.92"/>
</g>
<!-- GetContactSlots -->
<g id="node8" class="node">
<title>GetContactSlots</title>
<g id="a_node8"><a xlink:href="vscode://file/C:/_DJ/gPCD/docs/Dynamics/ForceDynamicsSource.tex:1:1" xlink:title="Open the GetContactSlots section in ForceDynamicsSource.tex" target="_blank">
<path fill="#f8f8f8" stroke="#606060" d="M106.5,-384.75C106.5,-384.75 35.75,-384.75 35.75,-384.75 29.75,-384.75 23.75,-378.75 23.75,-372.75 23.75,-372.75 23.75,-360.75 23.75,-360.75 23.75,-354.75 29.75,-348.75 35.75,-348.75 35.75,-348.75 106.5,-348.75 106.5,-348.75 112.5,-348.75 118.5,-354.75 118.5,-360.75 118.5,-360.75 118.5,-372.75 118.5,-372.75 118.5,-378.75 112.5,-384.75 106.5,-384.75"/>
<text xml:space="preserve" text-anchor="middle" x="71.12" y="-362.5" font-family="Consolas" font-size="10.00">GetContactSlots</text>
</a>
</g>
</g>
<!-- AppendContactSlot&#45;&gt;GetContactSlots -->
<g id="edge5" class="edge">
<title>AppendContactSlot&#45;&gt;GetContactSlots</title>
<path fill="none" stroke="#505050" d="M71.12,-442.42C71.12,-442.42 71.12,-393.6 71.12,-393.6"/>
<polygon fill="#505050" stroke="#505050" points="73.58,-393.6 71.13,-386.6 68.68,-393.6 73.58,-393.6"/>
</g>
<!-- GetContactSlots&#45;&gt;GetParticleGeometry -->
<g id="edge6" class="edge">
<title>GetContactSlots&#45;&gt;GetParticleGeometry</title>
<path fill="none" stroke="#505050" d="M71.12,-348.67C71.12,-348.67 71.12,-299.85 71.12,-299.85"/>
<polygon fill="#505050" stroke="#505050" points="73.58,-299.85 71.13,-292.85 68.68,-299.85 73.58,-299.85"/>
</g>
<!-- CalculateContactParms -->
<g id="node9" class="node">
<title>CalculateContactParms</title>
<g id="a_node9"><a xlink:href="vscode://file/C:/_DJ/gPCD/docs/Dynamics/ForceDynamicsSource.tex:58:1" xlink:title="Open the CalculateContactParms section in ForceDynamicsSource.tex" target="_blank">
<path fill="#f8f8f8" stroke="#606060" d="M259.25,-36C259.25,-36 157,-36 157,-36 151,-36 145,-30 145,-24 145,-24 145,-12 145,-12 145,-6 151,0 157,0 157,0 259.25,0 259.25,0 265.25,0 271.25,-6 271.25,-12 271.25,-12 271.25,-24 271.25,-24 271.25,-30 265.25,-36 259.25,-36"/>
<text xml:space="preserve" text-anchor="middle" x="208.12" y="-13.75" font-family="Consolas" font-size="10.00">CalculateContactParms</text>
</a>
</g>
</g>
<!-- CalculateContactParms&#45;&gt;InitializeContactState -->
<g id="edge10" class="edge">
<title>CalculateContactParms&#45;&gt;InitializeContactState</title>
<path fill="none" stroke="#505050" d="M197.58,-36.33C197.58,-36.33 197.58,-603.73 197.58,-603.73"/>
<polygon fill="#505050" stroke="#505050" points="195.13,-603.73 197.58,-610.73 200.03,-603.73 195.13,-603.73"/>
<text xml:space="preserve" text-anchor="middle" x="239.62" y="-316.2" font-family="Consolas" font-size="9.00">next contact</text>
</g>
<!-- CalculateContactForces -->
<g id="node11" class="node">
<title>CalculateContactForces</title>
<g id="a_node11"><a xlink:href="vscode://file/C:/_DJ/gPCD/docs/Dynamics/ForceDynamicsSource.tex:64:1" xlink:title="Open the CalculateContactForces section in ForceDynamicsSource.tex" target="_blank">
<path fill="#f8f8f8" stroke="#606060" d="M576.88,-827.25C576.88,-827.25 469.38,-827.25 469.38,-827.25 463.38,-827.25 457.38,-821.25 457.38,-815.25 457.38,-815.25 457.38,-803.25 457.38,-803.25 457.38,-797.25 463.38,-791.25 469.38,-791.25 469.38,-791.25 576.88,-791.25 576.88,-791.25 582.88,-791.25 588.88,-797.25 588.88,-803.25 588.88,-803.25 588.88,-815.25 588.88,-815.25 588.88,-821.25 582.88,-827.25 576.88,-827.25"/>
<text xml:space="preserve" text-anchor="middle" x="523.12" y="-805" font-family="Consolas" font-size="10.00">CalculateContactForces</text>
</a>
</g>
</g>
<!-- CalculateContactParms&#45;&gt;CalculateContactForces -->
<g id="edge11" class="edge">
<title>CalculateContactParms&#45;&gt;CalculateContactForces</title>
<path fill="none" stroke="#505050" d="M248.88,-36.39C248.88,-155.15 248.88,-809 248.88,-809 248.88,-809 448.57,-809 448.57,-809"/>
<polygon fill="#505050" stroke="#505050" points="448.57,-811.45 455.57,-809 448.57,-806.55 448.57,-811.45"/>
<text xml:space="preserve" text-anchor="middle" x="362.75" y="-409.95" font-family="Consolas" font-size="9.00">all contacts done</text>
</g>
<!-- GetStartFrameVelocity&#45;&gt;CalculateContactParms -->
<g id="edge9" class="edge">
<title>GetStartFrameVelocity&#45;&gt;CalculateContactParms</title>
<path fill="none" stroke="#505050" d="M126.67,-103C150.22,-103 171.29,-103 171.29,-103 171.29,-103 171.29,-44.96 171.29,-44.96"/>
<polygon fill="#505050" stroke="#505050" points="173.74,-44.96 171.29,-37.96 168.84,-44.96 173.74,-44.96"/>
</g>
<!-- GetPairStiffness -->
<g id="node12" class="node">
<title>GetPairStiffness</title>
<g id="a_node12"><a xlink:href="vscode://file/C:/_DJ/gPCD/docs/Dynamics/ForceDynamicsSource.tex:83:1" xlink:title="Open the GetPairStiffness section in ForceDynamicsSource.tex" target="_blank">
<path fill="#f8f8f8" stroke="#606060" d="M488.12,-742.25C488.12,-742.25 412.12,-742.25 412.12,-742.25 406.12,-742.25 400.12,-736.25 400.12,-730.25 400.12,-730.25 400.12,-718.25 400.12,-718.25 400.12,-712.25 406.12,-706.25 412.12,-706.25 412.12,-706.25 488.12,-706.25 488.12,-706.25 494.12,-706.25 500.12,-712.25 500.12,-718.25 500.12,-718.25 500.12,-730.25 500.12,-730.25 500.12,-736.25 494.12,-742.25 488.12,-742.25"/>
<text xml:space="preserve" text-anchor="middle" x="450.12" y="-720" font-family="Consolas" font-size="10.00">GetPairStiffness</text>
</a>
</g>
</g>
<!-- CalculateContactForces&#45;&gt;GetPairStiffness -->
<g id="edge12" class="edge">
<title>CalculateContactForces&#45;&gt;GetPairStiffness</title>
<path fill="none" stroke="#505050" d="M485.88,-790.81C485.88,-790.81 485.88,-751.17 485.88,-751.17"/>
<polygon fill="#505050" stroke="#505050" points="488.33,-751.17 485.88,-744.17 483.43,-751.17 488.33,-751.17"/>
</g>
<!-- GetContactPotentialEnergy -->
<g id="node13" class="node">
<title>GetContactPotentialEnergy</title>
<g id="a_node13"><a xlink:href="vscode://file/C:/_DJ/gPCD/docs/Dynamics/ForceDynamicsSource.tex:92:1" xlink:title="Open the GetContactPotentialEnergy section in ForceDynamicsSource.tex" target="_blank">
<path fill="#f8f8f8" stroke="#606060" d="M689.75,-742.25C689.75,-742.25 566.5,-742.25 566.5,-742.25 560.5,-742.25 554.5,-736.25 554.5,-730.25 554.5,-730.25 554.5,-718.25 554.5,-718.25 554.5,-712.25 560.5,-706.25 566.5,-706.25 566.5,-706.25 689.75,-706.25 689.75,-706.25 695.75,-706.25 701.75,-712.25 701.75,-718.25 701.75,-718.25 701.75,-730.25 701.75,-730.25 701.75,-736.25 695.75,-742.25 689.75,-742.25"/>
<text xml:space="preserve" text-anchor="middle" x="628.12" y="-720" font-family="Consolas" font-size="10.00">GetContactPotentialEnergy</text>
</a>
</g>
</g>
<!-- CalculateContactForces&#45;&gt;GetContactPotentialEnergy -->
<g id="edge14" class="edge">
<title>CalculateContactForces&#45;&gt;GetContactPotentialEnergy</title>
<path fill="none" stroke="#505050" d="M563.09,-790.81C563.09,-790.81 563.09,-751.17 563.09,-751.17"/>
<polygon fill="#505050" stroke="#505050" points="565.54,-751.17 563.09,-744.17 560.64,-751.17 565.54,-751.17"/>
</g>
<!-- ApplySourceVelocityDelta -->
<g id="node15" class="node">
<title>ApplySourceVelocityDelta</title>
<g id="a_node15"><a xlink:href="vscode://file/C:/_DJ/gPCD/docs/Dynamics/ForceDynamicsSource.tex:107:1" xlink:title="Open the ApplySourceVelocityDelta section in ForceDynamicsSource.tex" target="_blank">
<path fill="#f8f8f8" stroke="#606060" d="M886.12,-742.25C886.12,-742.25 768.12,-742.25 768.12,-742.25 762.12,-742.25 756.12,-736.25 756.12,-730.25 756.12,-730.25 756.12,-718.25 756.12,-718.25 756.12,-712.25 762.12,-706.25 768.12,-706.25 768.12,-706.25 886.12,-706.25 886.12,-706.25 892.12,-706.25 898.12,-712.25 898.12,-718.25 898.12,-718.25 898.12,-730.25 898.12,-730.25 898.12,-736.25 892.12,-742.25 886.12,-742.25"/>
<text xml:space="preserve" text-anchor="middle" x="827.12" y="-720" font-family="Consolas" font-size="10.00">ApplySourceVelocityDelta</text>
</a>
</g>
</g>
<!-- CalculateContactForces&#45;&gt;ApplySourceVelocityDelta -->
<g id="edge16" class="edge">
<title>CalculateContactForces&#45;&gt;ApplySourceVelocityDelta</title>
<path fill="none" stroke="#505050" d="M580.28,-791.09C580.28,-779.64 580.28,-767 580.28,-767 580.28,-767 759.88,-767 759.88,-767 759.88,-767 759.88,-751.14 759.88,-751.14"/>
<polygon fill="#505050" stroke="#505050" points="762.33,-751.14 759.88,-744.14 757.43,-751.14 762.33,-751.14"/>
</g>
<!-- GetPairStiffness&#45;&gt;CalculateContactForces -->
<g id="edge13" class="edge">
<title>GetPairStiffness&#45;&gt;CalculateContactForces</title>
<path fill="none" stroke="#505050" d="M471.62,-742.69C471.62,-742.69 471.62,-782.33 471.62,-782.33"/>
<polygon fill="#505050" stroke="#505050" points="469.18,-782.33 471.63,-789.33 474.08,-782.33 469.18,-782.33"/>
</g>
<!-- GetContactPotentialEnergy&#45;&gt;CalculateContactForces -->
<g id="edge15" class="edge">
<title>GetContactPotentialEnergy&#45;&gt;CalculateContactForces</title>
<path fill="none" stroke="#505050" d="M571.69,-742.69C571.69,-742.69 571.69,-782.33 571.69,-782.33"/>
<polygon fill="#505050" stroke="#505050" points="569.24,-782.33 571.69,-789.33 574.14,-782.33 569.24,-782.33"/>
</g>
<!-- TotalPotentialEnergy -->
<g id="node14" class="node">
<title>TotalPotentialEnergy</title>
<g id="a_node14"><a xlink:href="vscode://file/C:/_DJ/gPCD/docs/Dynamics/ForceDynamicsSource.tex:98:1" xlink:title="Open the TotalPotentialEnergy section in ForceDynamicsSource.tex" target="_blank">
<path fill="#f8f8f8" stroke="#606060" d="M751.62,-827.25C751.62,-827.25 654.62,-827.25 654.62,-827.25 648.62,-827.25 642.62,-821.25 642.62,-815.25 642.62,-815.25 642.62,-803.25 642.62,-803.25 642.62,-797.25 648.62,-791.25 654.62,-791.25 654.62,-791.25 751.62,-791.25 751.62,-791.25 757.62,-791.25 763.62,-797.25 763.62,-803.25 763.62,-803.25 763.62,-815.25 763.62,-815.25 763.62,-821.25 757.62,-827.25 751.62,-827.25"/>
<text xml:space="preserve" text-anchor="middle" x="703.12" y="-805" font-family="Consolas" font-size="10.00">TotalPotentialEnergy</text>
</a>
</g>
</g>
<!-- GetParticleMass -->
<g id="node16" class="node">
<title>GetParticleMass</title>
<g id="a_node16"><a xlink:href="vscode://file/C:/_DJ/gPCD/docs/Dynamics/ForceDynamicsSource.tex:1:1" xlink:title="Open the GetParticleMass section in ForceDynamicsSource.tex" target="_blank">
<path fill="#f8f8f8" stroke="#606060" d="M862.5,-648.5C862.5,-648.5 791.75,-648.5 791.75,-648.5 785.75,-648.5 779.75,-642.5 779.75,-636.5 779.75,-636.5 779.75,-624.5 779.75,-624.5 779.75,-618.5 785.75,-612.5 791.75,-612.5 791.75,-612.5 862.5,-612.5 862.5,-612.5 868.5,-612.5 874.5,-618.5 874.5,-624.5 874.5,-624.5 874.5,-636.5 874.5,-636.5 874.5,-642.5 868.5,-648.5 862.5,-648.5"/>
<text xml:space="preserve" text-anchor="middle" x="827.12" y="-626.25" font-family="Consolas" font-size="10.00">GetParticleMass</text>
</a>
</g>
</g>
<!-- ApplySourceVelocityDelta&#45;&gt;GetParticleMass -->
<g id="edge17" class="edge">
<title>ApplySourceVelocityDelta&#45;&gt;GetParticleMass</title>
<path fill="none" stroke="#505050" d="M811.33,-706.17C811.33,-706.17 811.33,-657.35 811.33,-657.35"/>
<polygon fill="#505050" stroke="#505050" points="813.78,-657.35 811.33,-650.35 808.88,-657.35 813.78,-657.35"/>
</g>
<!-- GetParticleMass&#45;&gt;ApplySourceVelocityDelta -->
<g id="edge18" class="edge">
<title>GetParticleMass&#45;&gt;ApplySourceVelocityDelta</title>
<path fill="none" stroke="#505050" d="M842.92,-648.58C842.92,-648.58 842.92,-697.4 842.92,-697.4"/>
<polygon fill="#505050" stroke="#505050" points="840.47,-697.4 842.92,-704.4 845.37,-697.4 840.47,-697.4"/>
</g>
</g>
</svg>
