<?xml version="1.0" encoding="UTF-8" standalone="no"?>
<!DOCTYPE svg PUBLIC "-//W3C//DTD SVG 1.1//EN"
 "http://www.w3.org/Graphics/SVG/1.1/DTD/svg11.dtd">
<!-- Generated by graphviz version 15.0.0 (20260523.1842)
 -->
<!-- Title: ShadowSourceFlow Pages: 1 -->
<svg width="1298pt" height="1110pt"
 viewBox="0.00 0.00 1298.00 1110.00" xmlns="http://www.w3.org/2000/svg" xmlns:xlink="http://www.w3.org/1999/xlink">
<g id="graph0" class="graph" transform="scale(1 1) rotate(0) translate(4 1106)">
<title>ShadowSourceFlow</title>
<polygon fill="white" stroke="none" points="-4,4 -4,-1106 1294,-1106 1294,4 -4,4"/>
<g id="clust1" class="cluster">
<title>cluster_setup</title>
<path fill="white" stroke="#c8c8c8" d="M120,-550C120,-550 286,-550 286,-550 292,-550 298,-556 298,-562 298,-562 298,-1082 298,-1082 298,-1088 292,-1094 286,-1094 286,-1094 120,-1094 120,-1094 114,-1094 108,-1088 108,-1082 108,-1082 108,-562 108,-562 108,-556 114,-550 120,-550"/>
<text xml:space="preserve" text-anchor="middle" x="203" y="-1079.55" font-family="Consolas" font-size="11.00">Frame Setup</text>
</g>
<g id="clust2" class="cluster">
<title>cluster_detect</title>
<path fill="white" stroke="#c8c8c8" d="M20,-360.75C20,-360.75 262,-360.75 262,-360.75 268,-360.75 274,-366.75 274,-372.75 274,-372.75 274,-519 274,-519 274,-525 268,-531 262,-531 262,-531 20,-531 20,-531 14,-531 8,-525 8,-519 8,-519 8,-372.75 8,-372.75 8,-366.75 14,-360.75 20,-360.75"/>
<text xml:space="preserve" text-anchor="middle" x="141" y="-516.55" font-family="Consolas" font-size="11.00">Contact Detection</text>
</g>
<g id="clust3" class="cluster">
<title>cluster_planning</title>
<path fill="white" stroke="#c8c8c8" d="M294,-180C294,-180 882,-180 882,-180 888,-180 894,-186 894,-192 894,-192 894,-420 894,-420 894,-426 888,-432 882,-432 882,-432 294,-432 294,-432 288,-432 282,-426 282,-420 282,-420 282,-192 282,-192 282,-186 288,-180 294,-180"/>
<text xml:space="preserve" text-anchor="middle" x="588" y="-417.55" font-family="Consolas" font-size="11.00">Impulse Planning</text>
</g>
<g id="clust4" class="cluster">
<title>cluster_resolve</title>
<path fill="white" stroke="#c8c8c8" d="M954,-180C954,-180 1270,-180 1270,-180 1276,-180 1282,-186 1282,-192 1282,-192 1282,-321 1282,-321 1282,-327 1276,-333 1270,-333 1270,-333 954,-333 954,-333 948,-333 942,-327 942,-321 942,-321 942,-192 942,-192 942,-186 948,-180 954,-180"/>
<text xml:space="preserve" text-anchor="middle" x="1112" y="-318.55" font-family="Consolas" font-size="11.00">Contact Resolution</text>
</g>
<g id="clust5" class="cluster">
<title>cluster_motion</title>
<path fill="white" stroke="#c8c8c8" d="M1132,-8C1132,-8 1232,-8 1232,-8 1238,-8 1244,-14 1244,-20 1244,-20 1244,-140.25 1244,-140.25 1244,-146.25 1238,-152.25 1232,-152.25 1232,-152.25 1132,-152.25 1132,-152.25 1126,-152.25 1120,-146.25 1120,-140.25 1120,-140.25 1120,-20 1120,-20 1120,-14 1126,-8 1132,-8"/>
<text xml:space="preserve" text-anchor="middle" x="1182" y="-137.8" font-family="Consolas" font-size="11.00">Motion / End Frame</text>
</g>
<g id="clust6" class="cluster">
<title>cluster_capture</title>
<path fill="white" stroke="#c8c8c8" d="M318,-769C318,-769 819,-769 819,-769 825,-769 831,-775 831,-781 831,-781 831,-983 831,-983 831,-989 825,-995 819,-995 819,-995 318,-995 318,-995 312,-995 306,-989 306,-983 306,-983 306,-781 306,-781 306,-775 312,-769 318,-769"/>
<text xml:space="preserve" text-anchor="middle" x="568.5" y="-980.55" font-family="Consolas" font-size="11.00">Capture / Reporting</text>
</g>
<g id="clust7" class="cluster">
<title>cluster_common</title>
<path fill="white" stroke="#c8c8c8" d="M479,-81C479,-81 839,-81 839,-81 845,-81 851,-87 851,-93 851,-93 851,-140.25 851,-140.25 851,-146.25 845,-152.25 839,-152.25 839,-152.25 479,-152.25 479,-152.25 473,-152.25 467,-146.25 467,-140.25 467,-140.25 467,-93 467,-93 467,-87 473,-81 479,-81"/>
<text xml:space="preserve" text-anchor="middle" x="659" y="-137.8" font-family="Consolas" font-size="11.00">Shared Helpers</text>
</g>
<!-- CollisionRun -->
<g id="node1" class="node">
<title>CollisionRun</title>
<g id="a_node1"><a xlink:href="vscode://file/C:/_DJ/gPCD/python/base/ShadowBase.py:265:1" xlink:title="Open CollisionRun in VS Code" target="_blank">
<ellipse fill="#f8f8f8" stroke="#606060" cx="241" cy="-1048.75" rx="46.04" ry="18"/>
<text xml:space="preserve" text-anchor="middle" x="241" y="-1044.5" font-family="Consolas" font-size="10.00">CollisionRun</text>
</a>
</g>
</g>
<!-- GeoBeginFrame -->
<g id="node2" class="node">
<title>GeoBeginFrame</title>
<g id="a_node2"><a xlink:href="vscode://file/C:/_DJ/gPCD/python/base/ShadowBase.py:349:1" xlink:title="Open GeoBeginFrame in VS Code" target="_blank">
<path fill="#f8f8f8" stroke="#606060" d="M249.12,-967.75C249.12,-967.75 188.88,-967.75 188.88,-967.75 182.88,-967.75 176.88,-961.75 176.88,-955.75 176.88,-955.75 176.88,-943.75 176.88,-943.75 176.88,-937.75 182.88,-931.75 188.88,-931.75 188.88,-931.75 249.12,-931.75 249.12,-931.75 255.12,-931.75 261.12,-937.75 261.12,-943.75 261.12,-943.75 261.12,-955.75 261.12,-955.75 261.12,-961.75 255.12,-967.75 249.12,-967.75"/>
<text xml:space="preserve" text-anchor="middle" x="219" y="-945.5" font-family="Consolas" font-size="10.00">GeoBeginFrame</text>
</a>
</g>
</g>
<!-- CollisionRun&#45;&gt;GeoBeginFrame -->
<g id="edge1" class="edge">
<title>CollisionRun&#45;&gt;GeoBeginFrame</title>
<path fill="none" stroke="#505050" d="M237.07,-1030.41C233.81,-1016.06 229.13,-995.41 225.35,-978.73"/>
<polygon fill="#505050" stroke="#505050" points="228.86,-978.4 223.23,-969.42 222.03,-979.94 228.86,-978.4"/>
</g>
<!-- _report_particles -->
<g id="node24" class="node">
<title>_report_particles</title>
<g id="a_node24"><a xlink:href="vscode://file/C:/_DJ/gPCD/python/GeoRunner.py:505:1" xlink:title="Open _report_particles in VS Code" target="_blank">
<path fill="#f8f8f8" stroke="#606060" d="M491.62,-967.75C491.62,-967.75 410.38,-967.75 410.38,-967.75 404.38,-967.75 398.38,-961.75 398.38,-955.75 398.38,-955.75 398.38,-943.75 398.38,-943.75 398.38,-937.75 404.38,-931.75 410.38,-931.75 410.38,-931.75 491.62,-931.75 491.62,-931.75 497.62,-931.75 503.62,-937.75 503.62,-943.75 503.62,-943.75 503.62,-955.75 503.62,-955.75 503.62,-961.75 497.62,-967.75 491.62,-967.75"/>
<text xml:space="preserve" text-anchor="middle" x="451" y="-945.5" font-family="Consolas" font-size="10.00">_report_particles</text>
</a>
</g>
</g>
<!-- CollisionRun&#45;&gt;_report_particles -->
<g id="edge29" class="edge">
<title>CollisionRun&#45;&gt;_report_particles</title>
<path fill="none" stroke="#505050" d="M269.76,-1034.47C304.07,-1018.62 361.93,-991.89 403.05,-972.9"/>
<polygon fill="#505050" stroke="#505050" points="404.39,-976.13 412,-968.76 401.46,-969.78 404.39,-976.13"/>
<text xml:space="preserve" text-anchor="middle" x="364.93" y="-1004.2" font-family="Consolas" font-size="9.00">frame result</text>
</g>
<!-- GeoApplyBeforeContactScanHook -->
<g id="node3" class="node">
<title>GeoApplyBeforeContactScanHook</title>
<g id="a_node3"><a xlink:href="vscode://file/C:/_DJ/gPCD/python/base/ShadowBase.py:364:1" xlink:title="Open GeoApplyBeforeContactScanHook in VS Code" target="_blank">
<path fill="#f8f8f8" stroke="#606060" d="M277.12,-886C277.12,-886 132.88,-886 132.88,-886 126.88,-886 120.88,-880 120.88,-874 120.88,-874 120.88,-862 120.88,-862 120.88,-856 126.88,-850 132.88,-850 132.88,-850 277.12,-850 277.12,-850 283.12,-850 289.12,-856 289.12,-862 289.12,-862 289.12,-874 289.12,-874 289.12,-880 283.12,-886 277.12,-886"/>
<text xml:space="preserve" text-anchor="middle" x="205" y="-863.75" font-family="Consolas" font-size="10.00">GeoApplyBeforeContactScanHook</text>
</a>
</g>
</g>
<!-- GeoBeginFrame&#45;&gt;GeoApplyBeforeContactScanHook -->
<g id="edge2" class="edge">
<title>GeoBeginFrame&#45;&gt;GeoApplyBeforeContactScanHook</title>
<path fill="none" stroke="#505050" d="M215.96,-931.45C214.22,-921.52 211.99,-908.81 209.99,-897.45"/>
<polygon fill="#505050" stroke="#505050" points="213.47,-897.01 208.29,-887.76 206.58,-898.22 213.47,-897.01"/>
</g>
<!-- GeoResetFrameState -->
<g id="node4" class="node">
<title>GeoResetFrameState</title>
<g id="a_node4"><a xlink:href="vscode://file/C:/_DJ/gPCD/python/base/ShadowBase.py:377:1" xlink:title="Open GeoResetFrameState in VS Code" target="_blank">
<path fill="#f8f8f8" stroke="#606060" d="M248.25,-813C248.25,-813 161.75,-813 161.75,-813 155.75,-813 149.75,-807 149.75,-801 149.75,-801 149.75,-789 149.75,-789 149.75,-783 155.75,-777 161.75,-777 161.75,-777 248.25,-777 248.25,-777 254.25,-777 260.25,-783 260.25,-789 260.25,-789 260.25,-801 260.25,-801 260.25,-807 254.25,-813 248.25,-813"/>
<text xml:space="preserve" text-anchor="middle" x="205" y="-790.75" font-family="Consolas" font-size="10.00">GeoResetFrameState</text>
</a>
</g>
</g>
<!-- GeoApplyBeforeContactScanHook&#45;&gt;GeoResetFrameState -->
<g id="edge3" class="edge">
<title>GeoApplyBeforeContactScanHook&#45;&gt;GeoResetFrameState</title>
<path fill="none" stroke="#505050" d="M205,-849.81C205,-842.23 205,-833.1 205,-824.54"/>
<polygon fill="#505050" stroke="#505050" points="208.5,-824.54 205,-814.54 201.5,-824.54 208.5,-824.54"/>
</g>
<!-- GeoApplyStartRunHook -->
<g id="node5" class="node">
<title>GeoApplyStartRunHook</title>
<g id="a_node5"><a xlink:href="vscode://file/C:/_DJ/gPCD/python/base/ShadowBase.py:414:1" xlink:title="Open GeoApplyStartRunHook in VS Code" target="_blank">
<path fill="#f8f8f8" stroke="#606060" d="M252.5,-740C252.5,-740 155.5,-740 155.5,-740 149.5,-740 143.5,-734 143.5,-728 143.5,-728 143.5,-716 143.5,-716 143.5,-710 149.5,-704 155.5,-704 155.5,-704 252.5,-704 252.5,-704 258.5,-704 264.5,-710 264.5,-716 264.5,-716 264.5,-728 264.5,-728 264.5,-734 258.5,-740 252.5,-740"/>
<text xml:space="preserve" text-anchor="middle" x="204" y="-717.75" font-family="Consolas" font-size="10.00">GeoApplyStartRunHook</text>
</a>
</g>
</g>
<!-- GeoResetFrameState&#45;&gt;GeoApplyStartRunHook -->
<g id="edge4" class="edge">
<title>GeoResetFrameState&#45;&gt;GeoApplyStartRunHook</title>
<path fill="none" stroke="#505050" d="M204.76,-776.81C204.65,-769.23 204.52,-760.1 204.4,-751.54"/>
<polygon fill="#505050" stroke="#505050" points="207.9,-751.49 204.26,-741.54 200.9,-751.59 207.9,-751.49"/>
</g>
<!-- GeoBuildFrameSnapshot -->
<g id="node6" class="node">
<title>GeoBuildFrameSnapshot</title>
<g id="a_node6"><a xlink:href="vscode://file/C:/_DJ/gPCD/python/base/ShadowBase.py:427:1" xlink:title="Open GeoBuildFrameSnapshot in VS Code" target="_blank">
<path fill="#f8f8f8" stroke="#606060" d="M254.12,-667C254.12,-667 151.88,-667 151.88,-667 145.88,-667 139.88,-661 139.88,-655 139.88,-655 139.88,-643 139.88,-643 139.88,-637 145.88,-631 151.88,-631 151.88,-631 254.12,-631 254.12,-631 260.12,-631 266.12,-637 266.12,-643 266.12,-643 266.12,-655 266.12,-655 266.12,-661 260.12,-667 254.12,-667"/>
<text xml:space="preserve" text-anchor="middle" x="203" y="-644.75" font-family="Consolas" font-size="10.00">GeoBuildFrameSnapshot</text>
</a>
</g>
</g>
<!-- GeoApplyStartRunHook&#45;&gt;GeoBuildFrameSnapshot -->
<g id="edge5" class="edge">
<title>GeoApplyStartRunHook&#45;&gt;GeoBuildFrameSnapshot</title>
<path fill="none" stroke="#505050" d="M203.76,-703.81C203.65,-696.23 203.52,-687.1 203.4,-678.54"/>
<polygon fill="#505050" stroke="#505050" points="206.9,-678.49 203.26,-668.54 199.9,-678.59 206.9,-678.49"/>
</g>
<!-- GeoRecordFrameStartDiagnostics -->
<g id="node7" class="node">
<title>GeoRecordFrameStartDiagnostics</title>
<g id="a_node7"><a xlink:href="vscode://file/C:/_DJ/gPCD/python/base/ShadowBase.py:475:1" xlink:title="Open GeoRecordFrameStartDiagnostics in VS Code" target="_blank">
<path fill="#f8f8f8" stroke="#606060" d="M277.75,-594C277.75,-594 128.25,-594 128.25,-594 122.25,-594 116.25,-588 116.25,-582 116.25,-582 116.25,-570 116.25,-570 116.25,-564 122.25,-558 128.25,-558 128.25,-558 277.75,-558 277.75,-558 283.75,-558 289.75,-564 289.75,-570 289.75,-570 289.75,-582 289.75,-582 289.75,-588 283.75,-594 277.75,-594"/>
<text xml:space="preserve" text-anchor="middle" x="203" y="-571.75" font-family="Consolas" font-size="10.00">GeoRecordFrameStartDiagnostics</text>
</a>
</g>
</g>
<!-- GeoBuildFrameSnapshot&#45;&gt;GeoRecordFrameStartDiagnostics -->
<g id="edge6" class="edge">
<title>GeoBuildFrameSnapshot&#45;&gt;GeoRecordFrameStartDiagnostics</title>
<path fill="none" stroke="#505050" d="M203,-630.81C203,-623.23 203,-614.1 203,-605.54"/>
<polygon fill="#505050" stroke="#505050" points="206.5,-605.54 203,-595.54 199.5,-605.54 206.5,-605.54"/>
</g>
<!-- GeoDetectContact -->
<g id="node8" class="node">
<title>GeoDetectContact</title>
<g id="a_node8"><a xlink:href="vscode://file/C:/_DJ/gPCD/python/base/ShadowBase.py:496:1" xlink:title="Open GeoDetectContact in VS Code" target="_blank">
<path fill="#f8f8f8" stroke="#606060" d="M241,-503.75C241,-503.75 165,-503.75 165,-503.75 159,-503.75 153,-497.75 153,-491.75 153,-491.75 153,-479.75 153,-479.75 153,-473.75 159,-467.75 165,-467.75 165,-467.75 241,-467.75 241,-467.75 247,-467.75 253,-473.75 253,-479.75 253,-479.75 253,-491.75 253,-491.75 253,-497.75 247,-503.75 241,-503.75"/>
<text xml:space="preserve" text-anchor="middle" x="203" y="-481.5" font-family="Consolas" font-size="10.00">GeoDetectContact</text>
</a>
</g>
</g>
<!-- GeoRecordFrameStartDiagnostics&#45;&gt;GeoDetectContact -->
<g id="edge7" class="edge">
<title>GeoRecordFrameStartDiagnostics&#45;&gt;GeoDetectContact</title>
<path fill="none" stroke="#505050" d="M203,-557.56C203,-545.6 203,-529.44 203,-515.58"/>
<polygon fill="#505050" stroke="#505050" points="206.5,-515.66 203,-505.66 199.5,-515.66 206.5,-515.66"/>
</g>
<!-- isParticleContact -->
<g id="node9" class="node">
<title>isParticleContact</title>
<g id="a_node9"><a xlink:href="vscode://file/C:/_DJ/gPCD/python/base/ShadowBase.py:578:1" xlink:title="Open isParticleContact in VS Code" target="_blank">
<path fill="#f8f8f8" stroke="#606060" d="M109.62,-404.75C109.62,-404.75 28.38,-404.75 28.38,-404.75 22.38,-404.75 16.38,-398.75 16.38,-392.75 16.38,-392.75 16.38,-380.75 16.38,-380.75 16.38,-374.75 22.38,-368.75 28.38,-368.75 28.38,-368.75 109.62,-368.75 109.62,-368.75 115.62,-368.75 121.62,-374.75 121.62,-380.75 121.62,-380.75 121.62,-392.75 121.62,-392.75 121.62,-398.75 115.62,-404.75 109.62,-404.75"/>
<text xml:space="preserve" text-anchor="middle" x="69" y="-382.5" font-family="Consolas" font-size="10.00">isParticleContact</text>
</a>
</g>
</g>
<!-- GeoDetectContact&#45;&gt;isParticleContact -->
<g id="edge13" class="edge">
<title>GeoDetectContact&#45;&gt;isParticleContact</title>
<path fill="none" stroke="#505050" d="M179.04,-467.41C157.51,-451.82 125.69,-428.79 101.8,-411.49"/>
<polygon fill="#505050" stroke="#505050" points="104.13,-408.86 93.98,-405.83 100.02,-414.53 104.13,-408.86"/>
<text xml:space="preserve" text-anchor="middle" x="167.69" y="-441.2" font-family="Consolas" font-size="9.00">detect</text>
</g>
<!-- GeoAddParticleContact -->
<g id="node10" class="node">
<title>GeoAddParticleContact</title>
<g id="a_node10"><a xlink:href="vscode://file/C:/_DJ/gPCD/python/base/ShadowDynamics.py:705:1" xlink:title="Open GeoAddParticleContact in VS Code" target="_blank">
<path fill="#f8f8f8" stroke="#606060" d="M254.12,-404.75C254.12,-404.75 151.88,-404.75 151.88,-404.75 145.88,-404.75 139.88,-398.75 139.88,-392.75 139.88,-392.75 139.88,-380.75 139.88,-380.75 139.88,-374.75 145.88,-368.75 151.88,-368.75 151.88,-368.75 254.12,-368.75 254.12,-368.75 260.12,-368.75 266.12,-374.75 266.12,-380.75 266.12,-380.75 266.12,-392.75 266.12,-392.75 266.12,-398.75 260.12,-404.75 254.12,-404.75"/>
<text xml:space="preserve" text-anchor="middle" x="203" y="-382.5" font-family="Consolas" font-size="10.00">GeoAddParticleContact</text>
</a>
</g>
</g>
<!-- GeoDetectContact&#45;&gt;GeoAddParticleContact -->
<g id="edge16" class="edge">
<title>GeoDetectContact&#45;&gt;GeoAddParticleContact</title>
<path fill="none" stroke="#505050" d="M203,-467.41C203,-453.2 203,-432.81 203,-416.21"/>
<polygon fill="#505050" stroke="#505050" points="206.5,-416.46 203,-406.46 199.5,-416.46 206.5,-416.46"/>
<text xml:space="preserve" text-anchor="middle" x="218.75" y="-441.2" font-family="Consolas" font-size="9.00">record</text>
</g>
<!-- GeoPlanContactImpulses -->
<g id="node11" class="node">
<title>GeoPlanContactImpulses</title>
<g id="a_node11"><a xlink:href="vscode://file/C:/_DJ/gPCD/python/base/ShadowDynamics.py:655:1" xlink:title="Open GeoPlanContactImpulses in VS Code" target="_blank">
<path fill="#f8f8f8" stroke="#606060" d="M594.75,-404.75C594.75,-404.75 487.25,-404.75 487.25,-404.75 481.25,-404.75 475.25,-398.75 475.25,-392.75 475.25,-392.75 475.25,-380.75 475.25,-380.75 475.25,-374.75 481.25,-368.75 487.25,-368.75 487.25,-368.75 594.75,-368.75 594.75,-368.75 600.75,-368.75 606.75,-374.75 606.75,-380.75 606.75,-380.75 606.75,-392.75 606.75,-392.75 606.75,-398.75 600.75,-404.75 594.75,-404.75"/>
<text xml:space="preserve" text-anchor="middle" x="541" y="-382.5" font-family="Consolas" font-size="10.00">GeoPlanContactImpulses</text>
</a>
</g>
</g>
<!-- GeoDetectContact&#45;&gt;GeoPlanContactImpulses -->
<g id="edge8" class="edge">
<title>GeoDetectContact&#45;&gt;GeoPlanContactImpulses</title>
<path fill="none" stroke="#505050" d="M253.24,-470.33C310.43,-453.92 404.32,-426.97 469.22,-408.35"/>
<polygon fill="#505050" stroke="#505050" points="470.08,-411.74 478.73,-405.62 468.15,-405.02 470.08,-411.74"/>
</g>
<!-- particle_position -->
<g id="node29" class="node">
<title>particle_position</title>
<g id="a_node29"><a xlink:href="vscode://file/C:/_DJ/gPCD/python/base/ShadowBase.py:573:1" xlink:title="Open particle_position in VS Code" target="_blank">
<path fill="#f8f8f8" stroke="#606060" d="M568.62,-125C568.62,-125 487.38,-125 487.38,-125 481.38,-125 475.38,-119 475.38,-113 475.38,-113 475.38,-101 475.38,-101 475.38,-95 481.38,-89 487.38,-89 487.38,-89 568.62,-89 568.62,-89 574.62,-89 580.62,-95 580.62,-101 580.62,-101 580.62,-113 580.62,-113 580.62,-119 574.62,-125 568.62,-125"/>
<text xml:space="preserve" text-anchor="middle" x="528" y="-102.75" font-family="Consolas" font-size="10.00">particle_position</text>
</a>
</g>
</g>
<!-- isParticleContact&#45;&gt;particle_position -->
<g id="edge14" class="edge">
<title>isParticleContact&#45;&gt;particle_position</title>
<path fill="none" stroke="#505050" d="M71.58,-368.35C79.12,-324.55 105.44,-209.68 180,-160.25 225.38,-130.16 376.28,-116.64 463.75,-111.21"/>
<polygon fill="#505050" stroke="#505050" points="463.85,-114.71 473.63,-110.61 463.43,-107.72 463.85,-114.71"/>
<text xml:space="preserve" text-anchor="middle" x="132.38" y="-243.2" font-family="Consolas" font-size="9.00">position</text>
</g>
<!-- particle_overlap_area -->
<g id="node30" class="node">
<title>particle_overlap_area</title>
<g id="a_node30"><a xlink:href="vscode://file/C:/_DJ/gPCD/python/base/ShadowBase.py:615:1" xlink:title="Open particle_overlap_area in VS Code" target="_blank">
<path fill="#f8f8f8" stroke="#606060" d="M713.12,-125C713.12,-125 610.88,-125 610.88,-125 604.88,-125 598.88,-119 598.88,-113 598.88,-113 598.88,-101 598.88,-101 598.88,-95 604.88,-89 610.88,-89 610.88,-89 713.12,-89 713.12,-89 719.12,-89 725.12,-95 725.12,-101 725.12,-101 725.12,-113 725.12,-113 725.12,-119 719.12,-125 713.12,-125"/>
<text xml:space="preserve" text-anchor="middle" x="662" y="-102.75" font-family="Consolas" font-size="10.00">particle_overlap_area</text>
</a>
</g>
</g>
<!-- isParticleContact&#45;&gt;particle_overlap_area -->
<g id="edge15" class="edge">
<title>isParticleContact&#45;&gt;particle_overlap_area</title>
<path fill="none" stroke="#505050" d="M80.1,-368.52C107.74,-327.34 184.18,-223.38 278,-180 404.36,-121.57 457.85,-196.03 590,-152.25 604.04,-147.6 618.18,-139.75 630.17,-131.95"/>
<polygon fill="#505050" stroke="#505050" points="632.14,-134.84 638.44,-126.32 628.2,-129.06 632.14,-134.84"/>
<text xml:space="preserve" text-anchor="middle" x="197.91" y="-243.2" font-family="Consolas" font-size="9.00">area</text>
</g>
<!-- GeoContactContext -->
<g id="node12" class="node">
<title>GeoContactContext</title>
<g id="a_node12"><a xlink:href="vscode://file/C:/_DJ/gPCD/python/base/ShadowDynamics.py:292:1" xlink:title="Open GeoContactContext in VS Code" target="_blank">
<path fill="#f8f8f8" stroke="#606060" d="M442.62,-305.75C442.62,-305.75 361.38,-305.75 361.38,-305.75 355.38,-305.75 349.38,-299.75 349.38,-293.75 349.38,-293.75 349.38,-281.75 349.38,-281.75 349.38,-275.75 355.38,-269.75 361.38,-269.75 361.38,-269.75 442.62,-269.75 442.62,-269.75 448.62,-269.75 454.62,-275.75 454.62,-281.75 454.62,-281.75 454.62,-293.75 454.62,-293.75 454.62,-299.75 448.62,-305.75 442.62,-305.75"/>
<text xml:space="preserve" text-anchor="middle" x="402" y="-283.5" font-family="Consolas" font-size="10.00">GeoContactContext</text>
</a>
</g>
</g>
<!-- GeoPlanContactImpulses&#45;&gt;GeoContactContext -->
<g id="edge17" class="edge">
<title>GeoPlanContactImpulses&#45;&gt;GeoContactContext</title>
<path fill="none" stroke="#505050" d="M495.23,-368.42C484.41,-363.43 473.2,-357.49 463.5,-350.75 448.77,-340.52 434.52,-326.51 423.45,-314.39"/>
<polygon fill="#505050" stroke="#505050" points="426.26,-312.28 417,-307.12 421.02,-316.92 426.26,-312.28"/>
<text xml:space="preserve" text-anchor="middle" x="500.25" y="-342.2" font-family="Consolas" font-size="9.00">source context</text>
</g>
<!-- GeoCalculatePairContact -->
<g id="node13" class="node">
<title>GeoCalculatePairContact</title>
<g id="a_node13"><a xlink:href="vscode://file/C:/_DJ/gPCD/python/base/ShadowDynamics.py:496:1" xlink:title="Open GeoCalculatePairContact in VS Code" target="_blank">
<path fill="#f8f8f8" stroke="#606060" d="M597.38,-305.75C597.38,-305.75 484.62,-305.75 484.62,-305.75 478.62,-305.75 472.62,-299.75 472.62,-293.75 472.62,-293.75 472.62,-281.75 472.62,-281.75 472.62,-275.75 478.62,-269.75 484.62,-269.75 484.62,-269.75 597.38,-269.75 597.38,-269.75 603.38,-269.75 609.38,-275.75 609.38,-281.75 609.38,-281.75 609.38,-293.75 609.38,-293.75 609.38,-299.75 603.38,-305.75 597.38,-305.75"/>
<text xml:space="preserve" text-anchor="middle" x="541" y="-283.5" font-family="Consolas" font-size="10.00">GeoCalculatePairContact</text>
</a>
</g>
</g>
<!-- GeoPlanContactImpulses&#45;&gt;GeoCalculatePairContact -->
<g id="edge18" class="edge">
<title>GeoPlanContactImpulses&#45;&gt;GeoCalculatePairContact</title>
<path fill="none" stroke="#505050" d="M541,-368.41C541,-354.2 541,-333.81 541,-317.21"/>
<polygon fill="#505050" stroke="#505050" points="544.5,-317.46 541,-307.46 537.5,-317.46 544.5,-317.46"/>
<text xml:space="preserve" text-anchor="middle" x="569.88" y="-342.2" font-family="Consolas" font-size="9.00">per contact</text>
</g>
<!-- GeoBuildPairCompatiblePlan -->
<g id="node17" class="node">
<title>GeoBuildPairCompatiblePlan</title>
<g id="a_node17"><a xlink:href="vscode://file/C:/_DJ/gPCD/python/base/ShadowDynamics.py:616:1" xlink:title="Open GeoBuildPairCompatiblePlan in VS Code" target="_blank">
<path fill="#f8f8f8" stroke="#606060" d="M795.25,-305.75C795.25,-305.75 666.75,-305.75 666.75,-305.75 660.75,-305.75 654.75,-299.75 654.75,-293.75 654.75,-293.75 654.75,-281.75 654.75,-281.75 654.75,-275.75 660.75,-269.75 666.75,-269.75 666.75,-269.75 795.25,-269.75 795.25,-269.75 801.25,-269.75 807.25,-275.75 807.25,-281.75 807.25,-281.75 807.25,-293.75 807.25,-293.75 807.25,-299.75 801.25,-305.75 795.25,-305.75"/>
<text xml:space="preserve" text-anchor="middle" x="731" y="-283.5" font-family="Consolas" font-size="10.00">GeoBuildPairCompatiblePlan</text>
</a>
</g>
</g>
<!-- GeoPlanContactImpulses&#45;&gt;GeoBuildPairCompatiblePlan -->
<g id="edge24" class="edge">
<title>GeoPlanContactImpulses&#45;&gt;GeoBuildPairCompatiblePlan</title>
<path fill="none" stroke="#505050" d="M574.97,-368.41C606.21,-352.46 652.73,-328.71 686.85,-311.29"/>
<polygon fill="#505050" stroke="#505050" points="688.34,-314.46 695.66,-306.79 685.16,-308.22 688.34,-314.46"/>
<text xml:space="preserve" text-anchor="middle" x="661.37" y="-342.2" font-family="Consolas" font-size="9.00">pair reconcile</text>
</g>
<!-- GeoResolveContacts -->
<g id="node19" class="node">
<title>GeoResolveContacts</title>
<g id="a_node19"><a xlink:href="vscode://file/C:/_DJ/gPCD/python/base/ShadowBase.py:532:1" xlink:title="Open GeoResolveContacts in VS Code" target="_blank">
<path fill="#f8f8f8" stroke="#606060" d="M1054.25,-305.75C1054.25,-305.75 967.75,-305.75 967.75,-305.75 961.75,-305.75 955.75,-299.75 955.75,-293.75 955.75,-293.75 955.75,-281.75 955.75,-281.75 955.75,-275.75 961.75,-269.75 967.75,-269.75 967.75,-269.75 1054.25,-269.75 1054.25,-269.75 1060.25,-269.75 1066.25,-275.75 1066.25,-281.75 1066.25,-281.75 1066.25,-293.75 1066.25,-293.75 1066.25,-299.75 1060.25,-305.75 1054.25,-305.75"/>
<text xml:space="preserve" text-anchor="middle" x="1011" y="-283.5" font-family="Consolas" font-size="10.00">GeoResolveContacts</text>
</a>
</g>
</g>
<!-- GeoPlanContactImpulses&#45;&gt;GeoResolveContacts -->
<g id="edge9" class="edge">
<title>GeoPlanContactImpulses&#45;&gt;GeoResolveContacts</title>
<path fill="none" stroke="#505050" d="M607.05,-380.5C679.39,-373.72 798.4,-359.49 898,-333 919.56,-327.27 942.62,-318.7 962.25,-310.64"/>
<polygon fill="#505050" stroke="#505050" points="963.5,-313.9 971.37,-306.81 960.79,-307.45 963.5,-313.9"/>
</g>
<!-- GeoParticleGeometry -->
<g id="node14" class="node">
<title>GeoParticleGeometry</title>
<g id="a_node14"><a xlink:href="vscode://file/C:/_DJ/gPCD/python/base/ShadowDynamics.py:245:1" xlink:title="Open GeoParticleGeometry in VS Code" target="_blank">
<path fill="#f8f8f8" stroke="#606060" d="M707.88,-224C707.88,-224 616.12,-224 616.12,-224 610.12,-224 604.12,-218 604.12,-212 604.12,-212 604.12,-200 604.12,-200 604.12,-194 610.12,-188 616.12,-188 616.12,-188 707.88,-188 707.88,-188 713.88,-188 719.88,-194 719.88,-200 719.88,-200 719.88,-212 719.88,-212 719.88,-218 713.88,-224 707.88,-224"/>
<text xml:space="preserve" text-anchor="middle" x="662" y="-201.75" font-family="Consolas" font-size="10.00">GeoParticleGeometry</text>
</a>
</g>
</g>
<!-- GeoCalculatePairContact&#45;&gt;GeoParticleGeometry -->
<g id="edge19" class="edge">
<title>GeoCalculatePairContact&#45;&gt;GeoParticleGeometry</title>
<path fill="none" stroke="#505050" d="M571.64,-269.28C580.86,-263.83 590.94,-257.69 600,-251.75 609.91,-245.25 620.44,-237.85 629.96,-230.96"/>
<polygon fill="#505050" stroke="#505050" points="631.86,-233.91 637.86,-225.18 627.73,-228.26 631.86,-233.91"/>
<text xml:space="preserve" text-anchor="middle" x="634.88" y="-243.2" font-family="Consolas" font-size="9.00">geometry</text>
</g>
<!-- GeoStartFrameVelocity -->
<g id="node15" class="node">
<title>GeoStartFrameVelocity</title>
<g id="a_node15"><a xlink:href="vscode://file/C:/_DJ/gPCD/python/base/ShadowDynamics.py:286:1" xlink:title="Open GeoStartFrameVelocity in VS Code" target="_blank">
<path fill="#f8f8f8" stroke="#606060" d="M404.12,-224C404.12,-224 301.88,-224 301.88,-224 295.88,-224 289.88,-218 289.88,-212 289.88,-212 289.88,-200 289.88,-200 289.88,-194 295.88,-188 301.88,-188 301.88,-188 404.12,-188 404.12,-188 410.12,-188 416.12,-194 416.12,-200 416.12,-200 416.12,-212 416.12,-212 416.12,-218 410.12,-224 404.12,-224"/>
<text xml:space="preserve" text-anchor="middle" x="353" y="-201.75" font-family="Consolas" font-size="10.00">GeoStartFrameVelocity</text>
</a>
</g>
</g>
<!-- GeoCalculatePairContact&#45;&gt;GeoStartFrameVelocity -->
<g id="edge22" class="edge">
<title>GeoCalculatePairContact&#45;&gt;GeoStartFrameVelocity</title>
<path fill="none" stroke="#505050" d="M478.04,-269.33C462.34,-264.29 445.73,-258.35 430.75,-251.75 416.92,-245.66 402.4,-237.75 389.7,-230.29"/>
<polygon fill="#505050" stroke="#505050" points="391.63,-227.36 381.25,-225.21 388.02,-233.36 391.63,-227.36"/>
<text xml:space="preserve" text-anchor="middle" x="475.38" y="-243.2" font-family="Consolas" font-size="9.00">snapshot velocity</text>
</g>
<!-- GeoVelocityProgressImpulse -->
<g id="node16" class="node">
<title>GeoVelocityProgressImpulse</title>
<g id="a_node16"><a xlink:href="vscode://file/C:/_DJ/gPCD/python/base/ShadowDynamics.py:350:1" xlink:title="Open GeoVelocityProgressImpulse in VS Code" target="_blank">
<path fill="#f8f8f8" stroke="#606060" d="M574.25,-224C574.25,-224 445.75,-224 445.75,-224 439.75,-224 433.75,-218 433.75,-212 433.75,-212 433.75,-200 433.75,-200 433.75,-194 439.75,-188 445.75,-188 445.75,-188 574.25,-188 574.25,-188 580.25,-188 586.25,-194 586.25,-200 586.25,-200 586.25,-212 586.25,-212 586.25,-218 580.25,-224 574.25,-224"/>
<text xml:space="preserve" text-anchor="middle" x="510" y="-201.75" font-family="Consolas" font-size="10.00">GeoVelocityProgressImpulse</text>
</a>
</g>
</g>
<!-- GeoCalculatePairContact&#45;&gt;GeoVelocityProgressImpulse -->
<g id="edge23" class="edge">
<title>GeoCalculatePairContact&#45;&gt;GeoVelocityProgressImpulse</title>
<path fill="none" stroke="#505050" d="M534.27,-269.45C530.33,-259.31 525.26,-246.27 520.78,-234.73"/>
<polygon fill="#505050" stroke="#505050" points="524.15,-233.73 517.26,-225.68 517.62,-236.27 524.15,-233.73"/>
<text xml:space="preserve" text-anchor="middle" x="561.48" y="-243.2" font-family="Consolas" font-size="9.00">phase/impulse</text>
</g>
<!-- GeoParticleGeometry&#45;&gt;particle_position -->
<g id="edge20" class="edge">
<title>GeoParticleGeometry&#45;&gt;particle_position</title>
<path fill="none" stroke="#505050" d="M638.04,-187.66C616.51,-172.07 584.69,-149.04 560.8,-131.74"/>
<polygon fill="#505050" stroke="#505050" points="563.13,-129.11 552.98,-126.08 559.02,-134.78 563.13,-129.11"/>
<text xml:space="preserve" text-anchor="middle" x="631.94" y="-161.45" font-family="Consolas" font-size="9.00">position</text>
</g>
<!-- GeoParticleGeometry&#45;&gt;particle_overlap_area -->
<g id="edge21" class="edge">
<title>GeoParticleGeometry&#45;&gt;particle_overlap_area</title>
<path fill="none" stroke="#505050" d="M662,-187.66C662,-173.45 662,-153.06 662,-136.46"/>
<polygon fill="#505050" stroke="#505050" points="665.5,-136.71 662,-126.71 658.5,-136.71 665.5,-136.71"/>
<text xml:space="preserve" text-anchor="middle" x="672.5" y="-161.45" font-family="Consolas" font-size="9.00">area</text>
</g>
<!-- GeoPlannedContactImpulses -->
<g id="node18" class="node">
<title>GeoPlannedContactImpulses</title>
<polygon fill="#f8f8f8" stroke="#606060" points="879.62,-224 738.38,-224 738.38,-188 885.62,-188 885.62,-218 879.62,-224"/>
<polyline fill="none" stroke="#606060" points="879.62,-224 879.62,-218"/>
<polyline fill="none" stroke="#606060" points="885.62,-218 879.62,-218"/>
<text xml:space="preserve" text-anchor="middle" x="812" y="-201.75" font-family="Consolas" font-size="10.00">GeoPlannedContactImpulses</text>
</g>
<!-- GeoBuildPairCompatiblePlan&#45;&gt;GeoPlannedContactImpulses -->
<g id="edge25" class="edge">
<title>GeoBuildPairCompatiblePlan&#45;&gt;GeoPlannedContactImpulses</title>
<path fill="none" stroke="#505050" d="M748.58,-269.45C759.61,-258.58 774.04,-244.37 786.35,-232.26"/>
<polygon fill="#505050" stroke="#505050" points="788.71,-234.84 793.38,-225.33 783.8,-229.85 788.71,-234.84"/>
<text xml:space="preserve" text-anchor="middle" x="802.6" y="-243.2" font-family="Consolas" font-size="9.00">store plan</text>
</g>
<!-- GeoProcessCollisions -->
<g id="node20" class="node">
<title>GeoProcessCollisions</title>
<g id="a_node20"><a xlink:href="vscode://file/C:/_DJ/gPCD/python/base/ShadowDynamics.py:769:1" xlink:title="Open GeoProcessCollisions in VS Code" target="_blank">
<path fill="#f8f8f8" stroke="#606060" d="M1059.5,-224C1059.5,-224 962.5,-224 962.5,-224 956.5,-224 950.5,-218 950.5,-212 950.5,-212 950.5,-200 950.5,-200 950.5,-194 956.5,-188 962.5,-188 962.5,-188 1059.5,-188 1059.5,-188 1065.5,-188 1071.5,-194 1071.5,-200 1071.5,-200 1071.5,-212 1071.5,-212 1071.5,-218 1065.5,-224 1059.5,-224"/>
<text xml:space="preserve" text-anchor="middle" x="1011" y="-201.75" font-family="Consolas" font-size="10.00">GeoProcessCollisions</text>
</a>
</g>
</g>
<!-- GeoResolveContacts&#45;&gt;GeoProcessCollisions -->
<g id="edge26" class="edge">
<title>GeoResolveContacts&#45;&gt;GeoProcessCollisions</title>
<path fill="none" stroke="#505050" d="M1011,-269.45C1011,-259.52 1011,-246.81 1011,-235.45"/>
<polygon fill="#505050" stroke="#505050" points="1014.5,-235.78 1011,-225.78 1007.5,-235.78 1014.5,-235.78"/>
<text xml:space="preserve" text-anchor="middle" x="1037.25" y="-243.2" font-family="Consolas" font-size="9.00">per source</text>
</g>
<!-- GeoRecordAfterResolveDiagnostics -->
<g id="node21" class="node">
<title>GeoRecordAfterResolveDiagnostics</title>
<g id="a_node21"><a xlink:href="vscode://file/C:/_DJ/gPCD/python/base/ShadowBase.py:490:1" xlink:title="Open GeoRecordAfterResolveDiagnostics in VS Code" target="_blank">
<path fill="#f8f8f8" stroke="#606060" d="M1262,-224C1262,-224 1102,-224 1102,-224 1096,-224 1090,-218 1090,-212 1090,-212 1090,-200 1090,-200 1090,-194 1096,-188 1102,-188 1102,-188 1262,-188 1262,-188 1268,-188 1274,-194 1274,-200 1274,-200 1274,-212 1274,-212 1274,-218 1268,-224 1262,-224"/>
<text xml:space="preserve" text-anchor="middle" x="1182" y="-201.75" font-family="Consolas" font-size="10.00">GeoRecordAfterResolveDiagnostics</text>
</a>
</g>
</g>
<!-- GeoResolveContacts&#45;&gt;GeoRecordAfterResolveDiagnostics -->
<g id="edge10" class="edge">
<title>GeoResolveContacts&#45;&gt;GeoRecordAfterResolveDiagnostics</title>
<path fill="none" stroke="#505050" d="M1048.1,-269.45C1073.45,-257.62 1107.26,-241.86 1134.56,-229.13"/>
<polygon fill="#505050" stroke="#505050" points="1135.72,-232.45 1143.3,-225.05 1132.76,-226.1 1135.72,-232.45"/>
</g>
<!-- GeoProcessCollisions&#45;&gt;GeoPlannedContactImpulses -->
<g id="edge27" class="edge">
<title>GeoProcessCollisions&#45;&gt;GeoPlannedContactImpulses</title>
<path fill="none" stroke="#505050" d="M950.17,-206C933.58,-206 915.3,-206 897.61,-206"/>
<polygon fill="#505050" stroke="#505050" points="897.61,-202.5 887.61,-206 897.61,-209.5 897.61,-202.5"/>
<text xml:space="preserve" text-anchor="middle" x="918.06" y="-210.2" font-family="Consolas" font-size="9.00">read plan</text>
</g>
<!-- GeoVelocityAngle -->
<g id="node31" class="node">
<title>GeoVelocityAngle</title>
<g id="a_node31"><a xlink:href="vscode://file/C:/_DJ/gPCD/python/base/ShadowBase.py:117:1" xlink:title="Open GeoVelocityAngle in VS Code" target="_blank">
<path fill="#f8f8f8" stroke="#606060" d="M831,-125C831,-125 755,-125 755,-125 749,-125 743,-119 743,-113 743,-113 743,-101 743,-101 743,-95 749,-89 755,-89 755,-89 831,-89 831,-89 837,-89 843,-95 843,-101 843,-101 843,-113 843,-113 843,-119 837,-125 831,-125"/>
<text xml:space="preserve" text-anchor="middle" x="793" y="-102.75" font-family="Consolas" font-size="10.00">GeoVelocityAngle</text>
</a>
</g>
</g>
<!-- GeoProcessCollisions&#45;&gt;GeoVelocityAngle -->
<g id="edge28" class="edge">
<title>GeoProcessCollisions&#45;&gt;GeoVelocityAngle</title>
<path fill="none" stroke="#505050" d="M971.77,-187.55C935.62,-171.46 881.79,-147.51 842.65,-130.09"/>
<polygon fill="#505050" stroke="#505050" points="844.22,-126.96 833.66,-126.09 841.37,-133.36 844.22,-126.96"/>
<text xml:space="preserve" text-anchor="middle" x="948.94" y="-161.45" font-family="Consolas" font-size="9.00">VelRad.w</text>
</g>
<!-- GeoMoveParticles -->
<g id="node22" class="node">
<title>GeoMoveParticles</title>
<g id="a_node22"><a xlink:href="vscode://file/C:/_DJ/gPCD/python/base/ShadowBase.py:545:1" xlink:title="Open GeoMoveParticles in VS Code" target="_blank">
<path fill="#f8f8f8" stroke="#606060" d="M1220,-125C1220,-125 1144,-125 1144,-125 1138,-125 1132,-119 1132,-113 1132,-113 1132,-101 1132,-101 1132,-95 1138,-89 1144,-89 1144,-89 1220,-89 1220,-89 1226,-89 1232,-95 1232,-101 1232,-101 1232,-113 1232,-113 1232,-119 1226,-125 1220,-125"/>
<text xml:space="preserve" text-anchor="middle" x="1182" y="-102.75" font-family="Consolas" font-size="10.00">GeoMoveParticles</text>
</a>
</g>
</g>
<!-- GeoRecordAfterResolveDiagnostics&#45;&gt;GeoMoveParticles -->
<g id="edge11" class="edge">
<title>GeoRecordAfterResolveDiagnostics&#45;&gt;GeoMoveParticles</title>
<path fill="none" stroke="#505050" d="M1182,-187.66C1182,-173.45 1182,-153.06 1182,-136.46"/>
<polygon fill="#505050" stroke="#505050" points="1185.5,-136.71 1182,-126.71 1178.5,-136.71 1185.5,-136.71"/>
</g>
<!-- GeoEndFrame -->
<g id="node23" class="node">
<title>GeoEndFrame</title>
<g id="a_node23"><a xlink:href="vscode://file/C:/_DJ/gPCD/python/base/ShadowBase.py:556:1" xlink:title="Open GeoEndFrame in VS Code" target="_blank">
<path fill="#f8f8f8" stroke="#606060" d="M1206.88,-52C1206.88,-52 1157.12,-52 1157.12,-52 1151.12,-52 1145.12,-46 1145.12,-40 1145.12,-40 1145.12,-28 1145.12,-28 1145.12,-22 1151.12,-16 1157.12,-16 1157.12,-16 1206.88,-16 1206.88,-16 1212.88,-16 1218.88,-22 1218.88,-28 1218.88,-28 1218.88,-40 1218.88,-40 1218.88,-46 1212.88,-52 1206.88,-52"/>
<text xml:space="preserve" text-anchor="middle" x="1182" y="-29.75" font-family="Consolas" font-size="10.00">GeoEndFrame</text>
</a>
</g>
</g>
<!-- GeoMoveParticles&#45;&gt;GeoEndFrame -->
<g id="edge12" class="edge">
<title>GeoMoveParticles&#45;&gt;GeoEndFrame</title>
<path fill="none" stroke="#505050" d="M1182,-88.81C1182,-81.23 1182,-72.1 1182,-63.54"/>
<polygon fill="#505050" stroke="#505050" points="1185.5,-63.54 1182,-53.54 1178.5,-63.54 1185.5,-63.54"/>
</g>
<!-- report_frame_momentum -->
<g id="node25" class="node">
<title>report_frame_momentum</title>
<g id="a_node25"><a xlink:href="vscode://file/C:/_DJ/gPCD/python/base/Reporting.py:79:1" xlink:title="Open Reporting.report_frame_momentum in VS Code" target="_blank">
<path fill="#f8f8f8" stroke="#606060" d="M811.38,-886C811.38,-886 656.62,-886 656.62,-886 650.62,-886 644.62,-880 644.62,-874 644.62,-874 644.62,-862 644.62,-862 644.62,-856 650.62,-850 656.62,-850 656.62,-850 811.38,-850 811.38,-850 817.38,-850 823.38,-856 823.38,-862 823.38,-862 823.38,-874 823.38,-874 823.38,-880 817.38,-886 811.38,-886"/>
<text xml:space="preserve" text-anchor="middle" x="734" y="-863.75" font-family="Consolas" font-size="10.00">Reporting.report_frame_momentum</text>
</a>
</g>
</g>
<!-- _report_particles&#45;&gt;report_frame_momentum -->
<g id="edge30" class="edge">
<title>_report_particles&#45;&gt;report_frame_momentum</title>
<path fill="none" stroke="#505050" d="M503.9,-933.84C548.22,-921.35 611.95,-903.39 661.11,-889.54"/>
<polygon fill="#505050" stroke="#505050" points="661.86,-892.97 670.54,-886.88 659.96,-886.23 661.86,-892.97"/>
<text xml:space="preserve" text-anchor="middle" x="640.94" y="-905.2" font-family="Consolas" font-size="9.00">momentum.csv</text>
</g>
<!-- report_contacts -->
<g id="node26" class="node">
<title>report_contacts</title>
<g id="a_node26"><a xlink:href="vscode://file/C:/_DJ/gPCD/python/base/Reporting.py:177:1" xlink:title="Open Reporting.report_contacts in VS Code" target="_blank">
<path fill="#f8f8f8" stroke="#606060" d="M449.62,-886C449.62,-886 326.38,-886 326.38,-886 320.38,-886 314.38,-880 314.38,-874 314.38,-874 314.38,-862 314.38,-862 314.38,-856 320.38,-850 326.38,-850 326.38,-850 449.62,-850 449.62,-850 455.62,-850 461.62,-856 461.62,-862 461.62,-862 461.62,-874 461.62,-874 461.62,-880 455.62,-886 449.62,-886"/>
<text xml:space="preserve" text-anchor="middle" x="388" y="-863.75" font-family="Consolas" font-size="10.00">Reporting.report_contacts</text>
</a>
</g>
</g>
<!-- _report_particles&#45;&gt;report_contacts -->
<g id="edge31" class="edge">
<title>_report_particles&#45;&gt;report_contacts</title>
<path fill="none" stroke="#505050" d="M437.33,-931.45C428.91,-920.79 417.95,-906.92 408.51,-894.96"/>
<polygon fill="#505050" stroke="#505050" points="411.53,-893.14 402.58,-887.46 406.03,-897.48 411.53,-893.14"/>
<text xml:space="preserve" text-anchor="middle" x="454.77" y="-905.2" font-family="Consolas" font-size="9.00">contacts.csv</text>
</g>
<!-- report_particle -->
<g id="node27" class="node">
<title>report_particle</title>
<g id="a_node27"><a xlink:href="vscode://file/C:/_DJ/gPCD/python/base/Reporting.py:135:1" xlink:title="Open Reporting.report_particle in VS Code" target="_blank">
<path fill="#f8f8f8" stroke="#606060" d="M614.62,-886C614.62,-886 491.38,-886 491.38,-886 485.38,-886 479.38,-880 479.38,-874 479.38,-874 479.38,-862 479.38,-862 479.38,-856 485.38,-850 491.38,-850 491.38,-850 614.62,-850 614.62,-850 620.62,-850 626.62,-856 626.62,-862 626.62,-862 626.62,-874 626.62,-874 626.62,-880 620.62,-886 614.62,-886"/>
<text xml:space="preserve" text-anchor="middle" x="553" y="-863.75" font-family="Consolas" font-size="10.00">Reporting.report_particle</text>
</a>
</g>
</g>
<!-- _report_particles&#45;&gt;report_particle -->
<g id="edge32" class="edge">
<title>_report_particles&#45;&gt;report_particle</title>
<path fill="none" stroke="#505050" d="M473.13,-931.45C487.43,-920.26 506.25,-905.55 522.03,-893.21"/>
<polygon fill="#505050" stroke="#505050" points="524,-896.12 529.72,-887.2 519.68,-890.61 524,-896.12"/>
<text xml:space="preserve" text-anchor="middle" x="523.86" y="-905.2" font-family="Consolas" font-size="9.00">pN.csv</text>
</g>
<!-- CaptureCSV -->
<g id="node28" class="node">
<title>CaptureCSV</title>
<polygon fill="#f8f8f8" stroke="#606060" points="644.25,-813 455.75,-813 455.75,-777 650.25,-777 650.25,-807 644.25,-813"/>
<polyline fill="none" stroke="#606060" points="644.25,-813 644.25,-807"/>
<polyline fill="none" stroke="#606060" points="650.25,-807 644.25,-807"/>
<text xml:space="preserve" text-anchor="middle" x="553" y="-790.75" font-family="Consolas" font-size="10.00">momentum / contacts / particle CSV</text>
</g>
<!-- report_frame_momentum&#45;&gt;CaptureCSV -->
<g id="edge33" class="edge">
<title>report_frame_momentum&#45;&gt;CaptureCSV</title>
<path fill="none" stroke="#505050" d="M689.72,-849.63C665.07,-839.96 634.16,-827.84 607.98,-817.56"/>
<polygon fill="#505050" stroke="#505050" points="609.44,-814.38 598.86,-813.99 606.89,-820.9 609.44,-814.38"/>
</g>
<!-- report_contacts&#45;&gt;CaptureCSV -->
<g id="edge34" class="edge">
<title>report_contacts&#45;&gt;CaptureCSV</title>
<path fill="none" stroke="#505050" d="M428.36,-849.63C450.54,-840.09 478.26,-828.16 501.93,-817.98"/>
<polygon fill="#505050" stroke="#505050" points="503.29,-821.2 511.09,-814.03 500.52,-814.77 503.29,-821.2"/>
</g>
<!-- report_particle&#45;&gt;CaptureCSV -->
<g id="edge35" class="edge">
<title>report_particle&#45;&gt;CaptureCSV</title>
<path fill="none" stroke="#505050" d="M553,-849.81C553,-842.23 553,-833.1 553,-824.54"/>
<polygon fill="#505050" stroke="#505050" points="556.5,-824.54 553,-814.54 549.5,-824.54 556.5,-824.54"/>
</g>
</g>
</svg>
