<?xml version="1.0" encoding="UTF-8" standalone="no"?>
<!DOCTYPE svg PUBLIC "-//W3C//DTD SVG 1.1//EN"
 "http://www.w3.org/Graphics/SVG/1.1/DTD/svg11.dtd">
<!-- Generated by graphviz version 15.0.0 (20260523.1842)
 -->
<!-- Title: ShadowSystemFlow Pages: 1 -->
<svg width="1077pt" height="1411pt"
 viewBox="0.00 0.00 1077.00 1411.00" xmlns="http://www.w3.org/2000/svg" xmlns:xlink="http://www.w3.org/1999/xlink">
<g id="graph0" class="graph" transform="scale(1 1) rotate(0) translate(4 1407)">
<title>ShadowSystemFlow</title>
<polygon fill="white" stroke="none" points="-4,4 -4,-1407 1073,-1407 1073,4 -4,4"/>
<g id="clust1" class="cluster">
<title>cluster_frame_setup</title>
<path fill="white" stroke="#c8c8c8" d="M201,-1023C201,-1023 341,-1023 341,-1023 347,-1023 353,-1029 353,-1035 353,-1035 353,-1383 353,-1383 353,-1389 347,-1395 341,-1395 341,-1395 201,-1395 201,-1395 195,-1395 189,-1389 189,-1383 189,-1383 189,-1035 189,-1035 189,-1029 195,-1023 201,-1023"/>
<text xml:space="preserve" text-anchor="middle" x="271" y="-1380.55" font-family="Consolas" font-size="11.00">Frame Setup</text>
</g>
<g id="clust2" class="cluster">
<title>cluster_contact_detection</title>
<path fill="white" stroke="#c8c8c8" d="M20,-235.75C20,-235.75 320,-235.75 320,-235.75 326,-235.75 332,-241.75 332,-247.75 332,-247.75 332,-983.25 332,-983.25 332,-989.25 326,-995.25 320,-995.25 320,-995.25 20,-995.25 20,-995.25 14,-995.25 8,-989.25 8,-983.25 8,-983.25 8,-247.75 8,-247.75 8,-241.75 14,-235.75 20,-235.75"/>
<text xml:space="preserve" text-anchor="middle" x="170" y="-980.8" font-family="Consolas" font-size="11.00">Contact Detection</text>
</g>
<g id="clust3" class="cluster">
<title>cluster_planning</title>
<path fill="white" stroke="#c8c8c8" d="M589,-8C589,-8 1049,-8 1049,-8 1055,-8 1061,-14 1061,-20 1061,-20 1061,-893 1061,-893 1061,-899 1055,-905 1049,-905 1049,-905 589,-905 589,-905 583,-905 577,-899 577,-893 577,-893 577,-20 577,-20 577,-14 583,-8 589,-8"/>
<text xml:space="preserve" text-anchor="middle" x="819" y="-890.55" font-family="Consolas" font-size="11.00">Impulse Planning</text>
</g>
<g id="clust4" class="cluster">
<title>cluster_resolution</title>
<path fill="white" stroke="#c8c8c8" d="M391,-81C391,-81 557,-81 557,-81 563,-81 569,-87 569,-93 569,-93 569,-449.75 569,-449.75 569,-455.75 563,-461.75 557,-461.75 557,-461.75 391,-461.75 391,-461.75 385,-461.75 379,-455.75 379,-449.75 379,-449.75 379,-93 379,-93 379,-87 385,-81 391,-81"/>
<text xml:space="preserve" text-anchor="middle" x="474" y="-447.3" font-family="Consolas" font-size="11.00">Source&#45;Owned Resolution</text>
</g>
<g id="clust5" class="cluster">
<title>cluster_motion</title>
<path fill="white" stroke="#c8c8c8" d="M352,-734.75C352,-734.75 557,-734.75 557,-734.75 563,-734.75 569,-740.75 569,-746.75 569,-746.75 569,-794 569,-794 569,-800 563,-806 557,-806 557,-806 352,-806 352,-806 346,-806 340,-800 340,-794 340,-794 340,-746.75 340,-746.75 340,-740.75 346,-734.75 352,-734.75"/>
<text xml:space="preserve" text-anchor="middle" x="454.5" y="-791.55" font-family="Consolas" font-size="11.00">Motion</text>
</g>
<!-- Start -->
<g id="node1" class="node">
<title>Start</title>
<g id="a_node1"><a xlink:href="vscode://file/C:/_DJ/gPCD/docs/Dynamics/SourceDocumentation.tex:69:1" xlink:title="Open documentation for Start Frame" target="_blank">
<ellipse fill="#eaf8ea" stroke="#606060" cx="271" cy="-1349.75" rx="42.99" ry="18"/>
<text xml:space="preserve" text-anchor="middle" x="271" y="-1345.5" font-family="Consolas" font-size="10.00">Start Frame</text>
</a>
</g>
</g>
<!-- BeginFrame -->
<g id="node2" class="node">
<title>BeginFrame</title>
<g id="a_node2"><a xlink:href="vscode://file/C:/_DJ/gPCD/docs/Dynamics/SourceDocumentation.tex:77:1" xlink:title="Open documentation for Begin Frame" target="_blank">
<path fill="#f8f8f8" stroke="#606060" d="M295.88,-1294.75C295.88,-1294.75 246.12,-1294.75 246.12,-1294.75 240.12,-1294.75 234.12,-1288.75 234.12,-1282.75 234.12,-1282.75 234.12,-1270.75 234.12,-1270.75 234.12,-1264.75 240.12,-1258.75 246.12,-1258.75 246.12,-1258.75 295.88,-1258.75 295.88,-1258.75 301.88,-1258.75 307.88,-1264.75 307.88,-1270.75 307.88,-1270.75 307.88,-1282.75 307.88,-1282.75 307.88,-1288.75 301.88,-1294.75 295.88,-1294.75"/>
<text xml:space="preserve" text-anchor="middle" x="271" y="-1272.5" font-family="Consolas" font-size="10.00">Begin Frame</text>
</a>
</g>
</g>
<!-- Start&#45;&gt;BeginFrame -->
<g id="edge1" class="edge">
<title>Start&#45;&gt;BeginFrame</title>
<path fill="none" stroke="#505050" d="M271,-1331.56C271,-1323.98 271,-1314.85 271,-1306.29"/>
<polygon fill="#505050" stroke="#505050" points="274.5,-1306.29 271,-1296.29 267.5,-1306.29 274.5,-1306.29"/>
</g>
<!-- ResetFrame -->
<g id="node3" class="node">
<title>ResetFrame</title>
<g id="a_node3"><a xlink:href="vscode://file/C:/_DJ/gPCD/docs/Dynamics/SourceDocumentation.tex:91:1" xlink:title="Open documentation for Reset Frame State" target="_blank">
<path fill="#f8f8f8" stroke="#606060" d="M311.62,-1221.75C311.62,-1221.75 230.38,-1221.75 230.38,-1221.75 224.38,-1221.75 218.38,-1215.75 218.38,-1209.75 218.38,-1209.75 218.38,-1197.75 218.38,-1197.75 218.38,-1191.75 224.38,-1185.75 230.38,-1185.75 230.38,-1185.75 311.62,-1185.75 311.62,-1185.75 317.62,-1185.75 323.62,-1191.75 323.62,-1197.75 323.62,-1197.75 323.62,-1209.75 323.62,-1209.75 323.62,-1215.75 317.62,-1221.75 311.62,-1221.75"/>
<text xml:space="preserve" text-anchor="middle" x="271" y="-1199.5" font-family="Consolas" font-size="10.00">Reset Frame State</text>
</a>
</g>
</g>
<!-- BeginFrame&#45;&gt;ResetFrame -->
<g id="edge2" class="edge">
<title>BeginFrame&#45;&gt;ResetFrame</title>
<path fill="none" stroke="#505050" d="M271,-1258.56C271,-1250.98 271,-1241.85 271,-1233.29"/>
<polygon fill="#505050" stroke="#505050" points="274.5,-1233.29 271,-1223.29 267.5,-1233.29 274.5,-1233.29"/>
</g>
<!-- BuildSnapshot -->
<g id="node4" class="node">
<title>BuildSnapshot</title>
<g id="a_node4"><a xlink:href="vscode://file/C:/_DJ/gPCD/docs/Dynamics/SourceDocumentation.tex:188:1" xlink:title="Open documentation for Build Frame Snapshot" target="_blank">
<path fill="#f8f8f8" stroke="#606060" d="M319.5,-1148.75C319.5,-1148.75 222.5,-1148.75 222.5,-1148.75 216.5,-1148.75 210.5,-1142.75 210.5,-1136.75 210.5,-1136.75 210.5,-1124.75 210.5,-1124.75 210.5,-1118.75 216.5,-1112.75 222.5,-1112.75 222.5,-1112.75 319.5,-1112.75 319.5,-1112.75 325.5,-1112.75 331.5,-1118.75 331.5,-1124.75 331.5,-1124.75 331.5,-1136.75 331.5,-1136.75 331.5,-1142.75 325.5,-1148.75 319.5,-1148.75"/>
<text xml:space="preserve" text-anchor="middle" x="271" y="-1126.5" font-family="Consolas" font-size="10.00">Build Frame Snapshot</text>
</a>
</g>
</g>
<!-- ResetFrame&#45;&gt;BuildSnapshot -->
<g id="edge3" class="edge">
<title>ResetFrame&#45;&gt;BuildSnapshot</title>
<path fill="none" stroke="#505050" d="M271,-1185.56C271,-1177.98 271,-1168.85 271,-1160.29"/>
<polygon fill="#505050" stroke="#505050" points="274.5,-1160.29 271,-1150.29 267.5,-1160.29 274.5,-1160.29"/>
</g>
<!-- FrameSnapshotData -->
<g id="node5" class="node">
<title>FrameSnapshotData</title>
<g id="a_node5"><a xlink:href="vscode://file/C:/_DJ/gPCD/docs/Dynamics/ParticleGeometry.tex:299:1" xlink:title="Open documentation for PosLocFrame / VelRadFrame" target="_blank">
<path fill="#eaf3ff" stroke="#606060" d="M344.62,-1063.73C344.62,-1065.53 311.63,-1067 271,-1067 230.37,-1067 197.38,-1065.53 197.38,-1063.73 197.38,-1063.73 197.38,-1034.27 197.38,-1034.27 197.38,-1032.47 230.37,-1031 271,-1031 311.63,-1031 344.62,-1032.47 344.62,-1034.27 344.62,-1034.27 344.62,-1063.73 344.62,-1063.73"/>
<path fill="none" stroke="#606060" d="M344.62,-1063.73C344.62,-1061.92 311.63,-1060.45 271,-1060.45 230.37,-1060.45 197.38,-1061.92 197.38,-1063.73"/>
<text xml:space="preserve" text-anchor="middle" x="271" y="-1044.75" font-family="Consolas" font-size="10.00">PosLocFrame / VelRadFrame</text>
</a>
</g>
</g>
<!-- BuildSnapshot&#45;&gt;FrameSnapshotData -->
<g id="edge4" class="edge">
<title>BuildSnapshot&#45;&gt;FrameSnapshotData</title>
<path fill="none" stroke="#505050" d="M271,-1112.45C271,-1102.52 271,-1089.81 271,-1078.45"/>
<polygon fill="#505050" stroke="#505050" points="274.5,-1078.78 271,-1068.78 267.5,-1078.78 274.5,-1078.78"/>
<text xml:space="preserve" text-anchor="middle" x="284.12" y="-1086.2" font-family="Consolas" font-size="9.00">write</text>
</g>
<!-- SourceLoop -->
<g id="node6" class="node">
<title>SourceLoop</title>
<g id="a_node6"><a xlink:href="vscode://file/C:/_DJ/gPCD/docs/Dynamics/ProgrammingStyle.tex:68:1" xlink:title="Open documentation for For each SourceID" target="_blank">
<path fill="#f8f8f8" stroke="#606060" d="M311.62,-968C311.62,-968 230.38,-968 230.38,-968 224.38,-968 218.38,-962 218.38,-956 218.38,-956 218.38,-944 218.38,-944 218.38,-938 224.38,-932 230.38,-932 230.38,-932 311.62,-932 311.62,-932 317.62,-932 323.62,-938 323.62,-944 323.62,-944 323.62,-956 323.62,-956 323.62,-962 317.62,-968 311.62,-968"/>
<text xml:space="preserve" text-anchor="middle" x="271" y="-945.75" font-family="Consolas" font-size="10.00">For each SourceID</text>
</a>
</g>
</g>
<!-- FrameSnapshotData&#45;&gt;SourceLoop -->
<g id="edge5" class="edge">
<title>FrameSnapshotData&#45;&gt;SourceLoop</title>
<path fill="none" stroke="#505050" d="M271,-1030.66C271,-1016.45 271,-996.06 271,-979.46"/>
<polygon fill="#505050" stroke="#505050" points="274.5,-979.71 271,-969.71 267.5,-979.71 274.5,-979.71"/>
<text xml:space="preserve" text-anchor="middle" x="307.75" y="-1004.45" font-family="Consolas" font-size="9.00">snapshot ready</text>
</g>
<!-- SourceActive -->
<g id="node7" class="node">
<title>SourceActive</title>
<g id="a_node7"><a xlink:href="vscode://file/C:/_DJ/gPCD/docs/Dynamics/SourceDocumentation.tex:249:1" xlink:title="Open documentation for Source active?" target="_blank">
<path fill="#fff6d8" stroke="#606060" d="M238.34,-874.91C238.34,-874.91 187.89,-862.59 187.89,-862.59 182.06,-861.17 182.06,-858.33 187.89,-856.91 187.89,-856.91 238.34,-844.59 238.34,-844.59 244.17,-843.17 255.83,-843.17 261.66,-844.59 261.66,-844.59 312.11,-856.91 312.11,-856.91 317.94,-858.33 317.94,-861.17 312.11,-862.59 312.11,-862.59 261.66,-874.91 261.66,-874.91 255.83,-876.33 244.17,-876.33 238.34,-874.91"/>
<text xml:space="preserve" text-anchor="middle" x="250" y="-855.5" font-family="Consolas" font-size="10.00">Source active?</text>
</a>
</g>
</g>
<!-- SourceLoop&#45;&gt;SourceActive -->
<g id="edge6" class="edge">
<title>SourceLoop&#45;&gt;SourceActive</title>
<path fill="none" stroke="#505050" d="M266.85,-931.56C263.92,-919.24 259.93,-902.47 256.57,-888.34"/>
<polygon fill="#505050" stroke="#505050" points="260,-887.64 254.28,-878.73 253.19,-889.26 260,-887.64"/>
</g>
<!-- EndFrame -->
<g id="node35" class="node">
<title>EndFrame</title>
<g id="a_node35"><a xlink:href="vscode://file/C:/_DJ/gPCD/docs/Dynamics/SourceDocumentation.tex:172:1" xlink:title="Open documentation for End Frame" target="_blank">
<ellipse fill="#eaf8ea" stroke="#606060" cx="385" cy="-760.75" rx="36.87" ry="18"/>
<text xml:space="preserve" text-anchor="middle" x="385" y="-756.5" font-family="Consolas" font-size="10.00">End Frame</text>
</a>
</g>
</g>
<!-- SourceLoop&#45;&gt;EndFrame -->
<g id="edge43" class="edge">
<title>SourceLoop&#45;&gt;EndFrame</title>
<path fill="none" stroke="#505050" d="M303.1,-931.59C313.79,-924.51 325,-915.5 333,-905 359.46,-870.25 373.42,-820.75 380,-789.97"/>
<polygon fill="#505050" stroke="#505050" points="383.41,-790.76 381.94,-780.27 376.54,-789.38 383.41,-790.76"/>
<text xml:space="preserve" text-anchor="middle" x="407.48" y="-856.08" font-family="Consolas" font-size="9.00">all sources done</text>
</g>
<!-- TargetLoop -->
<g id="node8" class="node">
<title>TargetLoop</title>
<g id="a_node8"><a xlink:href="vscode://file/C:/_DJ/gPCD/docs/Dynamics/SourceDocumentation.tex:255:1" xlink:title="Open documentation for For each TargetID" target="_blank">
<path fill="#f8f8f8" stroke="#606060" d="M303.62,-778.75C303.62,-778.75 222.38,-778.75 222.38,-778.75 216.38,-778.75 210.38,-772.75 210.38,-766.75 210.38,-766.75 210.38,-754.75 210.38,-754.75 210.38,-748.75 216.38,-742.75 222.38,-742.75 222.38,-742.75 303.62,-742.75 303.62,-742.75 309.62,-742.75 315.62,-748.75 315.62,-754.75 315.62,-754.75 315.62,-766.75 315.62,-766.75 315.62,-772.75 309.62,-778.75 303.62,-778.75"/>
<text xml:space="preserve" text-anchor="middle" x="263" y="-756.5" font-family="Consolas" font-size="10.00">For each TargetID</text>
</a>
</g>
</g>
<!-- SourceActive&#45;&gt;TargetLoop -->
<g id="edge7" class="edge">
<title>SourceActive&#45;&gt;TargetLoop</title>
<path fill="none" stroke="#505050" d="M252.26,-841.85C254.16,-827.7 256.91,-807.19 259.15,-790.47"/>
<polygon fill="#505050" stroke="#505050" points="262.61,-790.98 260.47,-780.61 255.68,-790.05 262.61,-790.98"/>
<text xml:space="preserve" text-anchor="middle" x="263.6" y="-815.2" font-family="Consolas" font-size="9.00">yes</text>
</g>
<!-- MoveParticle -->
<g id="node34" class="node">
<title>MoveParticle</title>
<g id="a_node34"><a xlink:href="vscode://file/C:/_DJ/gPCD/docs/Dynamics/SourceDocumentation.tex:172:1" xlink:title="Open documentation for Move source particle" target="_blank">
<path fill="#f8f8f8" stroke="#606060" d="M548.5,-778.75C548.5,-778.75 451.5,-778.75 451.5,-778.75 445.5,-778.75 439.5,-772.75 439.5,-766.75 439.5,-766.75 439.5,-754.75 439.5,-754.75 439.5,-748.75 445.5,-742.75 451.5,-742.75 451.5,-742.75 548.5,-742.75 548.5,-742.75 554.5,-742.75 560.5,-748.75 560.5,-754.75 560.5,-754.75 560.5,-766.75 560.5,-766.75 560.5,-772.75 554.5,-778.75 548.5,-778.75"/>
<text xml:space="preserve" text-anchor="middle" x="500" y="-756.5" font-family="Consolas" font-size="10.00">Move source particle</text>
</a>
</g>
</g>
<!-- SourceActive&#45;&gt;MoveParticle -->
<g id="edge8" class="edge">
<title>SourceActive&#45;&gt;MoveParticle</title>
<path fill="none" stroke="#505050" d="M288.93,-850.81C326.38,-842.39 384.08,-827.35 431,-806 443.42,-800.35 456.22,-792.72 467.37,-785.39"/>
<polygon fill="#505050" stroke="#505050" points="469.12,-788.43 475.44,-779.93 465.2,-782.64 469.12,-788.43"/>
<text xml:space="preserve" text-anchor="middle" x="417.47" y="-815.2" font-family="Consolas" font-size="9.00">no</text>
</g>
<!-- TargetValid -->
<g id="node9" class="node">
<title>TargetValid</title>
<g id="a_node9"><a xlink:href="vscode://file/C:/_DJ/gPCD/docs/Dynamics/SourceDocumentation.tex:255:1" xlink:title="Open documentation for Target valid and not source?" target="_blank">
<path fill="#fff6d8" stroke="#606060" d="M138.11,-695.41C138.11,-695.41 27.54,-680.59 27.54,-680.59 21.59,-679.8 21.59,-678.2 27.54,-677.41 27.54,-677.41 138.11,-662.59 138.11,-662.59 144.05,-661.8 155.95,-661.8 161.89,-662.59 161.89,-662.59 272.46,-677.41 272.46,-677.41 278.41,-678.2 278.41,-679.8 272.46,-680.59 272.46,-680.59 161.89,-695.41 161.89,-695.41 155.95,-696.2 144.05,-696.2 138.11,-695.41"/>
<text xml:space="preserve" text-anchor="middle" x="150" y="-674.75" font-family="Consolas" font-size="10.00">Target valid and not source?</text>
</a>
</g>
</g>
<!-- TargetLoop&#45;&gt;TargetValid -->
<g id="edge9" class="edge">
<title>TargetLoop&#45;&gt;TargetValid</title>
<path fill="none" stroke="#505050" d="M258.39,-742.54C255.14,-733.31 249.93,-722.35 242,-715 232.7,-706.37 221.05,-699.8 209.2,-694.83"/>
<polygon fill="#505050" stroke="#505050" points="210.8,-691.69 200.21,-691.39 208.3,-698.23 210.8,-691.69"/>
</g>
<!-- HasContacts -->
<g id="node15" class="node">
<title>HasContacts</title>
<g id="a_node15"><a xlink:href="vscode://file/C:/_DJ/gPCD/docs/Dynamics/SourceDocumentation.tex:314:1" xlink:title="Open documentation for Source has contacts?" target="_blank">
<path fill="#fff6d8" stroke="#606060" d="M673.19,-875.62C673.19,-875.62 597.07,-861.88 597.07,-861.88 591.17,-860.82 591.17,-858.68 597.07,-857.62 597.07,-857.62 673.19,-843.88 673.19,-843.88 679.1,-842.82 690.9,-842.82 696.81,-843.88 696.81,-843.88 772.93,-857.62 772.93,-857.62 778.83,-858.68 778.83,-860.82 772.93,-861.88 772.93,-861.88 696.81,-875.62 696.81,-875.62 690.9,-876.68 679.1,-876.68 673.19,-875.62"/>
<text xml:space="preserve" text-anchor="middle" x="685" y="-855.5" font-family="Consolas" font-size="10.00">Source has contacts?</text>
</a>
</g>
</g>
<!-- TargetLoop&#45;&gt;HasContacts -->
<g id="edge18" class="edge">
<title>TargetLoop&#45;&gt;HasContacts</title>
<path fill="none" stroke="#505050" d="M285.66,-779.22C299.44,-788.86 317.83,-800.05 336,-806 374.59,-818.63 386.74,-808.75 427,-814 496.51,-823.07 575.88,-837.45 628.02,-847.45"/>
<polygon fill="#505050" stroke="#505050" points="627.07,-850.83 637.55,-849.29 628.4,-843.96 627.07,-850.83"/>
<text xml:space="preserve" text-anchor="middle" x="532.97" y="-815.2" font-family="Consolas" font-size="9.00">target scan done</text>
</g>
<!-- TargetValid&#45;&gt;TargetLoop -->
<g id="edge11" class="edge">
<title>TargetValid&#45;&gt;TargetLoop</title>
<path fill="none" stroke="#505050" d="M147.3,-696.96C146.8,-706.11 147.86,-717.07 154,-724.75 165.26,-738.82 182.22,-747.32 199.42,-752.42"/>
<polygon fill="#505050" stroke="#505050" points="198.1,-755.7 208.66,-754.8 199.85,-748.92 198.1,-755.7"/>
<text xml:space="preserve" text-anchor="middle" x="196" y="-716.2" font-family="Consolas" font-size="9.00">no / next target</text>
</g>
<!-- DetectContact -->
<g id="node10" class="node">
<title>DetectContact</title>
<g id="a_node10"><a xlink:href="vscode://file/C:/_DJ/gPCD/docs/Dynamics/SourceDocumentation.tex:249:1" xlink:title="Open documentation for Detect particle contact" target="_blank">
<path fill="#f8f8f8" stroke="#606060" d="M202.38,-615.25C202.38,-615.25 89.62,-615.25 89.62,-615.25 83.62,-615.25 77.62,-609.25 77.62,-603.25 77.62,-603.25 77.62,-591.25 77.62,-591.25 77.62,-585.25 83.62,-579.25 89.62,-579.25 89.62,-579.25 202.38,-579.25 202.38,-579.25 208.38,-579.25 214.38,-585.25 214.38,-591.25 214.38,-591.25 214.38,-603.25 214.38,-603.25 214.38,-609.25 208.38,-615.25 202.38,-615.25"/>
<text xml:space="preserve" text-anchor="middle" x="146" y="-593" font-family="Consolas" font-size="10.00">Detect particle contact</text>
</a>
</g>
</g>
<!-- TargetValid&#45;&gt;DetectContact -->
<g id="edge10" class="edge">
<title>TargetValid&#45;&gt;DetectContact</title>
<path fill="none" stroke="#505050" d="M149.13,-660.7C148.63,-650.77 148,-638.06 147.43,-626.7"/>
<polygon fill="#505050" stroke="#505050" points="150.94,-626.84 146.94,-617.03 143.95,-627.2 150.94,-626.84"/>
<text xml:space="preserve" text-anchor="middle" x="156.11" y="-634.45" font-family="Consolas" font-size="9.00">yes</text>
</g>
<!-- ContactDecision -->
<g id="node11" class="node">
<title>ContactDecision</title>
<g id="a_node11"><a xlink:href="vscode://file/C:/_DJ/gPCD/docs/Dynamics/ParticleGeometry.tex:56:1" xlink:title="Open documentation for In contact?" target="_blank">
<path fill="#fff6d8" stroke="#606060" d="M157.49,-530.09C157.49,-530.09 119.72,-518.91 119.72,-518.91 113.96,-517.2 113.96,-513.8 119.72,-512.09 119.72,-512.09 157.49,-500.91 157.49,-500.91 163.25,-499.2 174.75,-499.2 180.51,-500.91 180.51,-500.91 218.28,-512.09 218.28,-512.09 224.04,-513.8 224.04,-517.2 218.28,-518.91 218.28,-518.91 180.51,-530.09 180.51,-530.09 174.75,-531.8 163.25,-531.8 157.49,-530.09"/>
<text xml:space="preserve" text-anchor="middle" x="169" y="-511.25" font-family="Consolas" font-size="10.00">In contact?</text>
</a>
</g>
</g>
<!-- DetectContact&#45;&gt;ContactDecision -->
<g id="edge12" class="edge">
<title>DetectContact&#45;&gt;ContactDecision</title>
<path fill="none" stroke="#505050" d="M150.99,-578.95C153.98,-568.57 157.85,-555.15 161.24,-543.42"/>
<polygon fill="#505050" stroke="#505050" points="164.58,-544.45 163.99,-533.87 157.86,-542.51 164.58,-544.45"/>
</g>
<!-- ContactDecision&#45;&gt;TargetLoop -->
<g id="edge14" class="edge">
<title>ContactDecision&#45;&gt;TargetLoop</title>
<path fill="none" stroke="#505050" d="M183.88,-529.37C196.39,-541.07 213.68,-559.49 223,-579.25 235.27,-605.25 214.98,-621.44 234,-643 252.13,-663.56 276.69,-638.97 293,-661 308.74,-682.26 296.35,-711.84 283.04,-733.07"/>
<polygon fill="#505050" stroke="#505050" points="280.25,-730.95 277.6,-741.21 286.07,-734.84 280.25,-730.95"/>
<text xml:space="preserve" text-anchor="middle" x="276" y="-634.45" font-family="Consolas" font-size="9.00">no / next target</text>
</g>
<!-- OverlapArea -->
<g id="node12" class="node">
<title>OverlapArea</title>
<g id="a_node12"><a xlink:href="vscode://file/C:/_DJ/gPCD/docs/Dynamics/ParticleGeometry.tex:93:1" xlink:title="Open documentation for Compute overlap area" target="_blank">
<path fill="#f8f8f8" stroke="#606060" d="M219.5,-434.5C219.5,-434.5 122.5,-434.5 122.5,-434.5 116.5,-434.5 110.5,-428.5 110.5,-422.5 110.5,-422.5 110.5,-410.5 110.5,-410.5 110.5,-404.5 116.5,-398.5 122.5,-398.5 122.5,-398.5 219.5,-398.5 219.5,-398.5 225.5,-398.5 231.5,-404.5 231.5,-410.5 231.5,-410.5 231.5,-422.5 231.5,-422.5 231.5,-428.5 225.5,-434.5 219.5,-434.5"/>
<text xml:space="preserve" text-anchor="middle" x="171" y="-412.25" font-family="Consolas" font-size="10.00">Compute overlap area</text>
</a>
</g>
</g>
<!-- ContactDecision&#45;&gt;OverlapArea -->
<g id="edge13" class="edge">
<title>ContactDecision&#45;&gt;OverlapArea</title>
<path fill="none" stroke="#505050" d="M169.36,-497.16C169.65,-482.95 170.07,-462.56 170.41,-445.96"/>
<polygon fill="#505050" stroke="#505050" points="173.91,-446.27 170.61,-436.2 166.91,-446.13 173.91,-446.27"/>
<text xml:space="preserve" text-anchor="middle" x="177.76" y="-470.95" font-family="Consolas" font-size="9.00">yes</text>
</g>
<!-- AddContact -->
<g id="node13" class="node">
<title>AddContact</title>
<g id="a_node13"><a xlink:href="vscode://file/C:/_DJ/gPCD/docs/Dynamics/SourceDocumentation.tex:277:1" xlink:title="Open documentation for Add directed contact slot" target="_blank">
<path fill="#f8f8f8" stroke="#606060" d="M233.62,-361.5C233.62,-361.5 110.38,-361.5 110.38,-361.5 104.38,-361.5 98.38,-355.5 98.38,-349.5 98.38,-349.5 98.38,-337.5 98.38,-337.5 98.38,-331.5 104.38,-325.5 110.38,-325.5 110.38,-325.5 233.62,-325.5 233.62,-325.5 239.62,-325.5 245.62,-331.5 245.62,-337.5 245.62,-337.5 245.62,-349.5 245.62,-349.5 245.62,-355.5 239.62,-361.5 233.62,-361.5"/>
<text xml:space="preserve" text-anchor="middle" x="172" y="-339.25" font-family="Consolas" font-size="10.00">Add directed contact slot</text>
</a>
</g>
</g>
<!-- OverlapArea&#45;&gt;AddContact -->
<g id="edge15" class="edge">
<title>OverlapArea&#45;&gt;AddContact</title>
<path fill="none" stroke="#505050" d="M171.24,-398.31C171.35,-390.73 171.48,-381.6 171.6,-373.04"/>
<polygon fill="#505050" stroke="#505050" points="175.1,-373.09 171.74,-363.04 168.1,-372.99 175.1,-373.09"/>
</g>
<!-- ContactListData -->
<g id="node14" class="node">
<title>ContactListData</title>
<g id="a_node14"><a xlink:href="vscode://file/C:/_DJ/gPCD/docs/Dynamics/SourceDocumentation.tex:291:1" xlink:title="Open documentation for collision_list / contact slots" target="_blank">
<path fill="#eaf3ff" stroke="#606060" d="M306.75,-276.48C306.75,-278.28 267.87,-279.75 220,-279.75 172.13,-279.75 133.25,-278.28 133.25,-276.48 133.25,-276.48 133.25,-247.02 133.25,-247.02 133.25,-245.22 172.13,-243.75 220,-243.75 267.87,-243.75 306.75,-245.22 306.75,-247.02 306.75,-247.02 306.75,-276.48 306.75,-276.48"/>
<path fill="none" stroke="#606060" d="M306.75,-276.48C306.75,-274.67 267.87,-273.2 220,-273.2 172.13,-273.2 133.25,-274.67 133.25,-276.48"/>
<text xml:space="preserve" text-anchor="middle" x="220" y="-257.5" font-family="Consolas" font-size="10.00">collision_list / contact slots</text>
</a>
</g>
</g>
<!-- AddContact&#45;&gt;ContactListData -->
<g id="edge16" class="edge">
<title>AddContact&#45;&gt;ContactListData</title>
<path fill="none" stroke="#505050" d="M182.42,-325.2C188.64,-314.85 196.69,-301.48 203.74,-289.77"/>
<polygon fill="#505050" stroke="#505050" points="206.67,-291.69 208.82,-281.32 200.67,-288.08 206.67,-291.69"/>
<text xml:space="preserve" text-anchor="middle" x="212" y="-298.95" font-family="Consolas" font-size="9.00">write</text>
</g>
<!-- ContactListData&#45;&gt;TargetLoop -->
<g id="edge17" class="edge">
<title>ContactListData&#45;&gt;TargetLoop</title>
<path fill="none" stroke="#505050" d="M237.13,-280.11C250.21,-295.27 266,-318.52 266,-342.5 266,-475.62 266,-475.62 266,-475.62 266,-553.52 328.65,-565.83 318,-643 312.84,-680.39 313.34,-691.76 295,-724.75 293.29,-727.82 291.27,-730.83 289.08,-733.73"/>
<polygon fill="#505050" stroke="#505050" points="286.44,-731.43 282.68,-741.34 291.8,-735.94 286.44,-731.43"/>
<text xml:space="preserve" text-anchor="middle" x="308.63" y="-511.82" font-family="Consolas" font-size="9.00">next target</text>
</g>
<!-- ContactContext -->
<g id="node16" class="node">
<title>ContactContext</title>
<g id="a_node16"><a xlink:href="vscode://file/C:/_DJ/gPCD/docs/Dynamics/SourceDocumentation.tex:426:1" xlink:title="Open documentation for Build source contact context" target="_blank">
<path fill="#f8f8f8" stroke="#606060" d="M845.5,-778.75C845.5,-778.75 706.5,-778.75 706.5,-778.75 700.5,-778.75 694.5,-772.75 694.5,-766.75 694.5,-766.75 694.5,-754.75 694.5,-754.75 694.5,-748.75 700.5,-742.75 706.5,-742.75 706.5,-742.75 845.5,-742.75 845.5,-742.75 851.5,-742.75 857.5,-748.75 857.5,-754.75 857.5,-754.75 857.5,-766.75 857.5,-766.75 857.5,-772.75 851.5,-778.75 845.5,-778.75"/>
<text xml:space="preserve" text-anchor="middle" x="776" y="-756.5" font-family="Consolas" font-size="10.00">Build source contact context</text>
</a>
</g>
</g>
<!-- HasContacts&#45;&gt;ContactContext -->
<g id="edge20" class="edge">
<title>HasContacts&#45;&gt;ContactContext</title>
<path fill="none" stroke="#505050" d="M698.82,-844.02C712.92,-828.99 735.08,-805.37 752.04,-787.29"/>
<polygon fill="#505050" stroke="#505050" points="754.57,-789.71 758.86,-780.02 749.47,-784.92 754.57,-789.71"/>
<text xml:space="preserve" text-anchor="middle" x="732.93" y="-815.2" font-family="Consolas" font-size="9.00">yes</text>
</g>
<!-- HasContacts&#45;&gt;MoveParticle -->
<g id="edge19" class="edge">
<title>HasContacts&#45;&gt;MoveParticle</title>
<path fill="none" stroke="#505050" d="M668.83,-844.36C656.57,-834.25 638.82,-821.28 621,-814 600.98,-805.82 593.28,-813.52 573,-806 559.21,-800.89 545.15,-793.09 533.09,-785.46"/>
<polygon fill="#505050" stroke="#505050" points="535.03,-782.55 524.75,-779.98 531.19,-788.4 535.03,-782.55"/>
<text xml:space="preserve" text-anchor="middle" x="645.24" y="-815.2" font-family="Consolas" font-size="9.00">no</text>
</g>
<!-- ContactLoop -->
<g id="node17" class="node">
<title>ContactLoop</title>
<g id="a_node17"><a xlink:href="vscode://file/C:/_DJ/gPCD/docs/Dynamics/SourceDocumentation.tex:378:1" xlink:title="Open documentation for For each contact slot" target="_blank">
<path fill="#f8f8f8" stroke="#606060" d="M883.12,-697C883.12,-697 780.88,-697 780.88,-697 774.88,-697 768.88,-691 768.88,-685 768.88,-685 768.88,-673 768.88,-673 768.88,-667 774.88,-661 780.88,-661 780.88,-661 883.12,-661 883.12,-661 889.12,-661 895.12,-667 895.12,-673 895.12,-673 895.12,-685 895.12,-685 895.12,-691 889.12,-697 883.12,-697"/>
<text xml:space="preserve" text-anchor="middle" x="832" y="-674.75" font-family="Consolas" font-size="10.00">For each contact slot</text>
</a>
</g>
</g>
<!-- ContactContext&#45;&gt;ContactLoop -->
<g id="edge21" class="edge">
<title>ContactContext&#45;&gt;ContactLoop</title>
<path fill="none" stroke="#505050" d="M788.15,-742.45C795.49,-731.99 804.99,-718.46 813.28,-706.66"/>
<polygon fill="#505050" stroke="#505050" points="816.12,-708.7 819,-698.51 810.39,-704.68 816.12,-708.7"/>
</g>
<!-- CalcGeometry -->
<g id="node19" class="node">
<title>CalcGeometry</title>
<g id="a_node19"><a xlink:href="vscode://file/C:/_DJ/gPCD/docs/Dynamics/SourceDocumentation.tex:502:1" xlink:title="Open documentation for Calculate contact geometry" target="_blank">
<path fill="#f8f8f8" stroke="#606060" d="M896.25,-615.25C896.25,-615.25 767.75,-615.25 767.75,-615.25 761.75,-615.25 755.75,-609.25 755.75,-603.25 755.75,-603.25 755.75,-591.25 755.75,-591.25 755.75,-585.25 761.75,-579.25 767.75,-579.25 767.75,-579.25 896.25,-579.25 896.25,-579.25 902.25,-579.25 908.25,-585.25 908.25,-591.25 908.25,-591.25 908.25,-603.25 908.25,-603.25 908.25,-609.25 902.25,-615.25 896.25,-615.25"/>
<text xml:space="preserve" text-anchor="middle" x="832" y="-593" font-family="Consolas" font-size="10.00">Calculate contact geometry</text>
</a>
</g>
</g>
<!-- ContactLoop&#45;&gt;CalcGeometry -->
<g id="edge22" class="edge">
<title>ContactLoop&#45;&gt;CalcGeometry</title>
<path fill="none" stroke="#505050" d="M832,-660.7C832,-650.77 832,-638.06 832,-626.7"/>
<polygon fill="#505050" stroke="#505050" points="835.5,-627.03 832,-617.03 828.5,-627.03 835.5,-627.03"/>
</g>
<!-- PairPlan -->
<g id="node27" class="node">
<title>PairPlan</title>
<g id="a_node27"><a xlink:href="vscode://file/C:/_DJ/gPCD/docs/Dynamics/SourceDocumentation.tex:400:1" xlink:title="Open documentation for Build pair&#45;compatible plan" target="_blank">
<path fill="#f8f8f8" stroke="#606060" d="M725.25,-615.25C725.25,-615.25 596.75,-615.25 596.75,-615.25 590.75,-615.25 584.75,-609.25 584.75,-603.25 584.75,-603.25 584.75,-591.25 584.75,-591.25 584.75,-585.25 590.75,-579.25 596.75,-579.25 596.75,-579.25 725.25,-579.25 725.25,-579.25 731.25,-579.25 737.25,-585.25 737.25,-591.25 737.25,-591.25 737.25,-603.25 737.25,-603.25 737.25,-609.25 731.25,-615.25 725.25,-615.25"/>
<text xml:space="preserve" text-anchor="middle" x="661" y="-593" font-family="Consolas" font-size="10.00">Build pair&#45;compatible plan</text>
</a>
</g>
</g>
<!-- ContactLoop&#45;&gt;PairPlan -->
<g id="edge34" class="edge">
<title>ContactLoop&#45;&gt;PairPlan</title>
<path fill="none" stroke="#505050" d="M781.04,-660.59C767.14,-655.37 752.2,-649.34 738.75,-643 725.19,-636.61 710.83,-628.69 698.2,-621.31"/>
<polygon fill="#505050" stroke="#505050" points="700.17,-618.41 689.78,-616.31 696.59,-624.42 700.17,-618.41"/>
<text xml:space="preserve" text-anchor="middle" x="783.38" y="-634.45" font-family="Consolas" font-size="9.00">contact scan done</text>
</g>
<!-- GeometryValid -->
<g id="node18" class="node">
<title>GeometryValid</title>
<g id="a_node18"><a xlink:href="vscode://file/C:/_DJ/gPCD/docs/Dynamics/SourceDocumentation.tex:502:1" xlink:title="Open documentation for Geometry valid?" target="_blank">
<path fill="#fff6d8" stroke="#606060" d="M833.31,-530.8C833.31,-530.8 778.59,-518.2 778.59,-518.2 772.75,-516.85 772.75,-514.15 778.59,-512.8 778.59,-512.8 833.31,-500.2 833.31,-500.2 839.15,-498.85 850.85,-498.85 856.69,-500.2 856.69,-500.2 911.41,-512.8 911.41,-512.8 917.25,-514.15 917.25,-516.85 911.41,-518.2 911.41,-518.2 856.69,-530.8 856.69,-530.8 850.85,-532.15 839.15,-532.15 833.31,-530.8"/>
<text xml:space="preserve" text-anchor="middle" x="845" y="-511.25" font-family="Consolas" font-size="10.00">Geometry valid?</text>
</a>
</g>
</g>
<!-- GeometryValid&#45;&gt;ContactLoop -->
<g id="edge24" class="edge">
<title>GeometryValid&#45;&gt;ContactLoop</title>
<path fill="none" stroke="#505050" d="M867.21,-528.65C884.36,-539.43 906.84,-556.91 917,-579.25 923.63,-593.81 924.21,-600.97 917,-615.25 908.8,-631.5 894.18,-644.59 879.35,-654.51"/>
<polygon fill="#505050" stroke="#505050" points="877.55,-651.51 870.92,-659.78 881.26,-657.45 877.55,-651.51"/>
<text xml:space="preserve" text-anchor="middle" x="966.82" y="-593.58" font-family="Consolas" font-size="9.00">no / next contact</text>
</g>
<!-- CalcWeights -->
<g id="node20" class="node">
<title>CalcWeights</title>
<g id="a_node20"><a xlink:href="vscode://file/C:/_DJ/gPCD/docs/Dynamics/SourceDocumentation.tex:657:1" xlink:title="Open documentation for Calculate source/target weights" target="_blank">
<path fill="#f8f8f8" stroke="#606060" d="M922.38,-434.5C922.38,-434.5 767.62,-434.5 767.62,-434.5 761.62,-434.5 755.62,-428.5 755.62,-422.5 755.62,-422.5 755.62,-410.5 755.62,-410.5 755.62,-404.5 761.62,-398.5 767.62,-398.5 767.62,-398.5 922.38,-398.5 922.38,-398.5 928.38,-398.5 934.38,-404.5 934.38,-410.5 934.38,-410.5 934.38,-422.5 934.38,-422.5 934.38,-428.5 928.38,-434.5 922.38,-434.5"/>
<text xml:space="preserve" text-anchor="middle" x="845" y="-412.25" font-family="Consolas" font-size="10.00">Calculate source/target weights</text>
</a>
</g>
</g>
<!-- GeometryValid&#45;&gt;CalcWeights -->
<g id="edge25" class="edge">
<title>GeometryValid&#45;&gt;CalcWeights</title>
<path fill="none" stroke="#505050" d="M845,-497.16C845,-482.95 845,-462.56 845,-445.96"/>
<polygon fill="#505050" stroke="#505050" points="848.5,-446.21 845,-436.21 841.5,-446.21 848.5,-446.21"/>
<text xml:space="preserve" text-anchor="middle" x="852.88" y="-470.95" font-family="Consolas" font-size="9.00">yes</text>
</g>
<!-- CalcGeometry&#45;&gt;GeometryValid -->
<g id="edge23" class="edge">
<title>CalcGeometry&#45;&gt;GeometryValid</title>
<path fill="none" stroke="#505050" d="M834.82,-578.95C836.46,-568.88 838.57,-555.96 840.44,-544.48"/>
<polygon fill="#505050" stroke="#505050" points="843.88,-545.15 842.03,-534.72 836.97,-544.02 843.88,-545.15"/>
</g>
<!-- CalcRelVelocity -->
<g id="node21" class="node">
<title>CalcRelVelocity</title>
<g id="a_node21"><a xlink:href="vscode://file/C:/_DJ/gPCD/docs/Dynamics/ParticleGeometry.tex:132:1" xlink:title="Open documentation for Calculate relative normal velocity" target="_blank">
<path fill="#f8f8f8" stroke="#606060" d="M930.25,-361.5C930.25,-361.5 759.75,-361.5 759.75,-361.5 753.75,-361.5 747.75,-355.5 747.75,-349.5 747.75,-349.5 747.75,-337.5 747.75,-337.5 747.75,-331.5 753.75,-325.5 759.75,-325.5 759.75,-325.5 930.25,-325.5 930.25,-325.5 936.25,-325.5 942.25,-331.5 942.25,-337.5 942.25,-337.5 942.25,-349.5 942.25,-349.5 942.25,-355.5 936.25,-361.5 930.25,-361.5"/>
<text xml:space="preserve" text-anchor="middle" x="845" y="-339.25" font-family="Consolas" font-size="10.00">Calculate relative normal velocity</text>
</a>
</g>
</g>
<!-- CalcWeights&#45;&gt;CalcRelVelocity -->
<g id="edge26" class="edge">
<title>CalcWeights&#45;&gt;CalcRelVelocity</title>
<path fill="none" stroke="#505050" d="M845,-398.31C845,-390.73 845,-381.6 845,-373.04"/>
<polygon fill="#505050" stroke="#505050" points="848.5,-373.04 845,-363.04 841.5,-373.04 848.5,-373.04"/>
</g>
<!-- CalcRawImpulse -->
<g id="node22" class="node">
<title>CalcRawImpulse</title>
<g id="a_node22"><a xlink:href="vscode://file/C:/_DJ/gPCD/docs/Dynamics/SourceDocumentation.tex:696:1" xlink:title="Open documentation for Calculate raw impulse" target="_blank">
<path fill="#f8f8f8" stroke="#606060" d="M896.12,-279.75C896.12,-279.75 793.88,-279.75 793.88,-279.75 787.88,-279.75 781.88,-273.75 781.88,-267.75 781.88,-267.75 781.88,-255.75 781.88,-255.75 781.88,-249.75 787.88,-243.75 793.88,-243.75 793.88,-243.75 896.12,-243.75 896.12,-243.75 902.12,-243.75 908.12,-249.75 908.12,-255.75 908.12,-255.75 908.12,-267.75 908.12,-267.75 908.12,-273.75 902.12,-279.75 896.12,-279.75"/>
<text xml:space="preserve" text-anchor="middle" x="845" y="-257.5" font-family="Consolas" font-size="10.00">Calculate raw impulse</text>
</a>
</g>
</g>
<!-- CalcRelVelocity&#45;&gt;CalcRawImpulse -->
<g id="edge27" class="edge">
<title>CalcRelVelocity&#45;&gt;CalcRawImpulse</title>
<path fill="none" stroke="#505050" d="M845,-325.2C845,-315.27 845,-302.56 845,-291.2"/>
<polygon fill="#505050" stroke="#505050" points="848.5,-291.53 845,-281.53 841.5,-291.53 848.5,-291.53"/>
</g>
<!-- PhaseDecision -->
<g id="node23" class="node">
<title>PhaseDecision</title>
<g id="a_node23"><a xlink:href="vscode://file/C:/_DJ/gPCD/docs/Dynamics/SourceDocumentation.tex:808:1" xlink:title="Open documentation for Compression or returning?" target="_blank">
<path fill="#fff6d8" stroke="#606060" d="M833.13,-204.99C833.13,-204.99 735.5,-190.51 735.5,-190.51 729.56,-189.63 729.56,-187.87 735.5,-186.99 735.5,-186.99 833.13,-172.51 833.13,-172.51 839.06,-171.63 850.94,-171.63 856.87,-172.51 856.87,-172.51 954.5,-186.99 954.5,-186.99 960.44,-187.87 960.44,-189.63 954.5,-190.51 954.5,-190.51 856.87,-204.99 856.87,-204.99 850.94,-205.87 839.06,-205.87 833.13,-204.99"/>
<text xml:space="preserve" text-anchor="middle" x="845" y="-184.5" font-family="Consolas" font-size="10.00">Compression or returning?</text>
</a>
</g>
</g>
<!-- CalcRawImpulse&#45;&gt;PhaseDecision -->
<g id="edge28" class="edge">
<title>CalcRawImpulse&#45;&gt;PhaseDecision</title>
<path fill="none" stroke="#505050" d="M845,-243.56C845,-235.98 845,-226.85 845,-218.29"/>
<polygon fill="#505050" stroke="#505050" points="848.5,-218.29 845,-208.29 841.5,-218.29 848.5,-218.29"/>
</g>
<!-- Compression -->
<g id="node24" class="node">
<title>Compression</title>
<g id="a_node24"><a xlink:href="vscode://file/C:/_DJ/gPCD/docs/Dynamics/SourceDocumentation.tex:853:1" xlink:title="Open documentation for Compute compression impulse" target="_blank">
<path fill="#f8f8f8" stroke="#606060" d="M958.88,-125C958.88,-125 825.12,-125 825.12,-125 819.12,-125 813.12,-119 813.12,-113 813.12,-113 813.12,-101 813.12,-101 813.12,-95 819.12,-89 825.12,-89 825.12,-89 958.88,-89 958.88,-89 964.88,-89 970.88,-95 970.88,-101 970.88,-101 970.88,-113 970.88,-113 970.88,-119 964.88,-125 958.88,-125"/>
<text xml:space="preserve" text-anchor="middle" x="892" y="-102.75" font-family="Consolas" font-size="10.00">Compute compression impulse</text>
</a>
</g>
</g>
<!-- PhaseDecision&#45;&gt;Compression -->
<g id="edge29" class="edge">
<title>PhaseDecision&#45;&gt;Compression</title>
<path fill="none" stroke="#505050" d="M854.29,-171.99C860.47,-161.5 868.76,-147.43 876,-135.15"/>
<polygon fill="#505050" stroke="#505050" points="878.92,-137.08 880.99,-126.69 872.89,-133.53 878.92,-137.08"/>
<text xml:space="preserve" text-anchor="middle" x="900.19" y="-144.2" font-family="Consolas" font-size="9.00">compression</text>
</g>
<!-- Returning -->
<g id="node25" class="node">
<title>Returning</title>
<g id="a_node25"><a xlink:href="vscode://file/C:/_DJ/gPCD/docs/Dynamics/SourceDocumentation.tex:827:1" xlink:title="Open documentation for Compute release impulse" target="_blank">
<path fill="#f8f8f8" stroke="#606060" d="M783.38,-125C783.38,-125 670.62,-125 670.62,-125 664.62,-125 658.62,-119 658.62,-113 658.62,-113 658.62,-101 658.62,-101 658.62,-95 664.62,-89 670.62,-89 670.62,-89 783.38,-89 783.38,-89 789.38,-89 795.38,-95 795.38,-101 795.38,-101 795.38,-113 795.38,-113 795.38,-119 789.38,-125 783.38,-125"/>
<text xml:space="preserve" text-anchor="middle" x="727" y="-102.75" font-family="Consolas" font-size="10.00">Compute release impulse</text>
</a>
</g>
</g>
<!-- PhaseDecision&#45;&gt;Returning -->
<g id="edge30" class="edge">
<title>PhaseDecision&#45;&gt;Returning</title>
<path fill="none" stroke="#505050" d="M823.9,-173.49C806.81,-161.94 782.36,-145.42 762.3,-131.86"/>
<polygon fill="#505050" stroke="#505050" points="764.35,-129.02 754.11,-126.32 760.43,-134.82 764.35,-129.02"/>
<text xml:space="preserve" text-anchor="middle" x="816.69" y="-144.2" font-family="Consolas" font-size="9.00">returning</text>
</g>
<!-- BuildCandidate -->
<g id="node26" class="node">
<title>BuildCandidate</title>
<g id="a_node26"><a xlink:href="vscode://file/C:/_DJ/gPCD/docs/Dynamics/SourceDocumentation.tex:736:1" xlink:title="Open documentation for Store directed candidate" target="_blank">
<path fill="#f8f8f8" stroke="#606060" d="M951,-52C951,-52 833,-52 833,-52 827,-52 821,-46 821,-40 821,-40 821,-28 821,-28 821,-22 827,-16 833,-16 833,-16 951,-16 951,-16 957,-16 963,-22 963,-28 963,-28 963,-40 963,-40 963,-46 957,-52 951,-52"/>
<text xml:space="preserve" text-anchor="middle" x="892" y="-29.75" font-family="Consolas" font-size="10.00">Store directed candidate</text>
</a>
</g>
</g>
<!-- Compression&#45;&gt;BuildCandidate -->
<g id="edge31" class="edge">
<title>Compression&#45;&gt;BuildCandidate</title>
<path fill="none" stroke="#505050" d="M892,-88.81C892,-81.23 892,-72.1 892,-63.54"/>
<polygon fill="#505050" stroke="#505050" points="895.5,-63.54 892,-53.54 888.5,-63.54 895.5,-63.54"/>
</g>
<!-- Returning&#45;&gt;BuildCandidate -->
<g id="edge32" class="edge">
<title>Returning&#45;&gt;BuildCandidate</title>
<path fill="none" stroke="#505050" d="M767.36,-88.63C789.54,-79.09 817.26,-67.16 840.93,-56.98"/>
<polygon fill="#505050" stroke="#505050" points="842.29,-60.2 850.09,-53.03 839.52,-53.77 842.29,-60.2"/>
</g>
<!-- BuildCandidate&#45;&gt;ContactLoop -->
<g id="edge33" class="edge">
<title>BuildCandidate&#45;&gt;ContactLoop</title>
<path fill="none" stroke="#505050" d="M945.59,-52.48C968.47,-63.61 990,-80.79 990,-106 990,-303.62 990,-303.62 990,-303.62 990,-426.63 1009.44,-456.37 1015,-579.25 1015.72,-595.23 1024.3,-602.23 1015,-615.25 990.34,-649.78 945.45,-665.51 906.31,-672.59"/>
<polygon fill="#505050" stroke="#505050" points="905.98,-669.09 896.67,-674.16 907.11,-676 905.98,-669.09"/>
<text xml:space="preserve" text-anchor="middle" x="1023.13" y="-339.82" font-family="Consolas" font-size="9.00">next contact</text>
</g>
<!-- PlanData -->
<g id="node28" class="node">
<title>PlanData</title>
<g id="a_node28"><a xlink:href="vscode://file/C:/_DJ/gPCD/docs/Dynamics/SourceDocumentation.tex:400:1" xlink:title="Open documentation for GeoPlannedContactImpulses" target="_blank">
<path fill="#eaf3ff" stroke="#606060" d="M733.62,-530.23C733.62,-532.03 700.63,-533.5 660,-533.5 619.37,-533.5 586.38,-532.03 586.38,-530.23 586.38,-530.23 586.38,-500.77 586.38,-500.77 586.38,-498.97 619.37,-497.5 660,-497.5 700.63,-497.5 733.62,-498.97 733.62,-500.77 733.62,-500.77 733.62,-530.23 733.62,-530.23"/>
<path fill="none" stroke="#606060" d="M733.62,-530.23C733.62,-528.42 700.63,-526.95 660,-526.95 619.37,-526.95 586.38,-528.42 586.38,-530.23"/>
<text xml:space="preserve" text-anchor="middle" x="660" y="-511.25" font-family="Consolas" font-size="10.00">GeoPlannedContactImpulses</text>
</a>
</g>
</g>
<!-- PairPlan&#45;&gt;PlanData -->
<g id="edge35" class="edge">
<title>PairPlan&#45;&gt;PlanData</title>
<path fill="none" stroke="#505050" d="M660.78,-578.95C660.66,-569.02 660.5,-556.31 660.36,-544.95"/>
<polygon fill="#505050" stroke="#505050" points="663.86,-545.24 660.24,-535.28 656.86,-545.33 663.86,-545.24"/>
<text xml:space="preserve" text-anchor="middle" x="673.68" y="-552.7" font-family="Consolas" font-size="9.00">write</text>
</g>
<!-- ResolveContacts -->
<g id="node29" class="node">
<title>ResolveContacts</title>
<g id="a_node29"><a xlink:href="vscode://file/C:/_DJ/gPCD/docs/Dynamics/SourceDocumentation.tex:156:1" xlink:title="Open documentation for Resolve contacts for source" target="_blank">
<path fill="#f8f8f8" stroke="#606060" d="M547.88,-434.5C547.88,-434.5 414.12,-434.5 414.12,-434.5 408.12,-434.5 402.12,-428.5 402.12,-422.5 402.12,-422.5 402.12,-410.5 402.12,-410.5 402.12,-404.5 408.12,-398.5 414.12,-398.5 414.12,-398.5 547.88,-398.5 547.88,-398.5 553.88,-398.5 559.88,-404.5 559.88,-410.5 559.88,-410.5 559.88,-422.5 559.88,-422.5 559.88,-428.5 553.88,-434.5 547.88,-434.5"/>
<text xml:space="preserve" text-anchor="middle" x="481" y="-412.25" font-family="Consolas" font-size="10.00">Resolve contacts for source</text>
</a>
</g>
</g>
<!-- PlanData&#45;&gt;ResolveContacts -->
<g id="edge36" class="edge">
<title>PlanData&#45;&gt;ResolveContacts</title>
<path fill="none" stroke="#505050" d="M628,-497.16C598.69,-481.28 555.11,-457.66 523.01,-440.27"/>
<polygon fill="#505050" stroke="#505050" points="524.82,-437.26 514.36,-435.58 521.48,-443.42 524.82,-437.26"/>
</g>
<!-- ReadPlan -->
<g id="node30" class="node">
<title>ReadPlan</title>
<g id="a_node30"><a xlink:href="vscode://file/C:/_DJ/gPCD/docs/Dynamics/SourceDocumentation.tex:156:1" xlink:title="Open documentation for Read planned impulses" target="_blank">
<path fill="#f8f8f8" stroke="#606060" d="M527.12,-361.5C527.12,-361.5 424.88,-361.5 424.88,-361.5 418.88,-361.5 412.88,-355.5 412.88,-349.5 412.88,-349.5 412.88,-337.5 412.88,-337.5 412.88,-331.5 418.88,-325.5 424.88,-325.5 424.88,-325.5 527.12,-325.5 527.12,-325.5 533.12,-325.5 539.12,-331.5 539.12,-337.5 539.12,-337.5 539.12,-349.5 539.12,-349.5 539.12,-355.5 533.12,-361.5 527.12,-361.5"/>
<text xml:space="preserve" text-anchor="middle" x="476" y="-339.25" font-family="Consolas" font-size="10.00">Read planned impulses</text>
</a>
</g>
</g>
<!-- ResolveContacts&#45;&gt;ReadPlan -->
<g id="edge37" class="edge">
<title>ResolveContacts&#45;&gt;ReadPlan</title>
<path fill="none" stroke="#505050" d="M479.79,-398.31C479.25,-390.64 478.6,-381.39 477.99,-372.74"/>
<polygon fill="#505050" stroke="#505050" points="481.5,-372.77 477.31,-363.04 474.52,-373.26 481.5,-372.77"/>
</g>
<!-- VectorDelta -->
<g id="node31" class="node">
<title>VectorDelta</title>
<g id="a_node31"><a xlink:href="vscode://file/C:/_DJ/gPCD/docs/Dynamics/ParticleGeometry.tex:168:1" xlink:title="Open documentation for Scalar impulse &#45;&gt; vector delta" target="_blank">
<path fill="#f8f8f8" stroke="#606060" d="M548.75,-279.75C548.75,-279.75 399.25,-279.75 399.25,-279.75 393.25,-279.75 387.25,-273.75 387.25,-267.75 387.25,-267.75 387.25,-255.75 387.25,-255.75 387.25,-249.75 393.25,-243.75 399.25,-243.75 399.25,-243.75 548.75,-243.75 548.75,-243.75 554.75,-243.75 560.75,-249.75 560.75,-255.75 560.75,-255.75 560.75,-267.75 560.75,-267.75 560.75,-273.75 554.75,-279.75 548.75,-279.75"/>
<text xml:space="preserve" text-anchor="middle" x="474" y="-257.5" font-family="Consolas" font-size="10.00">Scalar impulse &#45;&gt; vector delta</text>
</a>
</g>
</g>
<!-- ReadPlan&#45;&gt;VectorDelta -->
<g id="edge38" class="edge">
<title>ReadPlan&#45;&gt;VectorDelta</title>
<path fill="none" stroke="#505050" d="M475.57,-325.2C475.32,-315.27 475,-302.56 474.71,-291.2"/>
<polygon fill="#505050" stroke="#505050" points="478.22,-291.44 474.47,-281.53 471.22,-291.62 478.22,-291.44"/>
</g>
<!-- WriteSource -->
<g id="node32" class="node">
<title>WriteSource</title>
<g id="a_node32"><a xlink:href="vscode://file/C:/_DJ/gPCD/docs/Dynamics/GeoConventions.tex:261:1" xlink:title="Open documentation for Write source velocity only" target="_blank">
<path fill="#f8f8f8" stroke="#606060" d="M537.25,-206.75C537.25,-206.75 408.75,-206.75 408.75,-206.75 402.75,-206.75 396.75,-200.75 396.75,-194.75 396.75,-194.75 396.75,-182.75 396.75,-182.75 396.75,-176.75 402.75,-170.75 408.75,-170.75 408.75,-170.75 537.25,-170.75 537.25,-170.75 543.25,-170.75 549.25,-176.75 549.25,-182.75 549.25,-182.75 549.25,-194.75 549.25,-194.75 549.25,-200.75 543.25,-206.75 537.25,-206.75"/>
<text xml:space="preserve" text-anchor="middle" x="473" y="-184.5" font-family="Consolas" font-size="10.00">Write source velocity only</text>
</a>
</g>
</g>
<!-- VectorDelta&#45;&gt;WriteSource -->
<g id="edge39" class="edge">
<title>VectorDelta&#45;&gt;WriteSource</title>
<path fill="none" stroke="#505050" d="M473.76,-243.56C473.65,-235.98 473.52,-226.85 473.4,-218.29"/>
<polygon fill="#505050" stroke="#505050" points="476.9,-218.24 473.26,-208.29 469.9,-218.34 476.9,-218.24"/>
</g>
<!-- UpdateLedgers -->
<g id="node33" class="node">
<title>UpdateLedgers</title>
<g id="a_node33"><a xlink:href="vscode://file/C:/_DJ/gPCD/docs/Dynamics/GeoConventions.tex:129:1" xlink:title="Open documentation for Update source&#45;owned ledgers" target="_blank">
<path fill="#f8f8f8" stroke="#606060" d="M534.88,-125C534.88,-125 401.12,-125 401.12,-125 395.12,-125 389.12,-119 389.12,-113 389.12,-113 389.12,-101 389.12,-101 389.12,-95 395.12,-89 401.12,-89 401.12,-89 534.88,-89 534.88,-89 540.88,-89 546.88,-95 546.88,-101 546.88,-101 546.88,-113 546.88,-113 546.88,-119 540.88,-125 534.88,-125"/>
<text xml:space="preserve" text-anchor="middle" x="468" y="-102.75" font-family="Consolas" font-size="10.00">Update source&#45;owned ledgers</text>
</a>
</g>
</g>
<!-- WriteSource&#45;&gt;UpdateLedgers -->
<g id="edge40" class="edge">
<title>WriteSource&#45;&gt;UpdateLedgers</title>
<path fill="none" stroke="#505050" d="M471.92,-170.45C471.29,-160.52 470.5,-147.81 469.78,-136.45"/>
<polygon fill="#505050" stroke="#505050" points="473.3,-136.54 469.18,-126.78 466.31,-136.98 473.3,-136.54"/>
</g>
<!-- UpdateLedgers&#45;&gt;MoveParticle -->
<g id="edge41" class="edge">
<title>UpdateLedgers&#45;&gt;MoveParticle</title>
<path fill="none" stroke="#505050" d="M413.5,-125.37C386.25,-137.8 359,-157.74 359,-187.75 359,-680 359,-680 359,-680 359,-699.94 402.28,-722.27 440.88,-738.21"/>
<polygon fill="#505050" stroke="#505050" points="439.09,-741.27 449.68,-741.76 441.71,-734.77 439.09,-741.27"/>
</g>
<!-- MoveParticle&#45;&gt;SourceLoop -->
<g id="edge42" class="edge">
<title>MoveParticle&#45;&gt;SourceLoop</title>
<path fill="none" stroke="#505050" d="M499.5,-779.15C497.64,-809.36 489.35,-871.44 453,-905 435.83,-920.86 380.51,-932.78 335.33,-940.19"/>
<polygon fill="#505050" stroke="#505050" points="334.91,-936.71 325.58,-941.74 336.01,-943.63 334.91,-936.71"/>
<text xml:space="preserve" text-anchor="middle" x="517.29" y="-856.08" font-family="Consolas" font-size="9.00">next source</text>
</g>
</g>
</svg>
