<?xml version="1.0" encoding="UTF-8" standalone="no"?>
<!DOCTYPE svg PUBLIC "-//W3C//DTD SVG 1.1//EN"
 "http://www.w3.org/Graphics/SVG/1.1/DTD/svg11.dtd">
<!-- Generated by graphviz version 15.0.0 (20260523.1842)
 -->
<!-- Title: ShadowProposedSystemFlow Pages: 1 -->
<svg width="1479pt" height="1063pt"
 viewBox="0.00 0.00 1479.00 1063.00" xmlns="http://www.w3.org/2000/svg" xmlns:xlink="http://www.w3.org/1999/xlink">
<g id="graph0" class="graph" transform="scale(1 1) rotate(0) translate(4 1059)">
<title>ShadowProposedSystemFlow</title>
<polygon fill="white" stroke="none" points="-4,4 -4,-1059 1475,-1059 1475,4 -4,4"/>
<g id="clust1" class="cluster">
<title>cluster_frame</title>
<path fill="white" stroke="#c8c8c8" d="M92,-821C92,-821 262,-821 262,-821 268,-821 274,-827 274,-833 274,-833 274,-1035 274,-1035 274,-1041 268,-1047 262,-1047 262,-1047 92,-1047 92,-1047 86,-1047 80,-1041 80,-1035 80,-1035 80,-833 80,-833 80,-827 86,-821 92,-821"/>
<text xml:space="preserve" text-anchor="middle" x="177" y="-1032.55" font-family="Consolas" font-size="11.00">Frame Inputs</text>
</g>
<g id="clust2" class="cluster">
<title>cluster_detect</title>
<path fill="white" stroke="#c8c8c8" d="M20,-425C20,-425 264,-425 264,-425 270,-425 276,-431 276,-437 276,-437 276,-781.25 276,-781.25 276,-787.25 270,-793.25 264,-793.25 264,-793.25 20,-793.25 20,-793.25 14,-793.25 8,-787.25 8,-781.25 8,-781.25 8,-437 8,-437 8,-431 14,-425 20,-425"/>
<text xml:space="preserve" text-anchor="middle" x="142" y="-778.8" font-family="Consolas" font-size="11.00">Pass 1: Detect and Store Geometry</text>
</g>
<g id="clust3" class="cluster">
<title>cluster_context</title>
<path fill="white" stroke="#c8c8c8" d="M296,-326C296,-326 546,-326 546,-326 552,-326 558,-332 558,-338 558,-338 558,-682.25 558,-682.25 558,-688.25 552,-694.25 546,-694.25 546,-694.25 296,-694.25 296,-694.25 290,-694.25 284,-688.25 284,-682.25 284,-682.25 284,-338 284,-338 284,-332 290,-326 296,-326"/>
<text xml:space="preserve" text-anchor="middle" x="421" y="-679.8" font-family="Consolas" font-size="11.00">Pass 2: Build Source Context</text>
</g>
<g id="clust4" class="cluster">
<title>cluster_allocation</title>
<path fill="white" stroke="#c8c8c8" d="M578,-227C578,-227 796,-227 796,-227 802,-227 808,-233 808,-239 808,-239 808,-583.25 808,-583.25 808,-589.25 802,-595.25 796,-595.25 796,-595.25 578,-595.25 578,-595.25 572,-595.25 566,-589.25 566,-583.25 566,-583.25 566,-239 566,-239 566,-233 572,-227 578,-227"/>
<text xml:space="preserve" text-anchor="middle" x="687" y="-580.8" font-family="Consolas" font-size="11.00">Pass 3: Plan Source Allocation</text>
</g>
<g id="clust5" class="cluster">
<title>cluster_pair_plan</title>
<path fill="white" stroke="#c8c8c8" d="M828,-227C828,-227 1077,-227 1077,-227 1083,-227 1089,-233 1089,-239 1089,-239 1089,-484.25 1089,-484.25 1089,-490.25 1083,-496.25 1077,-496.25 1077,-496.25 828,-496.25 828,-496.25 822,-496.25 816,-490.25 816,-484.25 816,-484.25 816,-239 816,-239 816,-233 822,-227 828,-227"/>
<text xml:space="preserve" text-anchor="middle" x="952.5" y="-481.8" font-family="Consolas" font-size="11.00">Pass 4: Pair Compatibility</text>
</g>
<g id="clust6" class="cluster">
<title>cluster_apply</title>
<path fill="white" stroke="#c8c8c8" d="M1109,-8C1109,-8 1337,-8 1337,-8 1343,-8 1349,-14 1349,-20 1349,-20 1349,-385.25 1349,-385.25 1349,-391.25 1343,-397.25 1337,-397.25 1337,-397.25 1109,-397.25 1109,-397.25 1103,-397.25 1097,-391.25 1097,-385.25 1097,-385.25 1097,-20 1097,-20 1097,-14 1103,-8 1109,-8"/>
<text xml:space="preserve" text-anchor="middle" x="1223" y="-382.8" font-family="Consolas" font-size="11.00">Pass 5: Apply Source&#45;Owned Writes</text>
</g>
<g id="clust7" class="cluster">
<title>cluster_move</title>
<path fill="white" stroke="#c8c8c8" d="M1369,-154C1369,-154 1451,-154 1451,-154 1457,-154 1463,-160 1463,-166 1463,-166 1463,-286.25 1463,-286.25 1463,-292.25 1457,-298.25 1451,-298.25 1451,-298.25 1369,-298.25 1369,-298.25 1363,-298.25 1357,-292.25 1357,-286.25 1357,-286.25 1357,-166 1357,-166 1357,-160 1363,-154 1369,-154"/>
<text xml:space="preserve" text-anchor="middle" x="1410" y="-283.8" font-family="Consolas" font-size="11.00">Pass 6: Move</text>
</g>
<!-- Start -->
<g id="node1" class="node">
<title>Start</title>
<ellipse fill="#eaf8ea" stroke="#606060" cx="177" cy="-1001.75" rx="42.99" ry="18"/>
<text xml:space="preserve" text-anchor="middle" x="177" y="-997.5" font-family="Consolas" font-size="10.00">Start Frame</text>
</g>
<!-- Snapshot -->
<g id="node2" class="node">
<title>Snapshot</title>
<path fill="#f8f8f8" stroke="#606060" d="M225.5,-946.75C225.5,-946.75 128.5,-946.75 128.5,-946.75 122.5,-946.75 116.5,-940.75 116.5,-934.75 116.5,-934.75 116.5,-922.75 116.5,-922.75 116.5,-916.75 122.5,-910.75 128.5,-910.75 128.5,-910.75 225.5,-910.75 225.5,-910.75 231.5,-910.75 237.5,-916.75 237.5,-922.75 237.5,-922.75 237.5,-934.75 237.5,-934.75 237.5,-940.75 231.5,-946.75 225.5,-946.75"/>
<text xml:space="preserve" text-anchor="middle" x="177" y="-924.5" font-family="Consolas" font-size="10.00">Build frame snapshot</text>
</g>
<!-- Start&#45;&gt;Snapshot -->
<g id="edge1" class="edge">
<title>Start&#45;&gt;Snapshot</title>
<path fill="none" stroke="#505050" d="M177,-983.56C177,-975.98 177,-966.85 177,-958.29"/>
<polygon fill="#505050" stroke="#505050" points="180.5,-958.29 177,-948.29 173.5,-958.29 180.5,-958.29"/>
</g>
<!-- SnapshotData -->
<g id="node3" class="node">
<title>SnapshotData</title>
<path fill="#eaf3ff" stroke="#606060" d="M266.38,-861.73C266.38,-863.53 226.32,-865 177,-865 127.68,-865 87.62,-863.53 87.62,-861.73 87.62,-861.73 87.62,-832.27 87.62,-832.27 87.62,-830.47 127.68,-829 177,-829 226.32,-829 266.38,-830.47 266.38,-832.27 266.38,-832.27 266.38,-861.73 266.38,-861.73"/>
<path fill="none" stroke="#606060" d="M266.38,-861.73C266.38,-859.92 226.32,-858.45 177,-858.45 127.68,-858.45 87.62,-859.92 87.62,-861.73"/>
<text xml:space="preserve" text-anchor="middle" x="177" y="-842.75" font-family="Consolas" font-size="10.00">snapshot positions / velocities</text>
</g>
<!-- Snapshot&#45;&gt;SnapshotData -->
<g id="edge2" class="edge">
<title>Snapshot&#45;&gt;SnapshotData</title>
<path fill="none" stroke="#505050" d="M177,-910.45C177,-900.52 177,-887.81 177,-876.45"/>
<polygon fill="#505050" stroke="#505050" points="180.5,-876.78 177,-866.78 173.5,-876.78 180.5,-876.78"/>
<text xml:space="preserve" text-anchor="middle" x="190.12" y="-884.2" font-family="Consolas" font-size="9.00">write</text>
</g>
<!-- DetectLoop -->
<g id="node4" class="node">
<title>DetectLoop</title>
<path fill="#f8f8f8" stroke="#606060" d="M220.25,-766C220.25,-766 133.75,-766 133.75,-766 127.75,-766 121.75,-760 121.75,-754 121.75,-754 121.75,-742 121.75,-742 121.75,-736 127.75,-730 133.75,-730 133.75,-730 220.25,-730 220.25,-730 226.25,-730 232.25,-736 232.25,-742 232.25,-742 232.25,-754 232.25,-754 232.25,-760 226.25,-766 220.25,-766"/>
<text xml:space="preserve" text-anchor="middle" x="177" y="-743.75" font-family="Consolas" font-size="10.00">source&#45;target scan</text>
</g>
<!-- SnapshotData&#45;&gt;DetectLoop -->
<g id="edge3" class="edge">
<title>SnapshotData&#45;&gt;DetectLoop</title>
<path fill="none" stroke="#505050" d="M177,-828.66C177,-814.45 177,-794.06 177,-777.46"/>
<polygon fill="#505050" stroke="#505050" points="180.5,-777.71 177,-767.71 173.5,-777.71 180.5,-777.71"/>
<text xml:space="preserve" text-anchor="middle" x="187.5" y="-802.45" font-family="Consolas" font-size="9.00">read</text>
</g>
<!-- Contact -->
<g id="node5" class="node">
<title>Contact</title>
<path fill="#fff6d8" stroke="#606060" d="M105.77,-662.77C105.77,-662.77 80.42,-653.23 80.42,-653.23 74.81,-651.11 74.81,-646.89 80.42,-644.77 80.42,-644.77 105.77,-635.23 105.77,-635.23 111.38,-633.11 122.62,-633.11 128.23,-635.23 128.23,-635.23 153.58,-644.77 153.58,-644.77 159.19,-646.89 159.19,-651.11 153.58,-653.23 153.58,-653.23 128.23,-662.77 128.23,-662.77 122.62,-664.89 111.38,-664.89 105.77,-662.77"/>
<text xml:space="preserve" text-anchor="middle" x="117" y="-644.75" font-family="Consolas" font-size="10.00">contact?</text>
</g>
<!-- DetectLoop&#45;&gt;Contact -->
<g id="edge4" class="edge">
<title>DetectLoop&#45;&gt;Contact</title>
<path fill="none" stroke="#505050" d="M139.12,-729.57C132.4,-724.8 126.21,-718.98 122,-712 115.94,-701.95 114.13,-689.25 114.04,-677.98"/>
<polygon fill="#505050" stroke="#505050" points="117.54,-678.13 114.45,-668 110.55,-677.84 117.54,-678.13"/>
</g>
<!-- SourceContextLoop -->
<g id="node8" class="node">
<title>SourceContextLoop</title>
<path fill="#f8f8f8" stroke="#606060" d="M471.5,-667C471.5,-667 332.5,-667 332.5,-667 326.5,-667 320.5,-661 320.5,-655 320.5,-655 320.5,-643 320.5,-643 320.5,-637 326.5,-631 332.5,-631 332.5,-631 471.5,-631 471.5,-631 477.5,-631 483.5,-637 483.5,-643 483.5,-643 483.5,-655 483.5,-655 483.5,-661 477.5,-667 471.5,-667"/>
<text xml:space="preserve" text-anchor="middle" x="402" y="-644.75" font-family="Consolas" font-size="10.00">for each source contact list</text>
</g>
<!-- DetectLoop&#45;&gt;SourceContextLoop -->
<g id="edge9" class="edge">
<title>DetectLoop&#45;&gt;SourceContextLoop</title>
<path fill="none" stroke="#505050" d="M217.49,-729.55C254.88,-713.42 310.6,-689.4 351.02,-671.98"/>
<polygon fill="#505050" stroke="#505050" points="352.27,-675.25 360.07,-668.08 349.5,-668.82 352.27,-675.25"/>
<text xml:space="preserve" text-anchor="middle" x="299.65" y="-703.45" font-family="Consolas" font-size="9.00">scan done</text>
</g>
<!-- Contact&#45;&gt;DetectLoop -->
<g id="edge6" class="edge">
<title>Contact&#45;&gt;DetectLoop</title>
<path fill="none" stroke="#505050" d="M121.54,-665.6C125.77,-678.65 132.87,-697.44 142.5,-712 144.64,-715.23 147.1,-718.41 149.7,-721.47"/>
<polygon fill="#505050" stroke="#505050" points="146.89,-723.58 156.25,-728.54 152.03,-718.83 146.89,-723.58"/>
<text xml:space="preserve" text-anchor="middle" x="179.25" y="-703.45" font-family="Consolas" font-size="9.00">no / next pair</text>
</g>
<!-- StoreGeometry -->
<g id="node6" class="node">
<title>StoreGeometry</title>
<path fill="#f8f8f8" stroke="#606060" d="M190.38,-568C190.38,-568 35.62,-568 35.62,-568 29.62,-568 23.62,-562 23.62,-556 23.62,-556 23.62,-544 23.62,-544 23.62,-538 29.62,-532 35.62,-532 35.62,-532 190.38,-532 190.38,-532 196.38,-532 202.38,-538 202.38,-544 202.38,-544 202.38,-556 202.38,-556 202.38,-562 196.38,-568 190.38,-568"/>
<text xml:space="preserve" text-anchor="middle" x="113" y="-545.75" font-family="Consolas" font-size="10.00">store directed contact geometry</text>
</g>
<!-- Contact&#45;&gt;StoreGeometry -->
<g id="edge5" class="edge">
<title>Contact&#45;&gt;StoreGeometry</title>
<path fill="none" stroke="#505050" d="M116.3,-631.1C115.72,-616.95 114.87,-596.44 114.18,-579.72"/>
<polygon fill="#505050" stroke="#505050" points="117.69,-579.72 113.78,-569.87 110.69,-580 117.69,-579.72"/>
<text xml:space="preserve" text-anchor="middle" x="123.35" y="-604.45" font-family="Consolas" font-size="9.00">yes</text>
</g>
<!-- ContactData -->
<g id="node7" class="node">
<title>ContactData</title>
<path fill="#eaf3ff" stroke="#606060" d="M268.12,-465.73C268.12,-467.53 211.59,-469 142,-469 72.41,-469 15.88,-467.53 15.88,-465.73 15.88,-465.73 15.88,-436.27 15.88,-436.27 15.88,-434.47 72.41,-433 142,-433 211.59,-433 268.12,-434.47 268.12,-436.27 268.12,-436.27 268.12,-465.73 268.12,-465.73"/>
<path fill="none" stroke="#606060" d="M268.12,-465.73C268.12,-463.92 211.59,-462.45 142,-462.45 72.41,-462.45 15.88,-463.92 15.88,-465.73"/>
<text xml:space="preserve" text-anchor="middle" x="142" y="-446.75" font-family="Consolas" font-size="10.00">contact slots: target, normal, area, distance</text>
</g>
<!-- StoreGeometry&#45;&gt;ContactData -->
<g id="edge7" class="edge">
<title>StoreGeometry&#45;&gt;ContactData</title>
<path fill="none" stroke="#505050" d="M118.18,-531.66C122.47,-517.31 128.65,-496.66 133.64,-479.98"/>
<polygon fill="#505050" stroke="#505050" points="136.92,-481.23 136.43,-470.64 130.21,-479.22 136.92,-481.23"/>
<text xml:space="preserve" text-anchor="middle" x="138.89" y="-505.45" font-family="Consolas" font-size="9.00">write</text>
</g>
<!-- ContactData&#45;&gt;DetectLoop -->
<g id="edge8" class="edge">
<title>ContactData&#45;&gt;DetectLoop</title>
<path fill="none" stroke="#505050" d="M163.56,-469.49C179.93,-484.22 201.24,-506.87 211,-532 225.49,-569.3 232.31,-675.46 216,-712 214.56,-715.22 212.67,-718.27 210.49,-721.12"/>
<polygon fill="#505050" stroke="#505050" points="207.96,-718.69 203.77,-728.43 213.12,-723.43 207.96,-718.69"/>
<text xml:space="preserve" text-anchor="middle" x="248.17" y="-604.45" font-family="Consolas" font-size="9.00">next pair</text>
</g>
<!-- HasContacts -->
<g id="node9" class="node">
<title>HasContacts</title>
<path fill="#fff6d8" stroke="#606060" d="M372.38,-564.99C372.38,-564.99 326.17,-553.01 326.17,-553.01 320.36,-551.51 320.36,-548.49 326.17,-546.99 326.17,-546.99 372.38,-535.01 372.38,-535.01 378.19,-533.51 389.81,-533.51 395.62,-535.01 395.62,-535.01 441.83,-546.99 441.83,-546.99 447.64,-548.49 447.64,-551.51 441.83,-553.01 441.83,-553.01 395.62,-564.99 395.62,-564.99 389.81,-566.49 378.19,-566.49 372.38,-564.99"/>
<text xml:space="preserve" text-anchor="middle" x="384" y="-545.75" font-family="Consolas" font-size="10.00">has contacts?</text>
</g>
<!-- SourceContextLoop&#45;&gt;HasContacts -->
<g id="edge10" class="edge">
<title>SourceContextLoop&#45;&gt;HasContacts</title>
<path fill="none" stroke="#505050" d="M390.33,-630.54C387.33,-625.15 384.53,-619.03 383,-613 380.23,-602.08 379.89,-589.73 380.46,-578.95"/>
<polygon fill="#505050" stroke="#505050" points="383.93,-579.35 381.28,-569.1 376.96,-578.77 383.93,-579.35"/>
</g>
<!-- AllocationLoop -->
<g id="node12" class="node">
<title>AllocationLoop</title>
<path fill="#f8f8f8" stroke="#606060" d="M756.5,-568C756.5,-568 617.5,-568 617.5,-568 611.5,-568 605.5,-562 605.5,-556 605.5,-556 605.5,-544 605.5,-544 605.5,-538 611.5,-532 617.5,-532 617.5,-532 756.5,-532 756.5,-532 762.5,-532 768.5,-538 768.5,-544 768.5,-544 768.5,-556 768.5,-556 768.5,-562 762.5,-568 756.5,-568"/>
<text xml:space="preserve" text-anchor="middle" x="687" y="-545.75" font-family="Consolas" font-size="10.00">for each source contact list</text>
</g>
<!-- SourceContextLoop&#45;&gt;AllocationLoop -->
<g id="edge15" class="edge">
<title>SourceContextLoop&#45;&gt;AllocationLoop</title>
<path fill="none" stroke="#505050" d="M455.8,-630.59C486.89,-620.44 526.71,-607.31 562,-595.25 583.52,-587.9 607.04,-579.63 627.82,-572.25"/>
<polygon fill="#505050" stroke="#505050" points="628.74,-575.64 636.98,-568.99 626.39,-569.04 628.74,-575.64"/>
<text xml:space="preserve" text-anchor="middle" x="570.01" y="-604.45" font-family="Consolas" font-size="9.00">contexts done</text>
</g>
<!-- HasContacts&#45;&gt;SourceContextLoop -->
<g id="edge12" class="edge">
<title>HasContacts&#45;&gt;SourceContextLoop</title>
<path fill="none" stroke="#505050" d="M387.07,-567.54C389.72,-581.82 393.61,-602.76 396.75,-619.7"/>
<polygon fill="#505050" stroke="#505050" points="393.24,-619.98 398.51,-629.17 400.12,-618.7 393.24,-619.98"/>
<text xml:space="preserve" text-anchor="middle" x="437.14" y="-604.45" font-family="Consolas" font-size="9.00">no / next source</text>
</g>
<!-- BuildContext -->
<g id="node10" class="node">
<title>BuildContext</title>
<path fill="#f8f8f8" stroke="#606060" d="M464,-469C464,-469 304,-469 304,-469 298,-469 292,-463 292,-457 292,-457 292,-445 292,-445 292,-439 298,-433 304,-433 304,-433 464,-433 464,-433 470,-433 476,-439 476,-445 476,-445 476,-457 476,-457 476,-463 470,-469 464,-469"/>
<text xml:space="preserve" text-anchor="middle" x="384" y="-446.75" font-family="Consolas" font-size="10.00">sum overlap and closing momentum</text>
</g>
<!-- HasContacts&#45;&gt;BuildContext -->
<g id="edge11" class="edge">
<title>HasContacts&#45;&gt;BuildContext</title>
<path fill="none" stroke="#505050" d="M384,-531.66C384,-517.45 384,-497.06 384,-480.46"/>
<polygon fill="#505050" stroke="#505050" points="387.5,-480.71 384,-470.71 380.5,-480.71 387.5,-480.71"/>
<text xml:space="preserve" text-anchor="middle" x="391.88" y="-505.45" font-family="Consolas" font-size="9.00">yes</text>
</g>
<!-- ContextData -->
<g id="node11" class="node">
<title>ContextData</title>
<path fill="#eaf3ff" stroke="#606060" d="M549.75,-366.73C549.75,-368.53 492.04,-370 421,-370 349.96,-370 292.25,-368.53 292.25,-366.73 292.25,-366.73 292.25,-337.27 292.25,-337.27 292.25,-335.47 349.96,-334 421,-334 492.04,-334 549.75,-335.47 549.75,-337.27 549.75,-337.27 549.75,-366.73 549.75,-366.73"/>
<path fill="none" stroke="#606060" d="M549.75,-366.73C549.75,-364.92 492.04,-363.45 421,-363.45 349.96,-363.45 292.25,-364.92 292.25,-366.73"/>
<text xml:space="preserve" text-anchor="middle" x="421" y="-347.75" font-family="Consolas" font-size="10.00">source context: total area, available momentum</text>
</g>
<!-- BuildContext&#45;&gt;ContextData -->
<g id="edge13" class="edge">
<title>BuildContext&#45;&gt;ContextData</title>
<path fill="none" stroke="#505050" d="M390.61,-432.66C396.14,-418.18 404.12,-397.26 410.51,-380.5"/>
<polygon fill="#505050" stroke="#505050" points="413.61,-382.2 413.9,-371.61 407.07,-379.7 413.61,-382.2"/>
<text xml:space="preserve" text-anchor="middle" x="413.41" y="-406.45" font-family="Consolas" font-size="9.00">write</text>
</g>
<!-- ContextData&#45;&gt;SourceContextLoop -->
<g id="edge14" class="edge">
<title>ContextData&#45;&gt;SourceContextLoop</title>
<path fill="none" stroke="#505050" d="M443.39,-370.47C458.32,-383.63 476.68,-403.11 485,-425 499.85,-464.05 506.25,-578.28 483,-613 480.27,-617.08 476.95,-620.69 473.23,-623.88"/>
<polygon fill="#505050" stroke="#505050" points="471.22,-621.01 465.16,-629.7 475.32,-626.69 471.22,-621.01"/>
<text xml:space="preserve" text-anchor="middle" x="527.01" y="-505.45" font-family="Consolas" font-size="9.00">next source</text>
</g>
<!-- SourceTarget -->
<g id="node13" class="node">
<title>SourceTarget</title>
<path fill="#f8f8f8" stroke="#606060" d="M719.88,-469C719.88,-469 586.12,-469 586.12,-469 580.12,-469 574.12,-463 574.12,-457 574.12,-457 574.12,-445 574.12,-445 574.12,-439 580.12,-433 586.12,-433 586.12,-433 719.88,-433 719.88,-433 725.88,-433 731.88,-439 731.88,-445 731.88,-445 731.88,-457 731.88,-457 731.88,-463 725.88,-469 719.88,-469"/>
<text xml:space="preserve" text-anchor="middle" x="653" y="-446.75" font-family="Consolas" font-size="10.00">compute source&#45;level target</text>
</g>
<!-- AllocationLoop&#45;&gt;SourceTarget -->
<g id="edge16" class="edge">
<title>AllocationLoop&#45;&gt;SourceTarget</title>
<path fill="none" stroke="#505050" d="M680.92,-531.66C675.89,-517.31 668.65,-496.66 662.81,-479.98"/>
<polygon fill="#505050" stroke="#505050" points="666.14,-478.9 659.53,-470.62 659.53,-481.21 666.14,-478.9"/>
</g>
<!-- PairLoop -->
<g id="node16" class="node">
<title>PairLoop</title>
<path fill="#f8f8f8" stroke="#606060" d="M1018.38,-469C1018.38,-469 905.62,-469 905.62,-469 899.62,-469 893.62,-463 893.62,-457 893.62,-457 893.62,-445 893.62,-445 893.62,-439 899.62,-433 905.62,-433 905.62,-433 1018.38,-433 1018.38,-433 1024.38,-433 1030.38,-439 1030.38,-445 1030.38,-445 1030.38,-457 1030.38,-457 1030.38,-463 1024.38,-469 1018.38,-469"/>
<text xml:space="preserve" text-anchor="middle" x="962" y="-446.75" font-family="Consolas" font-size="10.00">for each unordered pair</text>
</g>
<!-- AllocationLoop&#45;&gt;PairLoop -->
<g id="edge20" class="edge">
<title>AllocationLoop&#45;&gt;PairLoop</title>
<path fill="none" stroke="#505050" d="M736.48,-531.55C782.87,-515.18 852.32,-490.69 901.88,-473.21"/>
<polygon fill="#505050" stroke="#505050" points="902.76,-476.61 911.02,-469.98 900.43,-470.01 902.76,-476.61"/>
<text xml:space="preserve" text-anchor="middle" x="847.41" y="-505.45" font-family="Consolas" font-size="9.00">allocation done</text>
</g>
<!-- Distribute -->
<g id="node14" class="node">
<title>Distribute</title>
<path fill="#f8f8f8" stroke="#606060" d="M767.5,-370C767.5,-370 586.5,-370 586.5,-370 580.5,-370 574.5,-364 574.5,-358 574.5,-358 574.5,-346 574.5,-346 574.5,-340 580.5,-334 586.5,-334 586.5,-334 767.5,-334 767.5,-334 773.5,-334 779.5,-340 779.5,-346 779.5,-346 779.5,-358 779.5,-358 779.5,-364 773.5,-370 767.5,-370"/>
<text xml:space="preserve" text-anchor="middle" x="677" y="-347.75" font-family="Consolas" font-size="10.00">distribute target by contact weights</text>
</g>
<!-- SourceTarget&#45;&gt;Distribute -->
<g id="edge17" class="edge">
<title>SourceTarget&#45;&gt;Distribute</title>
<path fill="none" stroke="#505050" d="M657.29,-432.66C660.84,-418.31 665.95,-397.66 670.08,-380.98"/>
<polygon fill="#505050" stroke="#505050" points="673.38,-382.21 672.38,-371.66 666.58,-380.53 673.38,-382.21"/>
</g>
<!-- CandidateData -->
<g id="node15" class="node">
<title>CandidateData</title>
<path fill="#eaf3ff" stroke="#606060" d="M767.88,-267.73C767.88,-269.53 741.93,-271 710,-271 678.07,-271 652.12,-269.53 652.12,-267.73 652.12,-267.73 652.12,-238.27 652.12,-238.27 652.12,-236.47 678.07,-235 710,-235 741.93,-235 767.88,-236.47 767.88,-238.27 767.88,-238.27 767.88,-267.73 767.88,-267.73"/>
<path fill="none" stroke="#606060" d="M767.88,-267.73C767.88,-265.92 741.93,-264.45 710,-264.45 678.07,-264.45 652.12,-265.92 652.12,-267.73"/>
<text xml:space="preserve" text-anchor="middle" x="710" y="-248.75" font-family="Consolas" font-size="10.00">directed candidates</text>
</g>
<!-- Distribute&#45;&gt;CandidateData -->
<g id="edge18" class="edge">
<title>Distribute&#45;&gt;CandidateData</title>
<path fill="none" stroke="#505050" d="M682.9,-333.66C687.78,-319.31 694.81,-298.66 700.48,-281.98"/>
<polygon fill="#505050" stroke="#505050" points="703.76,-283.22 703.66,-272.62 697.13,-280.96 703.76,-283.22"/>
<text xml:space="preserve" text-anchor="middle" x="704.65" y="-307.45" font-family="Consolas" font-size="9.00">write</text>
</g>
<!-- CandidateData&#45;&gt;AllocationLoop -->
<g id="edge19" class="edge">
<title>CandidateData&#45;&gt;AllocationLoop</title>
<path fill="none" stroke="#505050" d="M739.08,-271.41C757.15,-284.04 778.8,-302.91 789,-326 801.79,-354.97 808.72,-372.47 789,-397.25 779.13,-409.65 764.99,-393.6 754.25,-405.25 726.55,-435.31 759.54,-459.83 741,-496.25 735.74,-506.59 727.66,-516.08 719.34,-524.08"/>
<polygon fill="#505050" stroke="#505050" points="717.26,-521.25 712.17,-530.54 721.94,-526.45 717.26,-521.25"/>
<text xml:space="preserve" text-anchor="middle" x="783.12" y="-406.45" font-family="Consolas" font-size="9.00">next source</text>
</g>
<!-- PairCompatible -->
<g id="node17" class="node">
<title>PairCompatible</title>
<path fill="#f8f8f8" stroke="#606060" d="M985.75,-370C985.75,-370 836.25,-370 836.25,-370 830.25,-370 824.25,-364 824.25,-358 824.25,-358 824.25,-346 824.25,-346 824.25,-340 830.25,-334 836.25,-334 836.25,-334 985.75,-334 985.75,-334 991.75,-334 997.75,-340 997.75,-346 997.75,-346 997.75,-358 997.75,-358 997.75,-364 991.75,-370 985.75,-370"/>
<text xml:space="preserve" text-anchor="middle" x="911" y="-347.75" font-family="Consolas" font-size="10.00">choose compatible pair impulse</text>
</g>
<!-- PairLoop&#45;&gt;PairCompatible -->
<g id="edge21" class="edge">
<title>PairLoop&#45;&gt;PairCompatible</title>
<path fill="none" stroke="#505050" d="M952.88,-432.66C945.19,-418.04 934.06,-396.86 925.21,-380.02"/>
<polygon fill="#505050" stroke="#505050" points="928.49,-378.75 920.74,-371.53 922.3,-382.01 928.49,-378.75"/>
</g>
<!-- ApplyLoop -->
<g id="node19" class="node">
<title>ApplyLoop</title>
<path fill="#f8f8f8" stroke="#606060" d="M1294.38,-370C1294.38,-370 1223.62,-370 1223.62,-370 1217.62,-370 1211.62,-364 1211.62,-358 1211.62,-358 1211.62,-346 1211.62,-346 1211.62,-340 1217.62,-334 1223.62,-334 1223.62,-334 1294.38,-334 1294.38,-334 1300.38,-334 1306.38,-340 1306.38,-346 1306.38,-346 1306.38,-358 1306.38,-358 1306.38,-364 1300.38,-370 1294.38,-370"/>
<text xml:space="preserve" text-anchor="middle" x="1259" y="-347.75" font-family="Consolas" font-size="10.00">for each source</text>
</g>
<!-- PairLoop&#45;&gt;ApplyLoop -->
<g id="edge24" class="edge">
<title>PairLoop&#45;&gt;ApplyLoop</title>
<path fill="none" stroke="#505050" d="M1015.44,-432.55C1067.63,-415.5 1146.83,-389.63 1200.64,-372.06"/>
<polygon fill="#505050" stroke="#505050" points="1201.52,-375.45 1209.94,-369.02 1199.35,-368.8 1201.52,-375.45"/>
<text xml:space="preserve" text-anchor="middle" x="1116.34" y="-406.45" font-family="Consolas" font-size="9.00">plan done</text>
</g>
<!-- PlanData -->
<g id="node18" class="node">
<title>PlanData</title>
<path fill="#eaf3ff" stroke="#606060" d="M1032.62,-267.73C1032.62,-269.53 999.63,-271 959,-271 918.37,-271 885.38,-269.53 885.38,-267.73 885.38,-267.73 885.38,-238.27 885.38,-238.27 885.38,-236.47 918.37,-235 959,-235 999.63,-235 1032.62,-236.47 1032.62,-238.27 1032.62,-238.27 1032.62,-267.73 1032.62,-267.73"/>
<path fill="none" stroke="#606060" d="M1032.62,-267.73C1032.62,-265.92 999.63,-264.45 959,-264.45 918.37,-264.45 885.38,-265.92 885.38,-267.73"/>
<text xml:space="preserve" text-anchor="middle" x="959" y="-248.75" font-family="Consolas" font-size="10.00">planned directed impulses</text>
</g>
<!-- PairCompatible&#45;&gt;PlanData -->
<g id="edge22" class="edge">
<title>PairCompatible&#45;&gt;PlanData</title>
<path fill="none" stroke="#505050" d="M919.58,-333.66C926.75,-319.18 937.1,-298.26 945.39,-281.5"/>
<polygon fill="#505050" stroke="#505050" points="948.52,-283.06 949.82,-272.55 942.25,-279.96 948.52,-283.06"/>
<text xml:space="preserve" text-anchor="middle" x="945.25" y="-307.45" font-family="Consolas" font-size="9.00">write</text>
</g>
<!-- PlanData&#45;&gt;PairLoop -->
<g id="edge23" class="edge">
<title>PlanData&#45;&gt;PairLoop</title>
<path fill="none" stroke="#505050" d="M974.92,-271.4C986.33,-285.1 1000.73,-305.29 1007,-326 1016.18,-356.31 1017.95,-367.54 1007,-397.25 1003.37,-407.1 996.99,-416.36 990.16,-424.28"/>
<polygon fill="#505050" stroke="#505050" points="987.67,-421.82 983.41,-431.52 992.79,-426.6 987.67,-421.82"/>
<text xml:space="preserve" text-anchor="middle" x="1038.19" y="-348.32" font-family="Consolas" font-size="9.00">next pair</text>
</g>
<!-- ReadPlan -->
<g id="node20" class="node">
<title>ReadPlan</title>
<path fill="#f8f8f8" stroke="#606060" d="M1245.12,-271C1245.12,-271 1142.88,-271 1142.88,-271 1136.88,-271 1130.88,-265 1130.88,-259 1130.88,-259 1130.88,-247 1130.88,-247 1130.88,-241 1136.88,-235 1142.88,-235 1142.88,-235 1245.12,-235 1245.12,-235 1251.12,-235 1257.12,-241 1257.12,-247 1257.12,-247 1257.12,-259 1257.12,-259 1257.12,-265 1251.12,-271 1245.12,-271"/>
<text xml:space="preserve" text-anchor="middle" x="1194" y="-248.75" font-family="Consolas" font-size="10.00">read planned impulses</text>
</g>
<!-- ApplyLoop&#45;&gt;ReadPlan -->
<g id="edge25" class="edge">
<title>ApplyLoop&#45;&gt;ReadPlan</title>
<path fill="none" stroke="#505050" d="M1247.38,-333.66C1237.49,-318.9 1223.13,-297.46 1211.79,-280.55"/>
<polygon fill="#505050" stroke="#505050" points="1214.84,-278.81 1206.36,-272.45 1209.02,-282.7 1214.84,-278.81"/>
</g>
<!-- Move -->
<g id="node24" class="node">
<title>Move</title>
<path fill="#f8f8f8" stroke="#606060" d="M1442.75,-271C1442.75,-271 1377.25,-271 1377.25,-271 1371.25,-271 1365.25,-265 1365.25,-259 1365.25,-259 1365.25,-247 1365.25,-247 1365.25,-241 1371.25,-235 1377.25,-235 1377.25,-235 1442.75,-235 1442.75,-235 1448.75,-235 1454.75,-241 1454.75,-247 1454.75,-247 1454.75,-259 1454.75,-259 1454.75,-265 1448.75,-271 1442.75,-271"/>
<text xml:space="preserve" text-anchor="middle" x="1410" y="-248.75" font-family="Consolas" font-size="10.00">move particles</text>
</g>
<!-- ApplyLoop&#45;&gt;Move -->
<g id="edge30" class="edge">
<title>ApplyLoop&#45;&gt;Move</title>
<path fill="none" stroke="#505050" d="M1292.78,-333.62C1311.01,-323.86 1333.66,-311.08 1353,-298.25 1362.12,-292.2 1371.66,-285.12 1380.26,-278.42"/>
<polygon fill="#505050" stroke="#505050" points="1382.32,-281.26 1387.99,-272.31 1377.97,-275.77 1382.32,-281.26"/>
<text xml:space="preserve" text-anchor="middle" x="1380.13" y="-307.45" font-family="Consolas" font-size="9.00">all sources done</text>
</g>
<!-- VectorSum -->
<g id="node21" class="node">
<title>VectorSum</title>
<path fill="#f8f8f8" stroke="#606060" d="M1235,-198C1235,-198 1117,-198 1117,-198 1111,-198 1105,-192 1105,-186 1105,-186 1105,-174 1105,-174 1105,-168 1111,-162 1117,-162 1117,-162 1235,-162 1235,-162 1241,-162 1247,-168 1247,-174 1247,-174 1247,-186 1247,-186 1247,-192 1241,-198 1235,-198"/>
<text xml:space="preserve" text-anchor="middle" x="1176" y="-175.75" font-family="Consolas" font-size="10.00">sum vector impulse delta</text>
</g>
<!-- ReadPlan&#45;&gt;VectorSum -->
<g id="edge26" class="edge">
<title>ReadPlan&#45;&gt;VectorSum</title>
<path fill="none" stroke="#505050" d="M1189.64,-234.81C1187.67,-227.05 1185.3,-217.68 1183.09,-208.95"/>
<polygon fill="#505050" stroke="#505050" points="1186.54,-208.33 1180.69,-199.5 1179.75,-210.05 1186.54,-208.33"/>
</g>
<!-- WriteSource -->
<g id="node22" class="node">
<title>WriteSource</title>
<path fill="#f8f8f8" stroke="#606060" d="M1249.25,-125C1249.25,-125 1120.75,-125 1120.75,-125 1114.75,-125 1108.75,-119 1108.75,-113 1108.75,-113 1108.75,-101 1108.75,-101 1108.75,-95 1114.75,-89 1120.75,-89 1120.75,-89 1249.25,-89 1249.25,-89 1255.25,-89 1261.25,-95 1261.25,-101 1261.25,-101 1261.25,-113 1261.25,-113 1261.25,-119 1255.25,-125 1249.25,-125"/>
<text xml:space="preserve" text-anchor="middle" x="1185" y="-102.75" font-family="Consolas" font-size="10.00">write source velocity only</text>
</g>
<!-- VectorSum&#45;&gt;WriteSource -->
<g id="edge27" class="edge">
<title>VectorSum&#45;&gt;WriteSource</title>
<path fill="none" stroke="#505050" d="M1178.18,-161.81C1179.15,-154.14 1180.32,-144.89 1181.42,-136.24"/>
<polygon fill="#505050" stroke="#505050" points="1184.87,-136.89 1182.65,-126.53 1177.92,-136.01 1184.87,-136.89"/>
</g>
<!-- UpdateLedgers -->
<g id="node23" class="node">
<title>UpdateLedgers</title>
<path fill="#f8f8f8" stroke="#606060" d="M1290.88,-52C1290.88,-52 1157.12,-52 1157.12,-52 1151.12,-52 1145.12,-46 1145.12,-40 1145.12,-40 1145.12,-28 1145.12,-28 1145.12,-22 1151.12,-16 1157.12,-16 1157.12,-16 1290.88,-16 1290.88,-16 1296.88,-16 1302.88,-22 1302.88,-28 1302.88,-28 1302.88,-40 1302.88,-40 1302.88,-46 1296.88,-52 1290.88,-52"/>
<text xml:space="preserve" text-anchor="middle" x="1224" y="-29.75" font-family="Consolas" font-size="10.00">update source&#45;owned ledgers</text>
</g>
<!-- WriteSource&#45;&gt;UpdateLedgers -->
<g id="edge28" class="edge">
<title>WriteSource&#45;&gt;UpdateLedgers</title>
<path fill="none" stroke="#505050" d="M1194.44,-88.81C1198.85,-80.79 1204.2,-71.05 1209.13,-62.07"/>
<polygon fill="#505050" stroke="#505050" points="1212.17,-63.81 1213.92,-53.36 1206.04,-60.44 1212.17,-63.81"/>
</g>
<!-- UpdateLedgers&#45;&gt;ApplyLoop -->
<g id="edge29" class="edge">
<title>UpdateLedgers&#45;&gt;ApplyLoop</title>
<path fill="none" stroke="#505050" d="M1250.05,-52.25C1265.86,-64.98 1283,-83.88 1283,-106 1283,-254 1283,-254 1283,-254 1283,-277.82 1276.1,-303.98 1269.7,-323.13"/>
<polygon fill="#505050" stroke="#505050" points="1266.47,-321.77 1266.44,-332.37 1273.07,-324.1 1266.47,-321.77"/>
<text xml:space="preserve" text-anchor="middle" x="1311.88" y="-176.32" font-family="Consolas" font-size="9.00">next source</text>
</g>
<!-- End -->
<g id="node25" class="node">
<title>End</title>
<ellipse fill="#eaf8ea" stroke="#606060" cx="1410" cy="-180" rx="36.87" ry="18"/>
<text xml:space="preserve" text-anchor="middle" x="1410" y="-175.75" font-family="Consolas" font-size="10.00">End Frame</text>
</g>
<!-- Move&#45;&gt;End -->
<g id="edge31" class="edge">
<title>Move&#45;&gt;End</title>
<path fill="none" stroke="#505050" d="M1410,-234.81C1410,-227.23 1410,-218.1 1410,-209.54"/>
<polygon fill="#505050" stroke="#505050" points="1413.5,-209.54 1410,-199.54 1406.5,-209.54 1413.5,-209.54"/>
</g>
</g>
</svg>
