<?xml version="1.0" encoding="UTF-8" standalone="no"?>
<!DOCTYPE svg PUBLIC "-//W3C//DTD SVG 1.1//EN"
 "http://www.w3.org/Graphics/SVG/1.1/DTD/svg11.dtd">
<!-- Generated by graphviz version 15.0.0 (20260523.1842)
 -->
<!-- Title: VerAForceDynamicsFlow Pages: 1 -->
<svg width="922pt" height="835pt"
 viewBox="0.00 0.00 922.00 835.00" xmlns="http://www.w3.org/2000/svg" xmlns:xlink="http://www.w3.org/1999/xlink">
<g id="graph0" class="graph" transform="scale(1 1) rotate(0) translate(4 831.25)">
<title>VerAForceDynamicsFlow</title>
<polygon fill="white" stroke="none" points="-4,4 -4,-831.25 918,-831.25 918,4 -4,4"/>
<!-- ContactDynamics -->
<g id="node1" class="node">
<title>ContactDynamics</title>
<g id="a_node1"><a xlink:href="vscode://file/C:/_DJ/gPCD/docs/Dynamics/VerAForceDynamicsSource.tex:1:1" xlink:title="Open the ContactDynamics section in VerAForceDynamicsSource.tex" target="_blank">
<path fill="#f8f8f8" stroke="#606060" d="M175.5,-827.25C175.5,-827.25 104.75,-827.25 104.75,-827.25 98.75,-827.25 92.75,-821.25 92.75,-815.25 92.75,-815.25 92.75,-803.25 92.75,-803.25 92.75,-797.25 98.75,-791.25 104.75,-791.25 104.75,-791.25 175.5,-791.25 175.5,-791.25 181.5,-791.25 187.5,-797.25 187.5,-803.25 187.5,-803.25 187.5,-815.25 187.5,-815.25 187.5,-821.25 181.5,-827.25 175.5,-827.25"/>
<text xml:space="preserve" text-anchor="middle" x="140.12" y="-805" font-family="Consolas" font-size="10.00">ContactDynamics</text>
</a>
</g>
</g>
<!-- BeginSourceContactParms -->
<g id="node2" class="node">
<title>BeginSourceContactParms</title>
<g id="a_node2"><a xlink:href="vscode://file/C:/_DJ/gPCD/docs/Dynamics/VerAForceDynamicsSource.tex:1:1" xlink:title="Open the BeginSourceContactParms section in VerAForceDynamicsSource.tex" target="_blank">
<path fill="#f8f8f8" stroke="#606060" d="M196.5,-742.25C196.5,-742.25 83.75,-742.25 83.75,-742.25 77.75,-742.25 71.75,-736.25 71.75,-730.25 71.75,-730.25 71.75,-718.25 71.75,-718.25 71.75,-712.25 77.75,-706.25 83.75,-706.25 83.75,-706.25 196.5,-706.25 196.5,-706.25 202.5,-706.25 208.5,-712.25 208.5,-718.25 208.5,-718.25 208.5,-730.25 208.5,-730.25 208.5,-736.25 202.5,-742.25 196.5,-742.25"/>
<text xml:space="preserve" text-anchor="middle" x="140.12" y="-720" font-family="Consolas" font-size="10.00">BeginSourceContactParms</text>
</a>
</g>
</g>
<!-- ContactDynamics&#45;&gt;BeginSourceContactParms -->
<g id="edge1" class="edge">
<title>ContactDynamics&#45;&gt;BeginSourceContactParms</title>
<path fill="none" stroke="#505050" d="M140.12,-790.81C140.12,-790.81 140.12,-751.17 140.12,-751.17"/>
<polygon fill="#505050" stroke="#505050" points="142.58,-751.17 140.13,-744.17 137.68,-751.17 142.58,-751.17"/>
</g>
<!-- InitializeContactState -->
<g id="node3" class="node">
<title>InitializeContactState</title>
<g id="a_node3"><a xlink:href="vscode://file/C:/_DJ/gPCD/docs/Dynamics/VerAForceDynamicsSource.tex:73:1" xlink:title="Open the InitializeContactState section in VerAForceDynamicsSource.tex" target="_blank">
<path fill="#f8f8f8" stroke="#606060" d="M193.88,-648.5C193.88,-648.5 86.38,-648.5 86.38,-648.5 80.38,-648.5 74.38,-642.5 74.38,-636.5 74.38,-636.5 74.38,-624.5 74.38,-624.5 74.38,-618.5 80.38,-612.5 86.38,-612.5 86.38,-612.5 193.88,-612.5 193.88,-612.5 199.88,-612.5 205.88,-618.5 205.88,-624.5 205.88,-624.5 205.88,-636.5 205.88,-636.5 205.88,-642.5 199.88,-648.5 193.88,-648.5"/>
<text xml:space="preserve" text-anchor="middle" x="140.12" y="-626.25" font-family="Consolas" font-size="10.00">InitializeContactState</text>
</a>
</g>
</g>
<!-- BeginSourceContactParms&#45;&gt;InitializeContactState -->
<g id="edge2" class="edge">
<title>BeginSourceContactParms&#45;&gt;InitializeContactState</title>
<path fill="none" stroke="#505050" d="M140.12,-706.17C140.12,-706.17 140.12,-657.35 140.12,-657.35"/>
<polygon fill="#505050" stroke="#505050" points="142.58,-657.35 140.13,-650.35 137.68,-657.35 142.58,-657.35"/>
<text xml:space="preserve" text-anchor="middle" x="174.25" y="-673.7" font-family="Consolas" font-size="9.00">first contact</text>
</g>
<!-- GetContactState -->
<g id="node4" class="node">
<title>GetContactState</title>
<g id="a_node4"><a xlink:href="vscode://file/C:/_DJ/gPCD/docs/Dynamics/VerAForceDynamicsSource.tex:79:1" xlink:title="Open the GetContactState section in VerAForceDynamicsSource.tex" target="_blank">
<path fill="#f8f8f8" stroke="#606060" d="M112.5,-563.5C112.5,-563.5 41.75,-563.5 41.75,-563.5 35.75,-563.5 29.75,-557.5 29.75,-551.5 29.75,-551.5 29.75,-539.5 29.75,-539.5 29.75,-533.5 35.75,-527.5 41.75,-527.5 41.75,-527.5 112.5,-527.5 112.5,-527.5 118.5,-527.5 124.5,-533.5 124.5,-539.5 124.5,-539.5 124.5,-551.5 124.5,-551.5 124.5,-557.5 118.5,-563.5 112.5,-563.5"/>
<text xml:space="preserve" text-anchor="middle" x="77.12" y="-541.25" font-family="Consolas" font-size="10.00">GetContactState</text>
</a>
</g>
</g>
<!-- InitializeContactState&#45;&gt;GetContactState -->
<g id="edge3" class="edge">
<title>InitializeContactState&#45;&gt;GetContactState</title>
<path fill="none" stroke="#505050" d="M99.44,-612.06C99.44,-612.06 99.44,-572.42 99.44,-572.42"/>
<polygon fill="#505050" stroke="#505050" points="101.89,-572.42 99.44,-565.42 96.99,-572.42 101.89,-572.42"/>
</g>
<!-- AppendContactSlot -->
<g id="node7" class="node">
<title>AppendContactSlot</title>
<g id="a_node7"><a xlink:href="vscode://file/C:/_DJ/gPCD/docs/Dynamics/VerAForceDynamicsSource.tex:85:1" xlink:title="Open the AppendContactSlot section in VerAForceDynamicsSource.tex" target="_blank">
<path fill="#f8f8f8" stroke="#606060" d="M112.75,-478.5C112.75,-478.5 31.5,-478.5 31.5,-478.5 25.5,-478.5 19.5,-472.5 19.5,-466.5 19.5,-466.5 19.5,-454.5 19.5,-454.5 19.5,-448.5 25.5,-442.5 31.5,-442.5 31.5,-442.5 112.75,-442.5 112.75,-442.5 118.75,-442.5 124.75,-448.5 124.75,-454.5 124.75,-454.5 124.75,-466.5 124.75,-466.5 124.75,-472.5 118.75,-478.5 112.75,-478.5"/>
<text xml:space="preserve" text-anchor="middle" x="72.12" y="-456.25" font-family="Consolas" font-size="10.00">AppendContactSlot</text>
</a>
</g>
</g>
<!-- GetContactState&#45;&gt;AppendContactSlot -->
<g id="edge4" class="edge">
<title>GetContactState&#45;&gt;AppendContactSlot</title>
<path fill="none" stroke="#505050" d="M77.12,-527.06C77.12,-527.06 77.12,-487.42 77.12,-487.42"/>
<polygon fill="#505050" stroke="#505050" points="79.58,-487.42 77.13,-480.42 74.68,-487.42 79.58,-487.42"/>
</g>
<!-- GetParticleGeometry -->
<g id="node5" class="node">
<title>GetParticleGeometry</title>
<g id="a_node5"><a xlink:href="vscode://file/C:/_DJ/gPCD/docs/Dynamics/VerAForceDynamicsSource.tex:95:1" xlink:title="Open the GetParticleGeometry section in VerAForceDynamicsSource.tex" target="_blank">
<path fill="#f8f8f8" stroke="#606060" d="M113,-291C113,-291 21.25,-291 21.25,-291 15.25,-291 9.25,-285 9.25,-279 9.25,-279 9.25,-267 9.25,-267 9.25,-261 15.25,-255 21.25,-255 21.25,-255 113,-255 113,-255 119,-255 125,-261 125,-267 125,-267 125,-279 125,-279 125,-285 119,-291 113,-291"/>
<text xml:space="preserve" text-anchor="middle" x="67.12" y="-268.75" font-family="Consolas" font-size="10.00">GetParticleGeometry</text>
</a>
</g>
</g>
<!-- GetParticlePosition -->
<g id="node6" class="node">
<title>GetParticlePosition</title>
<g id="a_node6"><a xlink:href="vscode://file/C:/_DJ/gPCD/docs/Dynamics/VerAForceDynamicsSource.tex:101:1" xlink:title="Open the GetParticlePosition section in VerAForceDynamicsSource.tex" target="_blank">
<path fill="#f8f8f8" stroke="#606060" d="M112,-206C112,-206 20.25,-206 20.25,-206 14.25,-206 8.25,-200 8.25,-194 8.25,-194 8.25,-182 8.25,-182 8.25,-176 14.25,-170 20.25,-170 20.25,-170 112,-170 112,-170 118,-170 124,-176 124,-182 124,-182 124,-194 124,-194 124,-200 118,-206 112,-206"/>
<text xml:space="preserve" text-anchor="middle" x="66.12" y="-183.75" font-family="Consolas" font-size="10.00">GetParticlePosition</text>
</a>
</g>
</g>
<!-- GetParticleGeometry&#45;&gt;GetParticlePosition -->
<g id="edge7" class="edge">
<title>GetParticleGeometry&#45;&gt;GetParticlePosition</title>
<path fill="none" stroke="#505050" d="M66.62,-254.56C66.62,-254.56 66.62,-214.92 66.62,-214.92"/>
<polygon fill="#505050" stroke="#505050" points="69.08,-214.92 66.63,-207.92 64.18,-214.92 69.08,-214.92"/>
</g>
<!-- GetStartFrameVelocity -->
<g id="node10" class="node">
<title>GetStartFrameVelocity</title>
<g id="a_node10"><a xlink:href="vscode://file/C:/_DJ/gPCD/docs/Dynamics/VerAForceDynamicsSource.tex:106:1" xlink:title="Open the GetStartFrameVelocity section in VerAForceDynamicsSource.tex" target="_blank">
<path fill="#f8f8f8" stroke="#606060" d="M114.25,-121C114.25,-121 12,-121 12,-121 6,-121 0,-115 0,-109 0,-109 0,-97 0,-97 0,-91 6,-85 12,-85 12,-85 114.25,-85 114.25,-85 120.25,-85 126.25,-91 126.25,-97 126.25,-97 126.25,-109 126.25,-109 126.25,-115 120.25,-121 114.25,-121"/>
<text xml:space="preserve" text-anchor="middle" x="63.12" y="-98.75" font-family="Consolas" font-size="10.00">GetStartFrameVelocity</text>
</a>
</g>
</g>
<!-- GetParticlePosition&#45;&gt;GetStartFrameVelocity -->
<g id="edge8" class="edge">
<title>GetParticlePosition&#45;&gt;GetStartFrameVelocity</title>
<path fill="none" stroke="#505050" d="M66.12,-169.56C66.12,-169.56 66.12,-129.92 66.12,-129.92"/>
<polygon fill="#505050" stroke="#505050" points="68.58,-129.92 66.13,-122.92 63.68,-129.92 68.58,-129.92"/>
</g>
<!-- GetContactSlots -->
<g id="node8" class="node">
<title>GetContactSlots</title>
<g id="a_node8"><a xlink:href="vscode://file/C:/_DJ/gPCD/docs/Dynamics/VerAForceDynamicsSource.tex:90:1" xlink:title="Open the GetContactSlots section in VerAForceDynamicsSource.tex" target="_blank">
<path fill="#f8f8f8" stroke="#606060" d="M106.5,-384.75C106.5,-384.75 35.75,-384.75 35.75,-384.75 29.75,-384.75 23.75,-378.75 23.75,-372.75 23.75,-372.75 23.75,-360.75 23.75,-360.75 23.75,-354.75 29.75,-348.75 35.75,-348.75 35.75,-348.75 106.5,-348.75 106.5,-348.75 112.5,-348.75 118.5,-354.75 118.5,-360.75 118.5,-360.75 118.5,-372.75 118.5,-372.75 118.5,-378.75 112.5,-384.75 106.5,-384.75"/>
<text xml:space="preserve" text-anchor="middle" x="71.12" y="-362.5" font-family="Consolas" font-size="10.00">GetContactSlots</text>
</a>
</g>
</g>
<!-- AppendContactSlot&#45;&gt;GetContactSlots -->
<g id="edge5" class="edge">
<title>AppendContactSlot&#45;&gt;GetContactSlots</title>
<path fill="none" stroke="#505050" d="M71.12,-442.42C71.12,-442.42 71.12,-393.6 71.12,-393.6"/>
<polygon fill="#505050" stroke="#505050" points="73.58,-393.6 71.13,-386.6 68.68,-393.6 73.58,-393.6"/>
</g>
<!-- GetContactSlots&#45;&gt;GetParticleGeometry -->
<g id="edge6" class="edge">
<title>GetContactSlots&#45;&gt;GetParticleGeometry</title>
<path fill="none" stroke="#505050" d="M71.12,-348.67C71.12,-348.67 71.12,-299.85 71.12,-299.85"/>
<polygon fill="#505050" stroke="#505050" points="73.58,-299.85 71.13,-292.85 68.68,-299.85 73.58,-299.85"/>
</g>
<!-- CalculateContactParms -->
<g id="node9" class="node">
<title>CalculateContactParms</title>
<g id="a_node9"><a xlink:href="vscode://file/C:/_DJ/gPCD/docs/Dynamics/VerAForceDynamicsSource.tex:1:1" xlink:title="Open the CalculateContactParms section in VerAForceDynamicsSource.tex" target="_blank">
<path fill="#f8f8f8" stroke="#606060" d="M259.25,-36C259.25,-36 157,-36 157,-36 151,-36 145,-30 145,-24 145,-24 145,-12 145,-12 145,-6 151,0 157,0 157,0 259.25,0 259.25,0 265.25,0 271.25,-6 271.25,-12 271.25,-12 271.25,-24 271.25,-24 271.25,-30 265.25,-36 259.25,-36"/>
<text xml:space="preserve" text-anchor="middle" x="208.12" y="-13.75" font-family="Consolas" font-size="10.00">CalculateContactParms</text>
</a>
</g>
</g>
<!-- CalculateContactParms&#45;&gt;InitializeContactState -->
<g id="edge10" class="edge">
<title>CalculateContactParms&#45;&gt;InitializeContactState</title>
<path fill="none" stroke="#505050" d="M185.58,-36.33C185.58,-36.33 185.58,-603.73 185.58,-603.73"/>
<polygon fill="#505050" stroke="#505050" points="183.13,-603.73 185.58,-610.73 188.03,-603.73 183.13,-603.73"/>
<text xml:space="preserve" text-anchor="middle" x="239.62" y="-316.2" font-family="Consolas" font-size="9.00">next contact</text>
</g>
<!-- CalculateContactForces -->
<g id="node11" class="node">
<title>CalculateContactForces</title>
<g id="a_node11"><a xlink:href="vscode://file/C:/_DJ/gPCD/docs/Dynamics/VerAForceDynamicsSource.tex:1:1" xlink:title="Open the CalculateContactForces section in VerAForceDynamicsSource.tex" target="_blank">
<path fill="#f8f8f8" stroke="#606060" d="M576.88,-827.25C576.88,-827.25 469.38,-827.25 469.38,-827.25 463.38,-827.25 457.38,-821.25 457.38,-815.25 457.38,-815.25 457.38,-803.25 457.38,-803.25 457.38,-797.25 463.38,-791.25 469.38,-791.25 469.38,-791.25 576.88,-791.25 576.88,-791.25 582.88,-791.25 588.88,-797.25 588.88,-803.25 588.88,-803.25 588.88,-815.25 588.88,-815.25 588.88,-821.25 582.88,-827.25 576.88,-827.25"/>
<text xml:space="preserve" text-anchor="middle" x="523.12" y="-805" font-family="Consolas" font-size="10.00">CalculateContactForces</text>
</a>
</g>
</g>
<!-- CalculateContactParms&#45;&gt;CalculateContactForces -->
<g id="edge11" class="edge">
<title>CalculateContactParms&#45;&gt;CalculateContactForces</title>
<path fill="none" stroke="#505050" d="M239.88,-36.39C239.88,-155.15 239.88,-809 239.88,-809 239.88,-809 448.56,-809 448.56,-809"/>
<polygon fill="#505050" stroke="#505050" points="448.56,-811.45 455.56,-809 448.56,-806.55 448.56,-811.45"/>
<text xml:space="preserve" text-anchor="middle" x="362.75" y="-409.95" font-family="Consolas" font-size="9.00">all contacts done</text>
</g>
<!-- GetStartFrameVelocity&#45;&gt;CalculateContactParms -->
<g id="edge9" class="edge">
<title>GetStartFrameVelocity&#45;&gt;CalculateContactParms</title>
<path fill="none" stroke="#505050" d="M126.67,-103C147.44,-103 165.29,-103 165.29,-103 165.29,-103 165.29,-44.96 165.29,-44.96"/>
<polygon fill="#505050" stroke="#505050" points="167.74,-44.96 165.29,-37.96 162.84,-44.96 167.74,-44.96"/>
</g>
<!-- GetPairStiffness -->
<g id="node12" class="node">
<title>GetPairStiffness</title>
<g id="a_node12"><a xlink:href="vscode://file/C:/_DJ/gPCD/docs/Dynamics/VerAForceDynamicsSource.tex:133:1" xlink:title="Open the GetPairStiffness section in VerAForceDynamicsSource.tex" target="_blank">
<path fill="#f8f8f8" stroke="#606060" d="M488.12,-742.25C488.12,-742.25 412.12,-742.25 412.12,-742.25 406.12,-742.25 400.12,-736.25 400.12,-730.25 400.12,-730.25 400.12,-718.25 400.12,-718.25 400.12,-712.25 406.12,-706.25 412.12,-706.25 412.12,-706.25 488.12,-706.25 488.12,-706.25 494.12,-706.25 500.12,-712.25 500.12,-718.25 500.12,-718.25 500.12,-730.25 500.12,-730.25 500.12,-736.25 494.12,-742.25 488.12,-742.25"/>
<text xml:space="preserve" text-anchor="middle" x="450.12" y="-720" font-family="Consolas" font-size="10.00">GetPairStiffness</text>
</a>
</g>
</g>
<!-- CalculateContactForces&#45;&gt;GetPairStiffness -->
<g id="edge12" class="edge">
<title>CalculateContactForces&#45;&gt;GetPairStiffness</title>
<path fill="none" stroke="#505050" d="M471.62,-790.81C471.62,-790.81 471.62,-751.17 471.62,-751.17"/>
<polygon fill="#505050" stroke="#505050" points="474.08,-751.17 471.63,-744.17 469.18,-751.17 474.08,-751.17"/>
</g>
<!-- GetContactPotentialEnergy -->
<g id="node13" class="node">
<title>GetContactPotentialEnergy</title>
<g id="a_node13"><a xlink:href="vscode://file/C:/_DJ/gPCD/docs/Dynamics/VerAForceDynamicsSource.tex:1:1" xlink:title="Open the GetContactPotentialEnergy section in VerAForceDynamicsSource.tex" target="_blank">
<path fill="#f8f8f8" stroke="#606060" d="M689.75,-742.25C689.75,-742.25 566.5,-742.25 566.5,-742.25 560.5,-742.25 554.5,-736.25 554.5,-730.25 554.5,-730.25 554.5,-718.25 554.5,-718.25 554.5,-712.25 560.5,-706.25 566.5,-706.25 566.5,-706.25 689.75,-706.25 689.75,-706.25 695.75,-706.25 701.75,-712.25 701.75,-718.25 701.75,-718.25 701.75,-730.25 701.75,-730.25 701.75,-736.25 695.75,-742.25 689.75,-742.25"/>
<text xml:space="preserve" text-anchor="middle" x="628.12" y="-720" font-family="Consolas" font-size="10.00">GetContactPotentialEnergy</text>
</a>
</g>
</g>
<!-- CalculateContactForces&#45;&gt;GetContactPotentialEnergy -->
<g id="edge14" class="edge">
<title>CalculateContactForces&#45;&gt;GetContactPotentialEnergy</title>
<path fill="none" stroke="#505050" d="M563.09,-790.81C563.09,-790.81 563.09,-751.17 563.09,-751.17"/>
<polygon fill="#505050" stroke="#505050" points="565.54,-751.17 563.09,-744.17 560.64,-751.17 565.54,-751.17"/>
</g>
<!-- CalculateSourceAcceleration -->
<g id="node15" class="node">
<title>CalculateSourceAcceleration</title>
<g id="a_node15"><a xlink:href="vscode://file/C:/_DJ/gPCD/docs/Dynamics/VerAForceDynamicsSource.tex:1:1" xlink:title="Open the CalculateSourceAcceleration section in VerAForceDynamicsSource.tex" target="_blank">
<path fill="#f8f8f8" stroke="#606060" d="M902,-742.25C902,-742.25 768.25,-742.25 768.25,-742.25 762.25,-742.25 756.25,-736.25 756.25,-730.25 756.25,-730.25 756.25,-718.25 756.25,-718.25 756.25,-712.25 762.25,-706.25 768.25,-706.25 768.25,-706.25 902,-706.25 902,-706.25 908,-706.25 914,-712.25 914,-718.25 914,-718.25 914,-730.25 914,-730.25 914,-736.25 908,-742.25 902,-742.25"/>
<text xml:space="preserve" text-anchor="middle" x="835.12" y="-720" font-family="Consolas" font-size="10.00">CalculateSourceAcceleration</text>
</a>
</g>
</g>
<!-- CalculateContactForces&#45;&gt;CalculateSourceAcceleration -->
<g id="edge16" class="edge">
<title>CalculateContactForces&#45;&gt;CalculateSourceAcceleration</title>
<path fill="none" stroke="#505050" d="M580.28,-791.09C580.28,-779.64 580.28,-767 580.28,-767 580.28,-767 759.94,-767 759.94,-767 759.94,-767 759.94,-751.14 759.94,-751.14"/>
<polygon fill="#505050" stroke="#505050" points="762.39,-751.14 759.94,-744.14 757.49,-751.14 762.39,-751.14"/>
</g>
<!-- GetPairStiffness&#45;&gt;CalculateContactForces -->
<g id="edge13" class="edge">
<title>GetPairStiffness&#45;&gt;CalculateContactForces</title>
<path fill="none" stroke="#505050" d="M485.88,-742.69C485.88,-742.69 485.88,-782.33 485.88,-782.33"/>
<polygon fill="#505050" stroke="#505050" points="483.43,-782.33 485.88,-789.33 488.33,-782.33 483.43,-782.33"/>
</g>
<!-- GetContactPotentialEnergy&#45;&gt;CalculateContactForces -->
<g id="edge15" class="edge">
<title>GetContactPotentialEnergy&#45;&gt;CalculateContactForces</title>
<path fill="none" stroke="#505050" d="M571.69,-742.69C571.69,-742.69 571.69,-782.33 571.69,-782.33"/>
<polygon fill="#505050" stroke="#505050" points="569.24,-782.33 571.69,-789.33 574.14,-782.33 569.24,-782.33"/>
</g>
<!-- TotalPotentialEnergy -->
<g id="node14" class="node">
<title>TotalPotentialEnergy</title>
<g id="a_node14"><a xlink:href="vscode://file/C:/_DJ/gPCD/docs/Dynamics/VerAForceDynamicsSource.tex:1:1" xlink:title="Open the TotalPotentialEnergy section in VerAForceDynamicsSource.tex" target="_blank">
<path fill="#f8f8f8" stroke="#606060" d="M751.62,-827.25C751.62,-827.25 654.62,-827.25 654.62,-827.25 648.62,-827.25 642.62,-821.25 642.62,-815.25 642.62,-815.25 642.62,-803.25 642.62,-803.25 642.62,-797.25 648.62,-791.25 654.62,-791.25 654.62,-791.25 751.62,-791.25 751.62,-791.25 757.62,-791.25 763.62,-797.25 763.62,-803.25 763.62,-803.25 763.62,-815.25 763.62,-815.25 763.62,-821.25 757.62,-827.25 751.62,-827.25"/>
<text xml:space="preserve" text-anchor="middle" x="703.12" y="-805" font-family="Consolas" font-size="10.00">TotalPotentialEnergy</text>
</a>
</g>
</g>
<!-- FinishSourceVelocity -->
<g id="node16" class="node">
<title>FinishSourceVelocity</title>
<g id="a_node16"><a xlink:href="vscode://file/C:/_DJ/gPCD/docs/Dynamics/VerAForceDynamicsSource.tex:1:1" xlink:title="Open the FinishSourceVelocity section in VerAForceDynamicsSource.tex" target="_blank">
<path fill="#f8f8f8" stroke="#606060" d="M721.62,-648.5C721.62,-648.5 624.62,-648.5 624.62,-648.5 618.62,-648.5 612.62,-642.5 612.62,-636.5 612.62,-636.5 612.62,-624.5 612.62,-624.5 612.62,-618.5 618.62,-612.5 624.62,-612.5 624.62,-612.5 721.62,-612.5 721.62,-612.5 727.62,-612.5 733.62,-618.5 733.62,-624.5 733.62,-624.5 733.62,-636.5 733.62,-636.5 733.62,-642.5 727.62,-648.5 721.62,-648.5"/>
<text xml:space="preserve" text-anchor="middle" x="673.12" y="-626.25" font-family="Consolas" font-size="10.00">FinishSourceVelocity</text>
</a>
</g>
</g>
<!-- CalculateSourceAcceleration&#45;&gt;FinishSourceVelocity -->
<g id="edge19" class="edge">
<title>CalculateSourceAcceleration&#45;&gt;FinishSourceVelocity</title>
<path fill="none" stroke="#505050" d="M772,-705.83C772,-678.65 772,-631 772,-631 772,-631 742.57,-631 742.57,-631"/>
<polygon fill="#505050" stroke="#505050" points="742.57,-628.55 735.57,-631 742.57,-633.45 742.57,-628.55"/>
</g>
<!-- GetParticleMass -->
<g id="node17" class="node">
<title>GetParticleMass</title>
<g id="a_node17"><a xlink:href="vscode://file/C:/_DJ/gPCD/docs/Dynamics/VerAForceDynamicsSource.tex:154:1" xlink:title="Open the GetParticleMass section in VerAForceDynamicsSource.tex" target="_blank">
<path fill="#f8f8f8" stroke="#606060" d="M870.5,-648.5C870.5,-648.5 799.75,-648.5 799.75,-648.5 793.75,-648.5 787.75,-642.5 787.75,-636.5 787.75,-636.5 787.75,-624.5 787.75,-624.5 787.75,-618.5 793.75,-612.5 799.75,-612.5 799.75,-612.5 870.5,-612.5 870.5,-612.5 876.5,-612.5 882.5,-618.5 882.5,-624.5 882.5,-624.5 882.5,-636.5 882.5,-636.5 882.5,-642.5 876.5,-648.5 870.5,-648.5"/>
<text xml:space="preserve" text-anchor="middle" x="835.12" y="-626.25" font-family="Consolas" font-size="10.00">GetParticleMass</text>
</a>
</g>
</g>
<!-- CalculateSourceAcceleration&#45;&gt;GetParticleMass -->
<g id="edge17" class="edge">
<title>CalculateSourceAcceleration&#45;&gt;GetParticleMass</title>
<path fill="none" stroke="#505050" d="M819.33,-706.17C819.33,-706.17 819.33,-657.35 819.33,-657.35"/>
<polygon fill="#505050" stroke="#505050" points="821.78,-657.35 819.33,-650.35 816.88,-657.35 821.78,-657.35"/>
</g>
<!-- GetParticleMass&#45;&gt;CalculateSourceAcceleration -->
<g id="edge18" class="edge">
<title>GetParticleMass&#45;&gt;CalculateSourceAcceleration</title>
<path fill="none" stroke="#505050" d="M850.92,-648.58C850.92,-648.58 850.92,-697.4 850.92,-697.4"/>
<polygon fill="#505050" stroke="#505050" points="848.47,-697.4 850.92,-704.4 853.37,-697.4 848.47,-697.4"/>
</g>
</g>
</svg>
